<svg width="60" height="41" viewBox="0 0 60 41" fill="none" xmlns="http://www.w3.org/2000/svg">
<rect x="1.35" y="0.85" width="57.8" height="39.1" rx="5.95" fill="white" stroke="#D9D9D9" stroke-width="1.7"/>
<path fill-rule="evenodd" clip-rule="evenodd" d="M14.6885 15.186C15.4875 15.2534 16.2866 14.7816 16.786 14.1834C17.2771 13.5683 17.6017 12.7426 17.5185 11.9C16.811 11.9337 15.937 12.3718 15.4376 12.9869C14.9798 13.5177 14.5886 14.3772 14.6885 15.186ZM24.1938 26.0384V12.9027H29.0631C31.5768 12.9027 33.3331 14.6552 33.3331 17.2166C33.3331 19.7781 31.5435 21.5475 28.9965 21.5475H26.2081V26.0384H24.1938ZM17.5102 15.3461C16.8062 15.3051 16.1639 15.5604 15.6451 15.7667C15.3112 15.8994 15.0284 16.0118 14.8133 16.0118C14.572 16.0118 14.2775 15.8934 13.947 15.7604C13.5139 15.5863 13.0187 15.3871 12.4994 15.3967C11.3091 15.4135 10.202 16.096 9.59442 17.1829C8.34587 19.3568 9.2698 22.5754 10.4767 24.3448C11.0677 25.2211 11.7752 26.1816 12.7075 26.1479C13.1176 26.1322 13.4126 26.0055 13.7179 25.8744C14.0695 25.7234 14.4346 25.5665 15.0048 25.5665C15.5552 25.5665 15.9044 25.7193 16.2396 25.8659C16.5583 26.0054 16.8644 26.1393 17.3188 26.131C18.2843 26.1142 18.8919 25.2548 19.4829 24.3785C20.1207 23.438 20.4009 22.5202 20.4435 22.3809L20.4484 22.3648C20.4474 22.3637 20.4396 22.3601 20.4257 22.3536L20.4256 22.3536C20.2125 22.2548 18.5829 21.4997 18.5673 19.4747C18.5516 17.7751 19.8598 16.9139 20.0657 16.7784C20.0783 16.7701 20.0867 16.7646 20.0905 16.7617C19.2582 15.5147 17.9597 15.3798 17.5102 15.3461ZM37.0123 26.1394C38.2774 26.1394 39.4511 25.4906 39.9838 24.4627H40.0254V26.0383H41.8899V19.4999C41.8899 17.6041 40.3917 16.3824 38.086 16.3824C35.9468 16.3824 34.3653 17.621 34.3071 19.323H36.1216C36.2714 18.5141 37.0123 17.9833 38.0277 17.9833C39.2596 17.9833 39.9505 18.5647 39.9505 19.6347V20.3593L37.4368 20.511C35.0978 20.6542 33.8326 21.6232 33.8326 23.3083C33.8326 25.0103 35.1394 26.1394 37.0123 26.1394ZM37.5529 24.5807C36.4791 24.5807 35.7966 24.0583 35.7966 23.2578C35.7966 22.4321 36.4542 21.9519 37.711 21.876L39.9501 21.7328V22.4742C39.9501 23.7044 38.9179 24.5807 37.5529 24.5807ZM48.075 26.5523C47.2676 28.8525 46.3437 29.6108 44.3793 29.6108C44.2295 29.6108 43.7301 29.594 43.6135 29.5603V27.9847C43.7384 28.0015 44.0464 28.0184 44.2045 28.0184C45.0951 28.0184 45.5946 27.6392 45.9025 26.6534L46.0856 26.072L42.673 16.5088H44.7788L47.1511 24.2689H47.1927L49.5649 16.5088H51.6125L48.075 26.5523ZM26.2075 14.6215H28.5298C30.2778 14.6215 31.2766 15.5651 31.2766 17.225C31.2766 18.8849 30.2778 19.837 28.5215 19.837H26.2075V14.6215Z" fill="black"/>
</svg>
