<svg width="41" height="40" viewBox="0 0 41 40" fill="none" xmlns="http://www.w3.org/2000/svg">
<path d="M38.3594 20.021C38.3594 29.4395 30.5281 37.0835 20.8594 37.0835C11.1906 37.0835 3.35938 29.4395 3.35938 20.021C3.35938 10.594 11.1906 2.9585 20.8594 2.9585C30.5281 2.9585 38.3594 10.594 38.3594 20.021Z" fill="#283544"/>
<path d="M29.062 15.7034C28.9665 15.7578 26.6932 16.904 26.6932 19.4456C26.8004 22.344 29.562 23.3605 29.6094 23.3605C29.562 23.4148 29.1924 24.7452 28.0977 26.1398C27.2289 27.3411 26.2646 28.5522 24.8004 28.5522C23.4075 28.5522 22.9075 27.7516 21.3003 27.7516C19.5744 27.7516 19.0861 28.5522 17.7646 28.5522C16.3003 28.5522 15.2646 27.2762 14.3485 26.0862C13.1582 24.5287 12.1466 22.0845 12.1109 19.7376C12.0868 18.494 12.3492 17.2715 13.0154 16.2332C13.9556 14.7836 15.6342 13.7996 17.4673 13.7671C18.8718 13.7241 20.1218 14.6432 20.9789 14.6432C21.8003 14.6432 23.3361 13.7671 25.0736 13.7671C25.8236 13.7678 27.8237 13.9731 29.062 15.7034ZM20.8601 13.5188C20.6101 12.3831 21.3003 11.2474 21.9432 10.523C22.7646 9.6469 24.062 9.05225 25.1808 9.05225C25.2522 10.1879 24.7996 11.3018 23.9906 12.113C23.2646 12.9891 22.0146 13.6486 20.8601 13.5188Z" fill="white"/>
</svg>
