<svg width="25" height="25" viewBox="0 0 25 25" fill="none" xmlns="http://www.w3.org/2000/svg">
<path fill-rule="evenodd" clip-rule="evenodd" d="M11.1443 9.29006C11.0305 9.22175 10.9006 9.18486 10.7679 9.18317C10.6352 9.18147 10.5044 9.21503 10.3889 9.28041C10.2733 9.34579 10.1773 9.44065 10.1104 9.55532C10.0435 9.66998 10.0083 9.80033 10.0083 9.93306V15.9331C10.0083 16.0658 10.0435 16.1961 10.1104 16.3108C10.1773 16.4255 10.2733 16.5203 10.3889 16.5857C10.5044 16.6511 10.6352 16.6847 10.7679 16.683C10.9006 16.6813 11.0305 16.6444 11.1443 16.5761L16.1443 13.5761C16.2553 13.5094 16.3472 13.4152 16.4109 13.3025C16.4747 13.1898 16.5082 13.0625 16.5082 12.9331C16.5082 12.8036 16.4747 12.6763 16.4109 12.5636C16.3472 12.451 16.2553 12.3567 16.1443 12.2901L11.1443 9.29006ZM14.3003 12.9331L11.5083 14.6081V11.2581L14.3003 12.9331Z" fill="#666666"/>
<path fill-rule="evenodd" clip-rule="evenodd" d="M17.7882 5.57387C14.44 5.31196 11.0764 5.31196 7.72819 5.57387L5.48719 5.74987C4.82502 5.80149 4.19917 6.0732 3.70933 6.52173C3.21948 6.97026 2.89381 7.56981 2.78419 8.22487C2.26334 11.3419 2.26334 14.5238 2.78419 17.6409C2.89381 18.2959 3.21948 18.8955 3.70933 19.344C4.19917 19.7925 4.82502 20.0643 5.48719 20.1159L7.72719 20.2919C11.0762 20.5539 14.4402 20.5539 17.7892 20.2919L20.0292 20.1159C20.6914 20.0643 21.3172 19.7925 21.8071 19.344C22.2969 18.8955 22.6226 18.2959 22.7322 17.6409C23.2522 14.5239 23.2522 11.3419 22.7322 8.22487C22.6226 7.56981 22.2969 6.97026 21.8071 6.52173C21.3172 6.0732 20.6914 5.80149 20.0292 5.74987L17.7882 5.57387ZM7.84519 7.06987C11.1162 6.81395 14.4022 6.81395 17.6732 7.06987L19.9132 7.24487C20.5892 7.29787 21.1422 7.80487 21.2532 8.47287C21.7465 11.4257 21.7465 14.44 21.2532 17.3929C21.199 17.7178 21.0377 18.0152 20.7948 18.2378C20.552 18.4604 20.2416 18.5952 19.9132 18.6209L17.6732 18.7959C14.4022 19.0519 11.1162 19.0519 7.84519 18.7959L5.60519 18.6209C5.27679 18.5952 4.96642 18.4604 4.72357 18.2378C4.48072 18.0152 4.31935 17.7178 4.26519 17.3929C3.77187 14.44 3.77187 11.4257 4.26519 8.47287C4.31935 8.14795 4.48072 7.85051 4.72357 7.62795C4.96642 7.4054 5.27679 7.27054 5.60519 7.24487L7.84519 7.06987Z" fill="#666666"/>
</svg>
