<svg width="28" height="34" viewBox="0 0 28 34" fill="none" xmlns="http://www.w3.org/2000/svg">
<path fill-rule="evenodd" clip-rule="evenodd" d="M0.621338 11.3167L12.3362 18.7648C12.4624 18.845 12.5947 18.9029 12.7293 18.9397V33.3849L1.45685 26.0387C0.938976 25.7012 0.621338 25.0878 0.621338 24.4251V11.3167ZM27.8643 11.1187V24.4251C27.8643 25.0878 27.5467 25.7012 27.0288 26.0387L15.7563 33.3849V18.8131C15.7838 18.798 15.811 18.7819 15.838 18.7648L27.8643 11.1187Z" fill="#FEC53D"/>
<path opacity="0.499209" fill-rule="evenodd" clip-rule="evenodd" d="M0.989502 7.70142C1.1326 7.50244 1.3132 7.33426 1.52377 7.21076L13.4426 0.2201C13.9429 -0.0733665 14.5431 -0.0733665 15.0434 0.2201L26.9622 7.21076C27.1245 7.30596 27.269 7.42771 27.3923 7.56966L14.3246 15.8778C14.2387 15.9325 14.1595 15.995 14.0873 16.064C14.0151 15.995 13.9358 15.9325 13.8499 15.8778L0.989502 7.70142Z" fill="#FEC53D"/>
</svg>
