<svg width="17" height="17" viewBox="0 0 17 17" fill="none" xmlns="http://www.w3.org/2000/svg">
<path d="M3.17322 5.83984H13.8399M3.17322 5.83984V11.7066C3.17322 12.4534 3.17322 12.8266 3.31854 13.1118C3.44637 13.3626 3.6502 13.5668 3.90108 13.6947C4.18602 13.8398 4.55921 13.8398 5.30449 13.8398H11.7086C12.4539 13.8398 12.8265 13.8398 13.1115 13.6947C13.3624 13.5668 13.5669 13.3626 13.6947 13.1118C13.8399 12.8268 13.8399 12.4542 13.8399 11.7089V5.83984M3.17322 5.83984V5.30664C3.17322 4.5599 3.17322 4.18626 3.31854 3.90104C3.44637 3.65016 3.6502 3.44633 3.90108 3.3185C4.1863 3.17318 4.55994 3.17318 5.30668 3.17318H5.83988M13.8399 5.83984V5.30445C13.8399 4.55917 13.8399 4.18598 13.6947 3.90104C13.5669 3.65016 13.3624 3.44633 13.1115 3.3185C12.8263 3.17318 12.4534 3.17318 11.7067 3.17318H11.1732M11.1732 1.83984V3.17318M11.1732 3.17318H5.83988M5.83988 1.83984V3.17318" stroke="#6D8493" stroke-linecap="round" stroke-linejoin="round"/>
</svg>
