<svg width="33" height="34" viewBox="0 0 33 34" fill="none" xmlns="http://www.w3.org/2000/svg">
<path d="M25.3333 25.3333C23.4924 25.3333 22 26.8257 22 28.6667C22 30.5076 23.4924 32 25.3333 32C27.1743 32 28.6667 30.5076 28.6667 28.6667C28.6667 26.8257 27.1743 25.3333 25.3333 25.3333ZM25.3333 25.3333H12.4899C11.7215 25.3333 11.3366 25.3333 11.0202 25.1966C10.7411 25.076 10.499 24.8819 10.3226 24.6342C10.1248 24.3567 10.0453 23.9855 9.88791 23.2509L5.78581 4.10775C5.62473 3.35606 5.54311 2.98063 5.3431 2.69987C5.16669 2.45225 4.92461 2.25735 4.64553 2.13675C4.32909 2 3.94631 2 3.17756 2H2M7 7H28.4554C29.6583 7 30.2592 7 30.663 7.2506C31.0166 7.47011 31.2755 7.81437 31.3884 8.21501C31.5173 8.67239 31.3517 9.24994 31.0183 10.4058L28.7106 18.4058C28.5113 19.0968 28.4116 19.4417 28.2093 19.6981C28.0308 19.9245 27.7953 20.1017 27.5284 20.2104C27.2269 20.3333 26.8685 20.3333 26.1535 20.3333H9.88411M10.3333 32C8.49238 32 7 30.5076 7 28.6667C7 26.8257 8.49238 25.3333 10.3333 25.3333C12.1743 25.3333 13.6667 26.8257 13.6667 28.6667C13.6667 30.5076 12.1743 32 10.3333 32Z" stroke="white" stroke-width="2.5" stroke-linecap="round" stroke-linejoin="round"/>
</svg>
