<svg width="21" height="20" viewBox="0 0 21 20" fill="none" xmlns="http://www.w3.org/2000/svg">
<path d="M5.41634 16.6002L6.68631 15.5842L6.69565 15.5771C6.96041 15.3652 7.09401 15.2584 7.24307 15.1822C7.3768 15.1139 7.5194 15.0641 7.6665 15.0339C7.83231 14.9999 8.00503 14.9999 8.35173 14.9999H15.5859C16.5175 14.9999 16.9838 14.9999 17.34 14.8184C17.6536 14.6587 17.9087 14.4034 18.0685 14.0898C18.25 13.7336 18.25 13.2678 18.25 12.3362V5.99734C18.25 5.06575 18.25 4.59925 18.0685 4.24308C17.9087 3.92948 17.6531 3.6747 17.3395 3.51491C16.983 3.33325 16.5169 3.33325 15.5835 3.33325H5.91683C4.98341 3.33325 4.51635 3.33325 4.15983 3.51491C3.84623 3.6747 3.59144 3.92948 3.43166 4.24308C3.25 4.5996 3.25 5.06666 3.25 6.00008V15.5592C3.25 16.4473 3.25 16.8913 3.43205 17.1193C3.59037 17.3177 3.83036 17.4331 4.08415 17.4328C4.37596 17.4325 4.72287 17.155 5.41634 16.6002Z" stroke="#00BAC2" stroke-width="1.5" stroke-linecap="round" stroke-linejoin="round"/>
</svg>
