<svg width="336" height="365" viewBox="0 0 336 365" fill="none" xmlns="http://www.w3.org/2000/svg">
<path d="M282.681 197.664L223.953 175.459C222.988 175.094 222.104 174.542 221.353 173.836C220.601 173.129 219.996 172.282 219.573 171.341C219.149 170.401 218.915 169.386 218.883 168.355C218.852 167.324 219.024 166.297 219.39 165.333L250.123 84.0512C250.86 82.1025 252.341 80.5264 254.24 79.6693C256.139 78.8122 258.3 78.7444 260.249 79.4808L297.498 93.5633L315.085 134.18L292.807 193.126C292.064 195.069 290.58 196.638 288.682 197.488C286.784 198.339 284.626 198.402 282.681 197.664Z" fill="#F5F5F5"/>
<path d="M297.498 93.5635L288.842 116.44C288.502 117.337 288.342 118.293 288.372 119.252C288.401 120.212 288.619 121.156 289.014 122.031C289.408 122.906 289.971 123.695 290.67 124.352C291.37 125.01 292.192 125.523 293.089 125.863L315.085 134.18L297.498 93.5635Z" fill="#EBEBEB"/>
<path d="M288.382 118.563C288.382 118.563 286 124.006 291.612 128.253C291.824 128.412 292.045 128.557 292.274 128.689C294.955 130.304 312.59 140.802 312.752 140.374L315.078 134.221L293.082 125.904C293.082 125.904 287.671 123.602 288.382 118.563Z" fill="#E0E0E0"/>
<path d="M284.272 113.645C284.159 113.944 277.99 111.877 270.488 109.042C262.987 106.208 256.995 103.664 257.108 103.39C257.221 103.115 263.39 105.158 270.892 107.993C278.393 110.827 284.385 113.33 284.272 113.645Z" fill="#E0E0E0"/>
<path d="M296.925 133.22C296.812 133.51 286.719 129.99 274.372 125.298C262.026 120.607 252.102 116.602 252.215 116.303C252.328 116.004 262.421 119.533 274.776 124.232C287.131 128.932 297.014 132.921 296.925 133.22Z" fill="#E0E0E0"/>
<path d="M296.869 145.541C296.756 145.832 285.758 141.948 272.297 136.852C258.836 131.757 248.016 127.397 248.129 127.106C248.242 126.815 259.24 130.699 272.701 135.795C286.161 140.89 297.014 145.242 296.869 145.541Z" fill="#E0E0E0"/>
<path d="M293.016 155.731C292.903 156.022 281.905 152.138 268.444 147.043C254.984 141.948 244.163 137.555 244.276 137.296C244.389 137.038 255.387 140.89 268.848 145.977C282.309 151.064 293.129 155.433 293.016 155.731Z" fill="#E0E0E0"/>
<path d="M289.165 165.923C289.052 166.214 278.046 162.33 264.593 157.234C251.14 152.139 240.312 147.779 240.417 147.488C240.522 147.197 251.528 151.081 264.997 156.168C278.465 161.256 289.27 165.624 289.165 165.923Z" fill="#E0E0E0"/>
<path d="M285.305 176.113C285.2 176.404 274.194 172.512 260.741 167.425C247.289 162.338 236.452 157.969 236.565 157.678C236.678 157.388 247.676 161.272 261.137 166.359C274.598 171.446 285.418 175.815 285.305 176.113Z" fill="#E0E0E0"/>
<path d="M86.8787 113.28L9.45637 140.392C6.77945 141.33 5.36932 144.26 6.30677 146.937L45.152 257.861C46.0894 260.538 49.0194 261.948 51.6964 261.011L129.119 233.898C131.796 232.961 133.206 230.031 132.268 227.354L93.4231 116.429C92.4856 113.752 89.5556 112.342 86.8787 113.28Z" fill="#EBEBEB"/>
<path d="M87.8716 120.175L12.9795 146.401L51.4804 256.343L126.373 230.116L87.8716 120.175Z" fill="#E0E0E0"/>
<path d="M86.5308 119.657L11.6387 145.884L49.4057 253.729L124.298 227.503L86.5308 119.657Z" fill="#FAFAFA"/>
<path d="M124.285 227.502L86.4218 119.694L86.5591 119.759L11.681 145.994L11.7536 145.849C25.8685 186.352 39.0063 223.763 49.4955 253.696L49.3744 253.64L124.293 227.502L49.4309 253.834H49.3421V253.745C38.8448 223.811 25.7474 186.4 11.5518 145.905V145.792H11.6567L86.543 119.581H86.6479V119.678L124.285 227.502Z" fill="#E0E0E0"/>
<path d="M97.7266 236.804C97.7266 236.804 114.401 222.738 117.292 208.09C115.619 210.412 113.493 212.371 111.042 213.849C108.591 215.327 105.866 216.293 103.032 216.69C103.032 216.69 102.701 232.032 97.7266 236.804Z" fill="#E0E0E0"/>
<path d="M37.233 169.914L33.2929 171.294C31.8534 171.798 31.0952 173.374 31.5993 174.813L32.9791 178.754C33.4832 180.193 35.0587 180.951 36.4982 180.447L40.4383 179.067C41.8778 178.563 42.6361 176.988 42.132 175.548L40.7522 171.608C40.2481 170.169 38.6725 169.41 37.233 169.914Z" fill="#EBEBEB"/>
<path d="M36.753 176.702C36.7256 176.716 36.6951 176.723 36.6642 176.723C36.6333 176.723 36.6029 176.716 36.5754 176.702L34.7666 175.652C34.7228 175.619 34.6927 175.57 34.682 175.516C34.6713 175.462 34.6808 175.406 34.7085 175.359C34.7363 175.311 34.7805 175.275 34.8329 175.258C34.8852 175.24 34.942 175.243 34.9927 175.265L36.6077 176.185L38.5134 172.148C38.5411 172.094 38.588 172.052 38.6448 172.032C38.7016 172.011 38.7642 172.012 38.8202 172.035C38.8475 172.048 38.872 172.066 38.8922 172.088C38.9123 172.111 38.9277 172.137 38.9375 172.166C38.9473 172.194 38.9513 172.225 38.9491 172.255C38.947 172.285 38.9389 172.314 38.9252 172.341L36.9145 176.637C36.8938 176.659 36.8686 176.676 36.8408 176.687C36.8129 176.698 36.783 176.703 36.753 176.702Z" fill="white"/>
<path d="M88.4646 153.22C88.4646 153.285 78.7748 156.749 66.7513 160.956C54.7279 165.163 44.9492 168.522 44.9492 168.466C44.9492 168.409 54.639 164.937 66.6706 160.73C78.7021 156.523 88.4485 153.164 88.4646 153.22Z" fill="#E0E0E0"/>
<path d="M65.6284 168.74C65.6284 168.74 65.3781 168.853 64.9259 169.031L62.9718 169.758C61.3568 170.355 59.0313 171.171 56.5119 172.059C53.9925 172.947 51.667 173.739 50.052 174.296L48.0737 174.95C47.8342 175.038 47.5886 175.108 47.3389 175.16C47.5647 175.042 47.7996 174.942 48.0414 174.861L49.9955 174.142C51.6105 173.537 53.936 172.721 56.4554 171.833C58.9747 170.945 61.3003 170.161 62.9153 169.596L64.8936 168.942C65.1323 168.854 65.3781 168.786 65.6284 168.74Z" fill="#E0E0E0"/>
<path d="M89.4893 156.192C89.4893 156.249 79.7995 159.713 67.7679 163.92C55.7364 168.127 45.9658 171.494 45.9658 171.43C45.9658 171.365 55.6557 167.909 67.6953 163.702C79.7349 159.495 89.4893 156.128 89.4893 156.192Z" fill="#E0E0E0"/>
<path d="M42.858 185.982L38.9179 187.362C37.4784 187.866 36.7202 189.441 37.2243 190.881L38.6041 194.821C39.1082 196.26 40.6837 197.019 42.1232 196.515L46.0633 195.135C47.5028 194.631 48.2611 193.055 47.757 191.616L46.3772 187.676C45.8731 186.236 44.2975 185.478 42.858 185.982Z" fill="#EBEBEB"/>
<path d="M42.3814 192.771C42.3526 192.785 42.3208 192.793 42.2886 192.793C42.2564 192.793 42.2246 192.785 42.1957 192.771L40.395 191.721C40.3689 191.707 40.346 191.688 40.3277 191.664C40.3093 191.641 40.296 191.614 40.2884 191.585C40.2809 191.557 40.2793 191.527 40.2837 191.497C40.2881 191.468 40.2985 191.44 40.3143 191.414C40.3285 191.388 40.3479 191.365 40.3713 191.347C40.3946 191.329 40.4215 191.315 40.4503 191.308C40.479 191.3 40.509 191.299 40.5384 191.303C40.5677 191.308 40.5959 191.318 40.6211 191.334L42.2361 192.254L44.1418 188.176C44.168 188.123 44.2134 188.082 44.2689 188.061C44.3243 188.04 44.3857 188.041 44.4405 188.063C44.4951 188.088 44.5377 188.133 44.5588 188.189C44.58 188.245 44.5781 188.308 44.5536 188.362L42.5429 192.666C42.525 192.694 42.5013 192.718 42.4735 192.736C42.4456 192.754 42.4143 192.766 42.3814 192.771Z" fill="white"/>
<path d="M94.0928 169.29C94.0928 169.354 84.403 172.81 72.3714 177.025C60.3399 181.241 50.5693 184.592 50.5693 184.535C50.5693 184.479 60.2592 181.006 72.2907 176.799C84.3222 172.592 94.0767 169.233 94.0928 169.29Z" fill="#E0E0E0"/>
<path d="M71.2563 184.81C71.2563 184.81 71.006 184.923 70.5458 185.1L68.5997 185.827C66.9847 186.425 64.6592 187.24 62.1398 188.128C59.6205 189.017 57.2949 189.808 55.6799 190.365L53.7016 191.019C53.4621 191.107 53.2165 191.177 52.9668 191.229C53.1916 191.109 53.4267 191.009 53.6693 190.93L55.6234 190.212C57.2384 189.606 59.564 188.79 62.0833 187.902C64.6027 187.014 66.9282 186.231 68.5432 185.666L70.5215 185.011C70.7602 184.923 71.0061 184.856 71.2563 184.81Z" fill="#E0E0E0"/>
<path d="M95.1426 172.277C95.1426 172.333 85.4528 175.797 73.4213 180.004C61.3897 184.211 51.6191 187.579 51.6191 187.514C51.6191 187.449 61.309 183.993 73.3405 179.786C85.372 175.579 95.1426 172.196 95.1426 172.277Z" fill="#E0E0E0"/>
<path d="M48.4898 202.049L44.5498 203.429C43.1103 203.933 42.352 205.509 42.8561 206.948L44.2359 210.888C44.74 212.328 46.3156 213.086 47.755 212.582L51.6951 211.202C53.1346 210.698 53.8929 209.122 53.3888 207.683L52.009 203.743C51.5049 202.303 49.9293 201.545 48.4898 202.049Z" fill="#EBEBEB"/>
<path d="M48.0096 208.84C47.9807 208.854 47.949 208.861 47.9168 208.861C47.8846 208.861 47.8528 208.854 47.8239 208.84L46.0151 207.806C45.9857 207.794 45.9592 207.775 45.9375 207.751C45.9158 207.728 45.8994 207.7 45.8894 207.669C45.8793 207.639 45.8758 207.607 45.8792 207.575C45.8825 207.543 45.8926 207.512 45.9087 207.484C45.9249 207.457 45.9467 207.433 45.9728 207.414C45.9989 207.396 46.0287 207.383 46.0601 207.377C46.0916 207.37 46.124 207.371 46.1552 207.378C46.1864 207.385 46.2158 207.399 46.2412 207.419L47.8562 208.339L49.7619 204.261C49.7732 204.233 49.7901 204.207 49.8117 204.186C49.8332 204.164 49.8589 204.147 49.8872 204.136C49.9155 204.124 49.9459 204.119 49.9764 204.119C50.0069 204.12 50.037 204.127 50.0648 204.139C50.0926 204.152 50.1176 204.17 50.1383 204.192C50.1589 204.215 50.1748 204.241 50.185 204.27C50.1952 204.299 50.1994 204.329 50.1975 204.36C50.1955 204.39 50.1874 204.42 50.1737 204.447L48.1631 208.751C48.1235 208.797 48.0694 208.829 48.0096 208.84Z" fill="white"/>
<path d="M99.7207 185.358C99.7207 185.423 90.0309 188.879 77.9994 193.094C65.9678 197.309 56.1973 200.66 56.1973 200.595C56.1973 200.531 65.8871 197.075 77.9267 192.868C89.9663 188.661 99.6965 185.302 99.7207 185.358Z" fill="#E0E0E0"/>
<path d="M76.8855 200.87C76.6563 200.987 76.4188 201.087 76.1749 201.169L74.2208 201.896C72.6058 202.493 70.2884 203.309 67.7609 204.197C65.2335 205.085 62.916 205.868 61.301 206.434L59.3227 207.088C59.0828 207.174 58.8373 207.245 58.5879 207.298C58.8127 207.177 59.0478 207.077 59.2904 206.999L61.2445 206.272C62.8595 205.675 65.185 204.859 67.7044 203.971C70.2238 203.083 72.5493 202.299 74.1643 201.734L76.1346 201.08C76.3807 200.996 76.6314 200.926 76.8855 200.87Z" fill="#E0E0E0"/>
<path d="M100.795 188.33C100.795 188.387 91.1051 191.851 79.0736 196.058C67.0421 200.265 57.2715 203.632 57.2715 203.567C57.2715 203.503 66.9613 200.047 78.9928 195.832C91.0244 191.616 100.738 188.265 100.795 188.33Z" fill="#E0E0E0"/>
<path d="M54.1148 218.117L50.1748 219.496C48.7353 220.001 47.977 221.576 48.4811 223.016L49.8609 226.956C50.365 228.395 51.9406 229.153 53.38 228.649L57.3201 227.27C58.7596 226.765 59.5179 225.19 59.0138 223.75L57.634 219.81C57.1299 218.371 55.5543 217.613 54.1148 218.117Z" fill="#EBEBEB"/>
<path d="M53.629 224.909C53.6009 224.921 53.5707 224.927 53.5401 224.927C53.5096 224.927 53.4794 224.921 53.4513 224.909L51.6425 223.859C51.5911 223.828 51.5542 223.778 51.5398 223.72C51.5254 223.661 51.5348 223.6 51.5658 223.548C51.5969 223.497 51.6471 223.46 51.7054 223.446C51.7637 223.431 51.8253 223.44 51.8767 223.472L53.4917 224.392L55.3973 220.355C55.422 220.3 55.4673 220.258 55.5233 220.236C55.5794 220.215 55.6415 220.217 55.6961 220.242C55.7493 220.268 55.7905 220.313 55.8115 220.369C55.8325 220.424 55.8316 220.485 55.8092 220.54L53.7905 224.844C53.7469 224.886 53.6891 224.909 53.629 224.909Z" fill="white"/>
<path d="M105.349 201.427C105.349 201.492 95.6588 204.948 83.6273 209.155C71.5958 213.362 61.8252 216.729 61.8252 216.664C61.8252 216.6 71.515 213.144 83.5466 208.937C95.5781 204.73 105.324 201.346 105.349 201.427Z" fill="#E0E0E0"/>
<path d="M82.5054 216.939C82.2805 217.06 82.0454 217.16 81.8029 217.238L79.8487 217.965C78.2338 218.562 75.9082 219.378 73.3889 220.266C70.8695 221.155 68.5439 221.938 66.929 222.503L64.9506 223.157C64.4823 223.302 64.2158 223.375 64.2158 223.367C64.4407 223.247 64.6758 223.147 64.9183 223.068L66.8724 222.342C68.4874 221.744 70.813 220.928 73.3323 220.04C75.8517 219.152 78.1773 218.369 79.7922 217.803L81.7706 217.149C82.0104 217.063 82.2559 216.993 82.5054 216.939Z" fill="#E0E0E0"/>
<path d="M106.391 204.399C106.391 204.456 96.7008 207.92 84.6693 212.127C72.6378 216.334 62.8672 219.693 62.8672 219.637C62.8672 219.58 72.557 216.116 84.5885 211.901C96.6201 207.686 106.366 204.335 106.391 204.399Z" fill="#E0E0E0"/>
<path d="M20.1191 135.375L22.0894 141.028C22.6405 142.601 23.7937 143.892 25.2957 144.616C26.7977 145.339 28.5256 145.437 30.0997 144.888L71.5237 130.353C72.3025 130.081 73.02 129.658 73.6352 129.109C74.2504 128.559 74.7512 127.894 75.1089 127.15C75.4667 126.407 75.6744 125.601 75.7201 124.777C75.7658 123.953 75.6487 123.129 75.3754 122.351L73.4051 116.698L20.1191 135.375Z" fill="#E0E0E0"/>
<path d="M47.315 127.721C46.2145 128.108 45.024 128.16 43.894 127.87C42.764 127.58 41.7455 126.962 40.9673 126.093C40.189 125.224 39.6862 124.143 39.5223 122.988C39.3585 121.833 39.541 120.656 40.0468 119.604C40.5526 118.553 41.3589 117.676 42.3636 117.083C43.3684 116.49 44.5264 116.209 45.6911 116.275C46.8558 116.341 47.9748 116.751 48.9064 117.453C49.838 118.155 50.5403 119.118 50.9244 120.219C51.4383 121.693 51.3469 123.31 50.6703 124.716C49.9936 126.122 48.787 127.203 47.315 127.721ZM44.1658 118.733C43.4871 118.97 42.8939 119.403 42.4613 119.978C42.0288 120.552 41.7762 121.241 41.7356 121.959C41.695 122.677 41.8682 123.39 42.2333 124.01C42.5984 124.629 43.139 125.126 43.7866 125.438C44.4343 125.75 45.1599 125.863 45.8717 125.762C46.5835 125.661 47.2495 125.352 47.7854 124.873C48.3213 124.394 48.7031 123.766 48.8824 123.07C49.0617 122.374 49.0304 121.641 48.7927 120.962C48.4741 120.053 47.8079 119.308 46.9404 118.89C46.0728 118.472 45.0749 118.416 44.1658 118.733Z" fill="#E0E0E0"/>
<path d="M80.4218 142.4C80.4218 142.505 69.5368 146.438 56.0276 151.161C42.5184 155.885 31.5366 159.64 31.4962 159.535C31.4558 159.43 42.3811 155.498 55.8903 150.774C69.3996 146.05 80.3814 142.263 80.4218 142.4Z" fill="#E0E0E0"/>
<path d="M66.4279 144.379C66.4279 144.484 61.6637 146.268 55.6964 148.36C49.7291 150.451 44.86 152.09 44.8196 151.945C44.7792 151.8 49.5918 150.056 55.5591 147.964C61.5265 145.873 66.3956 144.274 66.4279 144.379Z" fill="#E0E0E0"/>
<path d="M281.671 308C284.644 306.604 287.987 306.2 291.207 306.845C292.935 307.128 294.744 307.653 295.915 308.945C297.086 310.237 297.32 312.53 295.964 313.644C295.088 314.24 294.029 314.506 292.976 314.395C290.448 314.395 287.654 313.919 285.644 315.437C284.489 316.301 283.73 317.738 282.357 318.166C281.667 318.327 280.942 318.256 280.295 317.965C279.649 317.673 279.116 317.176 278.78 316.551C278.128 315.288 277.983 313.824 278.376 312.457C278.546 311.511 278.931 310.617 279.503 309.844C280.074 309.071 280.816 308.44 281.671 308Z" fill="#442D87"/>
<path d="M274.985 295.177C276.761 297.705 280.209 296.873 281.808 295.323C283.407 293.772 284.077 291.536 284.691 289.404C286.096 284.518 287.517 279.399 286.476 274.425C286.216 272.93 285.555 271.534 284.562 270.388C284.055 269.818 283.409 269.392 282.686 269.151C281.963 268.91 281.19 268.863 280.444 269.015C278.699 269.475 277.625 271.179 276.842 272.794C274.539 277.582 273.334 282.823 273.313 288.136C273.313 290.607 273.596 293.191 274.985 295.234" fill="#442D87"/>
<path d="M270.116 298.811C271.028 297.62 271.636 296.225 271.886 294.746C272.137 293.267 272.022 291.749 271.553 290.324C270.577 287.487 268.839 284.973 266.53 283.057C263.905 280.721 260.85 278.919 257.535 277.752C256.254 277.234 254.877 277 253.497 277.065C252.808 277.104 252.138 277.312 251.547 277.669C250.956 278.027 250.461 278.524 250.106 279.116C249.153 280.925 250.106 283.113 251.043 284.898C252.771 288.049 254.748 291.056 256.954 293.893C258.722 296.179 260.749 298.431 263.454 299.465C266.159 300.499 268.953 300.369 270.382 298.504" fill="#442D87"/>
<path d="M274.872 333.38C274.961 333.004 275.012 332.619 275.025 332.233C275.114 331.426 275.211 330.344 275.332 329.092C275.487 327.544 275.725 326.005 276.043 324.481C276.453 322.628 277.012 320.811 277.714 319.047C278.404 317.285 279.339 315.63 280.492 314.129C281.431 312.906 282.631 311.908 284.005 311.206C284.935 310.744 285.932 310.434 286.96 310.286C287.347 310.272 287.731 310.218 288.107 310.124C287.718 310.082 287.325 310.082 286.936 310.124C285.871 310.21 284.829 310.484 283.859 310.932C282.413 311.612 281.144 312.618 280.153 313.871C278.953 315.395 277.984 317.087 277.278 318.894C276.562 320.682 276.005 322.53 275.615 324.417C275.318 325.959 275.113 327.517 275.001 329.084C274.896 330.416 274.864 331.506 274.848 332.241C274.811 332.62 274.819 333.003 274.872 333.38Z" fill="#263238"/>
<path d="M275.082 330.965C275.106 330.788 275.106 330.609 275.082 330.432V328.93C275.082 327.606 275.082 325.7 275.146 323.278C275.268 318.538 275.671 313.442 276.463 306.256C277.206 299.497 278.207 291.632 279.265 286.521C279.491 285.358 279.717 284.308 279.935 283.396C280.153 282.483 280.314 281.684 280.484 281.046C280.653 280.408 280.742 279.948 280.839 279.56C280.883 279.385 280.916 279.207 280.936 279.027C280.855 279.186 280.793 279.354 280.75 279.528C280.629 279.916 280.484 280.4 280.306 280.998C280.129 281.595 279.903 282.419 279.676 283.331C279.45 284.244 279.184 285.285 278.934 286.448C277.639 292.502 276.666 298.621 276.019 304.778C275.211 311.981 274.872 318.505 274.848 323.286C274.848 325.66 274.848 327.581 274.928 328.938C274.928 329.56 274.993 330.068 275.017 330.464C275.024 330.633 275.046 330.8 275.082 330.965Z" fill="#263238"/>
<path d="M275.114 318.32C275.159 317.782 275.159 317.242 275.114 316.705C275.022 315.257 274.858 313.815 274.621 312.385C274.275 310.26 273.806 308.157 273.216 306.086C272.533 303.537 271.653 301.046 270.584 298.633C268.757 294.186 266.138 290.107 262.856 286.594C262.284 285.993 261.675 285.429 261.031 284.906C260.757 284.664 260.506 284.429 260.224 284.244L259.521 283.759C259.098 283.435 258.647 283.148 258.173 282.903C259.723 284.115 261.193 285.426 262.574 286.828C265.757 290.365 268.308 294.424 270.116 298.827C271.163 301.225 272.047 303.691 272.764 306.207C273.372 308.257 273.87 310.338 274.258 312.441C274.589 314.242 274.783 315.671 274.896 316.721C274.929 317.258 275.002 317.793 275.114 318.32Z" fill="#263238"/>
<path d="M262.889 340.631L264.156 357.992H286.467L287.727 340.631H262.889Z" fill="#263238"/>
<path d="M290.4 333.783H260.741V340.631H290.4V333.783Z" fill="#263238"/>
<path d="M260.741 357.329V359.219H262.13H289.9V357.329H260.741Z" fill="#455A64"/>
<path d="M263.495 362.562L262.13 359.219H288.842L287.243 362.562H263.495Z" fill="#455A64"/>
<path d="M287.323 346.299C287.323 346.299 287.323 346.364 287.218 346.461L286.887 346.905L285.587 348.568L285.53 348.641L285.474 348.56L282.284 344.151H282.478L279.329 348.601L279.232 348.738L279.119 348.609L275.396 344.168H275.606L275.405 344.426L272.07 348.601L271.965 348.746L271.86 348.601C270.729 346.986 269.671 345.5 268.71 344.151H268.896L265.028 348.56L264.956 348.641L264.899 348.552C264.39 347.696 263.987 347.01 263.688 346.517L263.381 345.976C263.34 345.916 263.308 345.851 263.284 345.783C263.284 345.783 263.333 345.831 263.413 345.952L263.761 346.477L265.028 348.472H264.907L268.719 344.006L268.815 343.893L268.904 344.014L272.078 348.447H271.86L275.211 344.273L275.421 344.014L275.526 343.877L275.631 344.006L279.353 348.455H279.143L282.317 344.022L282.405 343.893L282.502 344.022C283.754 345.823 284.828 347.349 285.627 348.488H285.506L286.863 346.873L287.226 346.453L287.323 346.299Z" fill="#E0E0E0"/>
<path d="M288.042 340.509C288.042 340.59 282.454 340.655 275.558 340.655C268.662 340.655 263.074 340.59 263.074 340.509C263.074 340.429 268.662 340.372 275.558 340.372C282.454 340.372 288.042 340.437 288.042 340.509Z" fill="#455A64"/>
<path d="M289.173 359.413C289.173 359.486 283.092 359.55 275.607 359.55C268.121 359.55 262.041 359.486 262.041 359.413C262.041 359.34 268.113 359.268 275.607 359.268C283.1 359.268 289.173 359.332 289.173 359.413Z" fill="#263238"/>
<path d="M69.1407 304.019C69.0761 304.092 68.5674 303.785 68.0021 303.333C67.4369 302.881 67.0251 302.453 67.0897 302.372C67.1543 302.291 67.6549 302.606 68.2202 303.058C68.7854 303.511 69.1972 303.939 69.1407 304.019Z" fill="#263238"/>
<path d="M84.6448 280.892C84.8647 278.738 84.6868 276.562 84.1199 274.473C83.4417 272.413 81.859 270.532 79.7434 270.088C77.3209 269.587 74.85 271.113 73.4934 273.181C72.1369 275.248 71.6766 277.751 71.2728 280.182C68.5179 296.976 67.5032 314.01 68.2448 331.013L78.1284 332.402C82.4323 314.661 83.8373 299.149 84.6448 280.892Z" fill="#455A64"/>
<path d="M78.3297 269.983L78.2813 270.145L78.1198 270.589L77.4576 272.301C77.3204 272.672 77.1347 273.108 76.9893 273.536L76.5129 275.03L75.9557 276.75L75.447 278.712C74.6173 281.953 73.9783 285.24 73.5333 288.556C73.0003 292.27 72.6531 296.388 72.3705 300.716C71.8698 309.381 71.7891 317.246 71.563 322.93C71.458 325.781 71.3611 328.082 71.2562 329.665C71.1996 330.472 71.1593 331.045 71.127 331.498C71.127 331.683 71.127 331.845 71.127 331.966C71.127 332.087 71.127 332.127 71.127 332.127C71.127 332.127 71.127 332.079 71.127 331.966C71.127 331.853 71.127 331.683 71.127 331.49C71.127 331.045 71.127 330.432 71.1835 329.657C71.2481 328.042 71.3046 325.773 71.3773 322.922C71.5388 317.27 71.5791 309.373 72.0879 300.7C72.3624 296.364 72.7258 292.238 73.2749 288.507C73.738 285.202 74.4041 281.928 75.2694 278.704L75.8023 276.742C76.0122 276.139 76.206 275.566 76.3837 275.022L76.9005 273.528C77.0539 273.076 77.2477 272.672 77.393 272.301L78.1198 270.621C78.1951 270.444 78.2598 270.298 78.3136 270.185C78.3077 270.118 78.3132 270.049 78.3297 269.983Z" fill="#263238"/>
<path d="M79.2429 270.024C79.758 270.633 80.1675 271.323 80.4542 272.067C81.2099 274.11 81.5156 276.291 81.3505 278.463C81.0921 283.929 80.5995 291.455 79.9535 299.772C79.3075 308.089 78.5727 315.599 77.9913 321.033C77.6925 323.746 77.4422 325.943 77.2565 327.493C77.1596 328.228 77.0869 328.809 77.0304 329.237L76.9658 329.69C76.9696 329.741 76.9696 329.792 76.9658 329.843C76.9658 329.843 76.9658 329.795 76.9658 329.69C76.9658 329.585 76.9658 329.415 76.9658 329.229C76.9658 328.801 77.0546 328.22 77.1192 327.477C77.2727 325.927 77.4826 323.738 77.741 321.017C78.2578 315.575 78.9442 308.097 79.5982 299.748C80.2523 291.399 80.7771 283.913 81.1001 278.463C81.276 276.317 81.0009 274.157 80.2927 272.124C80.0055 271.394 79.6542 270.692 79.2429 270.024Z" fill="#263238"/>
<path d="M86.0983 295.613C85.4497 295.566 84.815 295.402 84.2249 295.129C83.5976 294.965 83.0043 294.692 82.4727 294.321C83.122 294.364 83.7576 294.528 84.346 294.806C84.974 294.967 85.5676 295.241 86.0983 295.613Z" fill="#263238"/>
<path d="M87.2926 285.536C86.757 285.964 86.1539 286.3 85.508 286.529C84.9079 286.862 84.2551 287.088 83.5781 287.2C84.7104 286.434 85.9673 285.871 87.2926 285.536Z" fill="#263238"/>
<path d="M86.6711 277.307C85.6951 277.484 84.6906 277.414 83.748 277.106C84.2258 276.969 84.7287 276.944 85.2177 277.033C85.7169 277.011 86.2144 277.105 86.6711 277.307Z" fill="#263238"/>
<path d="M76.4651 272.043C76.3843 272.091 75.9483 271.55 75.5042 270.839C75.181 270.429 74.9522 269.952 74.834 269.443C74.9147 269.394 75.3508 269.927 75.803 270.646C76.2552 271.364 76.5701 271.986 76.4651 272.043Z" fill="#263238"/>
<path d="M73.0969 277.017C72.6473 277.178 72.1651 277.228 71.6919 277.162C71.2161 277.208 70.7363 277.136 70.2949 276.952C70.7446 276.79 71.2268 276.741 71.7 276.807C72.1758 276.761 72.6555 276.833 73.0969 277.017Z" fill="#263238"/>
<path d="M70.6748 286.94C70.158 286.92 69.6527 286.782 69.1971 286.537C68.6986 286.395 68.238 286.144 67.8486 285.802C68.3655 285.822 68.8708 285.961 69.3263 286.206C69.8248 286.347 70.2855 286.598 70.6748 286.94Z" fill="#263238"/>
<path d="M70.417 295.331C70.417 295.428 69.876 295.63 69.1573 295.775C68.4386 295.92 67.8492 295.977 67.825 295.88C67.8007 295.783 68.3741 295.581 69.0846 295.436C69.5132 295.291 69.971 295.255 70.417 295.331Z" fill="#263238"/>
<path d="M69.3018 309.025C69.3018 309.122 68.7204 309.308 67.9614 309.445C67.5079 309.58 67.0284 309.602 66.5645 309.51C66.9718 309.267 67.4315 309.126 67.9049 309.098C68.3573 308.958 68.8374 308.933 69.3018 309.025Z" fill="#263238"/>
<path d="M68.495 316.584C68.5435 316.665 68.0428 317.02 67.3807 317.391C66.7185 317.763 66.1452 317.957 66.1049 317.868C66.0645 317.779 66.557 317.432 67.2192 317.06C67.8813 316.689 68.495 316.495 68.495 316.584Z" fill="#263238"/>
<path d="M74.6878 325.159C74.607 325.208 74.171 324.61 73.7188 323.819C73.3917 323.366 73.1659 322.848 73.0566 322.301C73.1374 322.252 73.5734 322.85 74.0256 323.641C74.3527 324.094 74.5785 324.611 74.6878 325.159Z" fill="#263238"/>
<path d="M76.4733 310.908C76.5379 310.972 76.0534 311.562 75.3912 312.216C74.7291 312.87 74.1315 313.338 74.0589 313.266C73.9862 313.193 74.4788 312.612 75.1409 311.958C75.803 311.304 76.4006 310.835 76.4733 310.908Z" fill="#263238"/>
<path d="M76.0766 303.421C76.0039 303.494 75.5598 303.122 75.0753 302.613C74.5908 302.105 74.2678 301.612 74.3324 301.547C74.397 301.483 74.8492 301.846 75.3337 302.355C75.8182 302.864 76.1493 303.356 76.0766 303.421Z" fill="#263238"/>
<path d="M77.3041 293.869C77.3768 293.934 76.9731 294.507 76.3997 295.137C75.8264 295.767 75.3096 296.243 75.237 296.179C75.1643 296.114 75.568 295.541 76.1333 294.903C76.6985 294.265 77.2315 293.805 77.3041 293.869Z" fill="#263238"/>
<path d="M77.9911 286.941C77.9184 287.013 77.3613 286.569 76.7314 285.955C76.1016 285.342 75.6575 284.785 75.7221 284.712C75.7867 284.639 76.3519 285.083 76.9817 285.705C77.6116 286.327 78.0557 286.868 77.9911 286.941Z" fill="#263238"/>
<path d="M79.3472 277.558C79.2403 278.067 79.0225 278.547 78.7093 278.963C78.2813 279.689 77.8614 280.239 77.7807 280.19C77.6999 280.142 77.9745 279.512 78.4105 278.785C78.8465 278.058 79.2584 277.509 79.3472 277.558Z" fill="#263238"/>
<path d="M81.8912 268.869C81.98 268.918 81.7297 269.548 81.334 270.274C80.9383 271.001 80.5265 271.558 80.4619 271.518C80.5388 271.013 80.7293 270.533 81.0191 270.113C81.4147 269.378 81.8023 268.829 81.8912 268.869Z" fill="#263238"/>
<path d="M84.7821 272.818C84.8225 272.907 84.4268 273.181 83.8938 273.44C83.3609 273.698 82.9006 273.827 82.8603 273.739C82.8199 273.65 83.2156 273.375 83.7485 273.117C84.2814 272.858 84.7417 272.729 84.7821 272.818Z" fill="#263238"/>
<path d="M84.8468 304.02C83.5055 303.922 82.2352 303.379 81.2373 302.478C81.866 302.668 82.4745 302.919 83.0541 303.229C83.6772 303.43 84.2778 303.696 84.8468 304.02Z" fill="#263238"/>
<path d="M83.6678 310.624C83.6678 310.721 83.0945 310.915 82.3354 311.06C81.8843 311.205 81.4043 311.235 80.9385 311.149C81.3424 310.901 81.7987 310.752 82.2708 310.713C83.0299 310.568 83.6516 310.527 83.6678 310.624Z" fill="#263238"/>
<path d="M82.2221 321.954C82.1655 322.034 81.4146 321.51 80.7201 320.638C80.2577 320.14 79.9322 319.53 79.7754 318.869C80.2267 319.349 80.6347 319.868 80.9947 320.419C81.4501 320.892 81.8609 321.406 82.2221 321.954Z" fill="#263238"/>
<path d="M66.3232 327.138C66.2586 327.065 66.6623 326.613 67.2195 326.136C67.7767 325.66 68.2854 325.329 68.35 325.41C68.4146 325.49 68.0108 325.926 67.4537 326.411C66.8965 326.895 66.3878 327.21 66.3232 327.138Z" fill="#263238"/>
<path d="M61.7524 302.412C61.1064 300.401 59.9032 298.06 57.7957 298.027C57.1677 298.061 56.5605 298.264 56.0376 298.613C55.5148 298.963 55.0956 299.446 54.8241 300.014C54.2441 301.134 53.9658 302.387 54.0166 303.647C54.2769 312.597 55.802 321.465 58.5466 329.988H66.2743C66.1807 320.619 64.6558 311.32 61.7524 302.412Z" fill="#455A64"/>
<path d="M47.7914 289.759C47.4092 287.876 46.4054 286.175 44.9411 284.931C43.4768 283.686 41.6369 282.969 39.7165 282.896C36.3009 283.493 34.9766 286.852 34.5728 290.292C34.1691 293.732 35.235 297.156 36.2928 300.458C39.6735 311.053 43.0595 321.649 46.4509 332.249L56.06 331.199C53.0562 317.004 51.312 303.842 47.7914 289.759Z" fill="#455A64"/>
<path d="M57.7951 298.027C57.5454 298.371 57.3265 298.735 57.141 299.117C56.7427 300.209 56.618 301.382 56.7777 302.533C56.923 304.003 57.0926 305.763 57.3429 307.701C57.5932 309.639 57.9404 311.738 58.3765 313.983C59.2486 318.424 60.2337 322.397 60.8555 325.288C61.1704 326.733 61.4126 327.912 61.558 328.728C61.6226 329.107 61.6791 329.414 61.7195 329.673C61.7599 329.931 61.7679 330.004 61.7195 330.004C61.6775 329.902 61.6451 329.797 61.6226 329.689L61.3965 328.76C61.1865 327.896 60.912 326.742 60.589 325.345C59.9026 322.454 58.8771 318.489 58.005 314.04C57.569 311.811 57.1976 309.679 56.9957 307.725C56.8665 306.756 56.7857 305.82 56.705 304.956C56.6242 304.092 56.5435 303.276 56.5031 302.533C56.3651 301.348 56.5319 300.147 56.9876 299.045C57.1798 298.651 57.4553 298.304 57.7951 298.027Z" fill="#263238"/>
<path d="M39.8939 282.621C39.4657 283.109 39.0769 283.63 38.7311 284.18C37.8467 285.715 37.3454 287.44 37.2695 289.21C37.2294 291.834 37.6306 294.447 38.4565 296.938C39.264 299.796 40.2249 302.937 41.202 306.224C43.1157 312.813 44.8438 318.772 46.1115 323.125L47.565 328.26C47.7265 328.842 47.8476 329.302 47.9445 329.657C47.9973 329.817 48.0325 329.982 48.0495 330.15C47.9754 330 47.9159 329.843 47.8718 329.681C47.7669 329.326 47.6134 328.874 47.4358 328.292C47.0563 327.057 46.5233 325.321 45.8773 323.197L40.8629 306.321C39.8939 303.018 38.9814 299.861 38.1416 297.019C37.319 294.492 36.9393 291.842 37.0192 289.186C37.1233 287.382 37.6786 285.633 38.6342 284.099C38.9696 283.54 39.3953 283.041 39.8939 282.621Z" fill="#263238"/>
<path d="M54.0005 330.173C53.9192 330.024 53.8464 329.871 53.7825 329.713C53.6613 329.398 53.4595 328.954 53.2414 328.357C52.7812 327.178 52.1917 325.442 51.6265 323.261C51.0612 321.081 50.4152 318.416 49.8338 315.51C49.2525 312.603 48.6711 309.348 48.0251 305.957C47.3791 302.566 46.6201 299.376 45.756 296.526C45.0064 293.991 44.0699 291.516 42.9541 289.121C42.1955 287.509 41.3295 285.95 40.362 284.454C40.031 283.921 39.7322 283.525 39.5546 283.25C39.4534 283.113 39.3643 282.967 39.2881 282.814C39.4065 282.934 39.5146 283.064 39.6111 283.202C39.813 283.477 40.1279 283.848 40.4751 284.381C41.4963 285.853 42.4008 287.403 43.1802 289.016C44.3384 291.405 45.3024 293.884 46.0629 296.429C46.9749 299.542 47.7241 302.701 48.3077 305.892C48.9456 309.276 49.5432 312.506 50.0922 315.453C50.6413 318.4 51.2227 321.009 51.8041 323.197C52.3855 325.385 52.9265 327.121 53.3464 328.308C53.5402 328.914 53.7259 329.366 53.8309 329.681C53.9058 329.838 53.9626 330.003 54.0005 330.173Z" fill="#263238"/>
<path d="M36.5026 298.876C36.5026 298.965 36.002 299.174 35.3318 299.336C34.6616 299.497 34.1044 299.554 34.0883 299.457C34.0721 299.36 34.5808 299.158 35.251 298.997C35.9213 298.835 36.4784 298.779 36.5026 298.876Z" fill="#263238"/>
<path d="M35.4848 292.319C34.9599 292.466 34.4143 292.526 33.8699 292.496C33.3327 292.572 32.7865 292.556 32.2549 292.448C32.7577 292.208 33.3141 292.102 33.8699 292.141C34.4145 292.062 34.9704 292.123 35.4848 292.319Z" fill="#263238"/>
<path d="M36.5669 286.326C36.5023 286.407 35.9774 286.068 35.4041 285.576C34.8308 285.083 34.4028 284.623 34.4674 284.55C34.532 284.477 35.0488 284.808 35.6302 285.301C36.2116 285.794 36.6315 286.254 36.5669 286.326Z" fill="#263238"/>
<path d="M39.4984 280.788C39.5953 280.788 39.563 281.281 39.5549 281.838C39.5468 282.395 39.5549 282.871 39.4338 282.887C39.3127 282.904 39.1835 282.435 39.1996 281.83C39.2158 281.224 39.4257 280.764 39.4984 280.788Z" fill="#263238"/>
<path d="M45.4817 283.396C45.5624 283.453 45.3282 283.929 44.9568 284.454C44.5853 284.979 44.222 285.366 44.1493 285.31C44.0766 285.253 44.3027 284.785 44.6661 284.252C45.0295 283.719 45.4009 283.34 45.4817 283.396Z" fill="#263238"/>
<path d="M49.3659 290.17C49.3659 290.267 48.9057 290.55 48.2597 290.816C47.6137 291.083 47.0484 291.22 47.0162 291.131C46.9839 291.043 47.4764 290.752 48.1224 290.493C48.7684 290.235 49.3336 290.057 49.3659 290.17Z" fill="#263238"/>
<path d="M51.7235 297.091C51.2962 297.462 50.7672 297.695 50.2054 297.761C49.6672 297.935 49.0908 297.955 48.542 297.818C49.0601 297.612 49.6031 297.476 50.157 297.414C50.6641 297.243 51.1901 297.134 51.7235 297.091Z" fill="#263238"/>
<path d="M40.9035 295.121C40.8147 295.121 40.9035 294.612 41.0569 294.047C41.2103 293.481 41.4526 293.053 41.5414 293.086C41.6302 293.118 41.5414 293.594 41.388 294.16C41.2346 294.725 41.0408 295.153 40.9035 295.121Z" fill="#263238"/>
<path d="M42.4131 303.841C42.4457 303.332 42.5949 302.838 42.8491 302.396C43.1802 301.637 43.5193 301.055 43.6082 301.096C43.5755 301.605 43.4263 302.099 43.1721 302.541C42.8411 303.3 42.5019 303.898 42.4131 303.841Z" fill="#263238"/>
<path d="M38.6828 306.232C38.207 306.221 37.7379 306.116 37.302 305.925C36.5672 305.691 35.9697 305.481 35.9939 305.384C36.4745 305.322 36.9628 305.392 37.407 305.586C38.1579 305.82 38.7232 306.143 38.6828 306.232Z" fill="#263238"/>
<path d="M40.8304 313.337C40.8869 313.418 40.4751 313.805 39.9179 314.209C39.3607 314.613 38.8439 314.871 38.7874 314.799C38.7309 314.726 39.1427 314.322 39.7079 313.918C40.2732 313.515 40.7738 313.256 40.8304 313.337Z" fill="#263238"/>
<path d="M42.5579 320.427C42.5579 320.515 42.0734 320.725 41.4194 320.879C40.7653 321.032 40.2243 321.089 40.2 321C40.1758 320.911 40.6845 320.701 41.3386 320.54C41.9927 320.378 42.5337 320.33 42.5579 320.427Z" fill="#263238"/>
<path d="M51.9175 303.018C51.966 303.098 51.5299 303.446 50.9001 303.68C50.2702 303.914 49.705 303.946 49.6889 303.858C49.6727 303.769 50.1734 303.583 50.7709 303.349C51.3684 303.115 51.8691 302.929 51.9175 303.018Z" fill="#263238"/>
<path d="M53.2496 314.04C53.2092 314.129 52.6924 313.975 52.0949 313.693C51.4973 313.41 51.0451 313.111 51.0855 313.023C51.1259 312.934 51.6508 313.095 52.2483 313.37C52.8458 313.644 53.298 313.951 53.2496 314.04Z" fill="#263238"/>
<path d="M55.615 321.938C55.0802 321.911 54.5572 321.77 54.0808 321.526C53.2733 321.211 52.6515 320.88 52.6838 320.783C53.216 320.811 53.7362 320.951 54.21 321.195C55.0175 321.51 55.6473 321.841 55.615 321.938Z" fill="#263238"/>
<path d="M42.9382 328.123C42.8897 328.034 43.5196 327.614 44.2463 327.041C44.973 326.468 45.5383 325.951 45.611 326.023C45.6836 326.096 45.2234 326.718 44.4643 327.315C44.042 327.723 43.5129 328.003 42.9382 328.123Z" fill="#263238"/>
<path d="M49.1714 324.084C49.0745 324.084 48.9372 323.568 48.695 322.954C48.4527 322.34 48.2105 321.848 48.2912 321.791C48.372 321.735 48.7757 322.155 49.026 322.825C49.2764 323.495 49.2683 324.084 49.1714 324.084Z" fill="#263238"/>
<path d="M47.5001 314.613C47.4435 314.694 47.0398 314.5 46.5957 314.185C46.1516 313.87 45.8447 313.547 45.9012 313.467C45.9578 313.386 46.3615 313.58 46.8056 313.895C47.2497 314.209 47.5808 314.532 47.5001 314.613Z" fill="#263238"/>
<path d="M62.035 299.739C62.0916 299.82 61.6959 300.208 61.1549 300.603C60.6139 300.999 60.1294 301.266 60.0729 301.185C60.0163 301.104 60.4039 300.725 60.9449 300.321C61.486 299.917 62.035 299.659 62.035 299.739Z" fill="#263238"/>
<path d="M64.2555 305.731C64.2555 305.828 63.6499 305.957 62.8909 305.876C62.1319 305.796 61.5585 305.537 61.5828 305.448C61.607 305.36 62.2045 305.448 62.9313 305.521C63.658 305.594 64.2475 305.634 64.2555 305.731Z" fill="#263238"/>
<path d="M54.8316 307.08C54.8316 307.169 54.2906 307.37 53.5477 307.419C52.8048 307.467 52.2235 307.346 52.2315 307.249C52.2396 307.152 52.821 307.12 53.5316 307.072C54.2422 307.023 54.8155 306.983 54.8316 307.08Z" fill="#263238"/>
<path d="M55.6482 301.411C55.6482 301.508 55.0668 301.524 54.437 301.225C53.8071 300.926 53.4438 300.498 53.5084 300.417C53.573 300.337 54.009 300.644 54.5823 300.902C55.1556 301.16 55.6563 301.314 55.6482 301.411Z" fill="#263238"/>
<path d="M65.0631 312.167C65.0146 312.248 64.4252 311.973 63.7469 311.545C63.0686 311.117 62.5679 310.738 62.6245 310.625C62.681 310.512 63.2624 310.827 63.9407 311.247C64.619 311.666 65.1196 312.086 65.0631 312.167Z" fill="#263238"/>
<path d="M88.0521 328.979H37.7861V337.885H88.0521V328.979Z" fill="#442D87"/>
<path d="M41.541 336.125L47.6537 362.748H77.6114L84.2974 336.125H41.541Z" fill="#442D87"/>
<path d="M88.0273 337.901C88.0273 337.998 76.7225 338.079 62.7046 338.079C48.6866 338.079 37.3818 337.998 37.3818 337.901C37.3818 337.804 48.6866 337.724 62.7046 337.724C76.7225 337.724 88.0273 337.812 88.0273 337.901Z" fill="#263238"/>
<path d="M60.073 307.273C59.9923 307.322 59.6451 306.926 59.3059 306.377C58.9668 305.828 58.7568 305.343 58.8376 305.295C58.9183 305.247 59.2656 305.642 59.6047 306.191C59.9438 306.74 60.1538 307.217 60.073 307.273Z" fill="#263238"/>
<path d="M60.0888 314.435C60.0646 313.971 60.1561 313.507 60.3552 313.087C60.5894 312.368 60.864 311.811 60.9528 311.843C60.9776 312.31 60.8861 312.777 60.6863 313.2C60.4198 313.91 60.1857 314.467 60.0888 314.435Z" fill="#263238"/>
<path d="M62.544 321.961C62.4552 322.009 62.0837 321.404 61.7365 320.621C61.4579 320.166 61.2816 319.656 61.2197 319.127C61.3085 319.078 61.68 319.684 62.0272 320.467C62.3058 320.922 62.4822 321.431 62.544 321.961Z" fill="#263238"/>
<path d="M57.2384 328.018C57.1658 327.953 57.4645 327.493 57.9086 326.976C58.3528 326.459 58.7646 326.104 58.8453 326.169C58.9261 326.233 58.6192 326.702 58.1751 327.21C57.731 327.719 57.3111 328.123 57.2384 328.018Z" fill="#263238"/>
<path d="M56.1243 317.028C56.1243 317.124 55.6237 317.116 55.0423 317.028C54.4609 316.939 54.0087 316.769 54.0248 316.672C54.041 316.575 54.5255 316.583 55.0988 316.672C55.6721 316.761 56.1404 316.931 56.1243 317.028Z" fill="#263238"/>
<path d="M231.002 267.754H111.801V362.811H231.002V267.754Z" fill="#E0E0E0"/>
<g opacity="0.3">
<path d="M120.48 267.947C134.515 272.954 149.994 274.028 165.054 274.31C168.179 274.367 171.336 274.359 174.356 275.118C177.376 275.877 180.291 277.597 181.841 280.302C183.529 283.249 183.351 286.939 182.39 290.194C181.429 293.448 179.774 296.46 178.579 299.633C176.463 305.248 175.816 311.309 176.698 317.244C176.969 319.773 177.82 322.204 179.185 324.35C179.876 325.416 180.807 326.306 181.903 326.948C183 327.59 184.231 327.967 185.499 328.048C190.029 328.113 193.13 323.664 195.375 319.723C204.588 303.574 214.553 285.244 220.447 267.616L120.48 267.947Z" fill="black"/>
</g>
<path d="M152.417 362.302C152.296 362.302 152.207 341.235 152.207 315.25C152.207 289.265 152.296 268.189 152.417 268.189C152.538 268.189 152.627 289.257 152.627 315.25C152.627 341.243 152.53 362.302 152.417 362.302Z" fill="#455A64"/>
<path d="M201.262 197.503C200.907 195.129 193.817 187.297 193.817 187.297C193.817 187.297 190.28 173.077 189.214 168.886C188.859 167.674 188.341 166.517 187.672 165.446C185.165 161.27 181.6 157.83 177.336 155.474L167.525 149.959L165.183 144.742L141.621 132.63L135.234 143.935C135.234 143.935 119.722 148.86 117.671 152.357C115.62 155.853 118.688 203.067 118.688 203.067C118.688 203.067 112.229 230.295 110.832 235.932C109.435 241.568 111.268 248.286 111.268 248.286L122.823 233.792C126.416 229.286 134.297 227.211 139.958 227.291L188.334 227.509L186.388 213.96L225.527 221.534C225.527 221.534 232.253 208.404 232.794 208.146C233.335 207.888 201.262 197.503 201.262 197.503Z" fill="#442D87"/>
<path d="M140.619 148.335C140.28 147.987 143.349 158.364 147.208 168.934C149.285 174.645 150.343 180.677 150.333 186.755V225.03L173.524 223.455L170.06 198.245C170.06 198.245 167.234 181.983 166.443 175.797C165.716 170.145 163.213 154.803 163.213 154.803C163.213 154.803 150.333 158.226 140.619 148.335Z" fill="white"/>
<path d="M192.089 206.998C192.052 206.803 192.052 206.604 192.089 206.409C192.142 205.881 192.245 205.359 192.395 204.85C192.886 203.152 193.797 201.605 195.044 200.353C196.298 199.104 197.844 198.188 199.542 197.688C200.05 197.537 200.572 197.434 201.1 197.381C201.292 197.344 201.49 197.344 201.682 197.381C201.682 197.454 200.874 197.543 199.631 197.97C198.017 198.524 196.551 199.44 195.346 200.648C194.141 201.856 193.228 203.324 192.678 204.939C192.25 206.191 192.161 206.998 192.089 206.998Z" fill="#263238"/>
<path d="M193.284 197.826C194.362 197.193 195.58 196.84 196.829 196.8C198.066 196.629 199.325 196.779 200.487 197.236C200.487 197.365 198.872 197.05 196.861 197.236C194.851 197.422 193.333 197.947 193.284 197.826Z" fill="#263238"/>
<g opacity="0.3">
<path d="M116.355 218.715L114.336 220.992C116.441 223.59 119.294 225.479 122.508 226.402C125.747 227.09 129.057 227.388 132.367 227.29C133.708 227.355 135.051 227.227 136.356 226.911C137.672 226.531 138.892 225.788 140.256 225.708C141.171 225.712 142.082 225.842 142.961 226.095C143.847 226.346 144.782 226.36 145.674 226.136C146.116 226.016 146.508 225.758 146.791 225.399C147.075 225.039 147.235 224.599 147.249 224.141C137.182 221.199 126.821 219.379 116.355 218.715Z" fill="black"/>
</g>
<path d="M182.569 221.639L176.916 215.599L165.167 212.651C165.167 212.651 154.444 215.881 154.186 215.881C153.927 215.881 144.851 213.394 144.851 213.394L141.678 225.038L158.029 226.161L176.698 225.41C176.698 225.41 177.675 224.505 177.094 223.883C176.513 223.262 180.219 224.933 180.655 224.949C181.091 224.966 181.931 225.305 182.512 224.61C182.908 224.093 183.441 222.567 182.569 221.639Z" fill="#FFBE9D"/>
<path d="M177.093 223.843C176.459 223.723 175.837 223.545 175.236 223.31C174.106 222.955 172.531 222.502 170.779 222.018C169.027 221.533 167.412 221.21 166.241 221.009C165.6 220.925 164.97 220.776 164.359 220.564C165.006 220.536 165.654 220.585 166.289 220.71C167.834 220.925 169.365 221.227 170.876 221.614C172.389 221.998 173.877 222.473 175.333 223.035C175.952 223.228 176.543 223.5 177.093 223.843Z" fill="#EB996E"/>
<path d="M182.568 221.639C181.688 221.416 180.82 221.147 179.968 220.831C178.353 220.298 176.149 219.636 173.67 218.95C171.191 218.264 168.994 217.48 167.323 217.383C166.423 217.337 165.52 217.372 164.626 217.488C164.845 217.368 165.082 217.286 165.328 217.246C165.989 217.104 166.665 217.049 167.339 217.085C169.067 217.085 171.377 217.82 173.799 218.546C176.221 219.273 178.499 219.943 180.081 220.557C180.889 220.856 181.494 221.13 181.93 221.324C182.157 221.397 182.372 221.503 182.568 221.639Z" fill="#EB996E"/>
<path d="M117.671 152.356C117.671 152.356 109.233 158.227 107.174 166.673C105.114 175.119 96.2241 209.639 98.049 214.799C99.8739 219.959 135.355 225.03 135.355 225.03L139.562 207.265L121.539 202.332C121.539 202.332 121.773 185.899 121.999 179.092C122.225 172.285 117.671 152.356 117.671 152.356Z" fill="#442D87"/>
<path d="M139.336 209.938L145.142 211.367L141.645 224.755L135.944 223.842L139.336 209.938Z" fill="white"/>
<path d="M97.9197 212.974C97.9197 212.974 97.9197 213.273 98.0085 213.782C98.2048 214.563 98.636 215.265 99.244 215.793C100.786 217.23 103.734 218.425 107.464 219.095C109.168 219.66 111.114 220.105 113.189 220.573C115.264 221.041 117.509 221.518 119.867 221.994C124.591 222.963 129.815 223.981 135.355 225.014L135.112 225.168C135.508 223.553 135.92 221.784 136.364 220.016C137.357 215.978 138.326 212.006 139.239 208.267L139.384 208.509L123.404 203.979C121.198 203.05 118.81 202.631 116.419 202.752C114.602 202.853 112.817 203.274 111.146 203.995C110.084 204.455 109.07 205.017 108.118 205.675L107.383 206.208C107.303 206.273 107.217 206.329 107.125 206.377C107.125 206.377 107.198 206.297 107.351 206.167C107.505 206.038 107.739 205.836 108.062 205.594C109 204.899 110.009 204.306 111.074 203.826C112.755 203.064 114.561 202.612 116.403 202.493C118.836 202.338 121.272 202.741 123.525 203.672L139.554 208.162L139.747 208.21L139.699 208.404C138.787 212.143 137.826 216.083 136.84 220.161C136.404 221.921 135.985 223.666 135.581 225.305L135.532 225.499H135.339C129.799 224.457 124.583 223.423 119.859 222.438C117.501 221.946 115.264 221.453 113.181 220.969C111.098 220.484 109.144 220.024 107.432 219.434C103.653 218.716 100.706 217.472 99.1471 215.962C98.5291 215.407 98.1048 214.668 97.9358 213.855C97.8776 213.565 97.8722 213.266 97.9197 212.974Z" fill="#263238"/>
<path d="M122.524 203.534C122.476 203.591 121.87 203.033 120.788 202.315C117.954 200.417 114.605 199.439 111.195 199.513C109.887 199.513 109.087 199.69 109.071 199.618C109.748 199.373 110.46 199.239 111.179 199.222C114.682 198.968 118.161 199.979 120.982 202.072C121.573 202.471 122.094 202.965 122.524 203.534Z" fill="#263238"/>
<path d="M124.89 174.627C124.92 174.987 124.92 175.349 124.89 175.709C124.89 176.411 124.817 177.413 124.721 178.656C124.519 181.135 124.155 184.551 123.501 188.298C122.99 191.503 122.242 194.666 121.264 197.761C121.071 198.351 120.861 198.884 120.691 199.376L120.174 200.539C120.023 200.871 119.836 201.185 119.617 201.476C119.718 201.13 119.854 200.794 120.021 200.475C120.158 200.127 120.304 199.732 120.473 199.296C120.643 198.86 120.804 198.294 120.982 197.681C121.864 194.574 122.568 191.42 123.089 188.233C123.735 184.503 124.147 181.103 124.422 178.632C124.543 177.461 124.648 176.484 124.729 175.709C124.739 175.343 124.793 174.98 124.89 174.627Z" fill="#263238"/>
<path d="M145.464 165.478C145.464 165.478 145.383 165.26 145.189 164.881C144.902 164.343 144.483 163.887 143.97 163.557C143.591 163.296 143.158 163.126 142.703 163.059C142.248 162.992 141.784 163.03 141.346 163.169C140.791 163.359 140.294 163.691 139.906 164.131C139.518 164.571 139.252 165.105 139.133 165.68L139.02 166.254L138.77 165.721C137.825 163.694 137.003 161.612 136.307 159.487C135.073 155.947 134.456 152.221 134.482 148.473C134.482 147.754 134.579 147.108 134.62 146.535C134.66 145.961 134.789 145.485 134.878 145.097C134.963 144.69 135.082 144.29 135.233 143.902C134.958 145.411 134.804 146.939 134.773 148.473C134.839 152.18 135.491 155.853 136.703 159.358C137.399 161.466 138.208 163.537 139.125 165.559L138.762 165.608C138.901 164.973 139.205 164.385 139.643 163.905C140.081 163.424 140.638 163.068 141.257 162.87C141.738 162.725 142.246 162.694 142.74 162.78C143.235 162.865 143.703 163.065 144.107 163.363C144.632 163.731 145.045 164.237 145.303 164.824C145.373 164.979 145.425 165.142 145.456 165.309C145.472 165.414 145.48 165.478 145.464 165.478Z" fill="#263238"/>
<path d="M165.151 167.294C165.065 166.979 165.003 166.658 164.966 166.333C164.789 165.443 164.732 164.534 164.796 163.628C164.978 162.236 165.671 160.96 166.742 160.051C167.404 159.506 168.234 159.207 169.092 159.203C169.559 159.198 170.022 159.294 170.449 159.485C170.875 159.676 171.255 159.957 171.563 160.31L171.207 160.519L170.44 158.59C168.93 154.786 167.59 151.322 166.637 148.827L165.531 145.847C165.377 145.492 165.261 145.121 165.184 144.741C165.382 145.075 165.55 145.426 165.684 145.791C166.007 146.598 166.419 147.543 166.92 148.722C167.945 151.201 169.342 154.633 170.836 158.412L171.595 160.35L172.088 161.593L171.28 160.552C171.013 160.243 170.682 159.995 170.31 159.828C169.937 159.661 169.532 159.577 169.124 159.583C168.355 159.578 167.609 159.837 167.008 160.318C165.999 161.161 165.326 162.339 165.111 163.636C165.024 164.521 165.04 165.412 165.159 166.293C165.198 166.626 165.195 166.962 165.151 167.294Z" fill="#263238"/>
<path d="M180.13 169.297C180.243 169.297 182.068 181.555 184.207 196.711C186.347 211.868 187.978 224.166 187.865 224.166C187.752 224.166 185.927 211.908 183.787 196.711C181.648 181.514 180.017 169.313 180.13 169.297Z" fill="#263238"/>
<g opacity="0.3">
<path d="M136.55 159.615C136.648 162.755 137.33 165.849 138.56 168.74C139.441 167.65 140.418 166.503 141.79 166.18C143.454 165.784 145.141 166.81 146.345 168.07C146.136 166.81 145.639 165.616 144.891 164.581C144.518 164.073 144.032 163.657 143.472 163.367C142.912 163.077 142.292 162.921 141.661 162.91C141.033 162.925 140.427 163.149 139.94 163.546C139.453 163.944 139.112 164.493 138.972 165.106L136.655 159.672" fill="black"/>
</g>
<path d="M122.911 168.489C122.839 168.489 122.863 167.642 122.621 166.325C122.289 164.61 121.622 162.978 120.659 161.521C120.116 160.732 119.497 159.999 118.809 159.333C118.24 158.793 117.621 158.31 116.96 157.887C115.822 157.169 115.022 156.894 115.055 156.821C115.253 156.836 115.447 156.885 115.628 156.967C115.854 157.027 116.073 157.111 116.282 157.217C116.561 157.337 116.831 157.477 117.09 157.637C117.792 158.034 118.45 158.505 119.052 159.042C119.776 159.717 120.423 160.469 120.982 161.287C121.982 162.786 122.634 164.492 122.887 166.277C122.968 166.811 122.995 167.352 122.968 167.892C122.968 168.28 122.944 168.489 122.911 168.489Z" fill="#263238"/>
<path d="M169.786 110.908C169.325 106.584 167.252 102.592 163.982 99.7266C160.711 96.8613 156.481 95.3324 152.134 95.4442H151.238C141.588 96.2517 136.889 104.9 137.971 114.517L140.619 148.351L141.742 149.723C144.262 152.819 147.735 154.994 151.62 155.91C155.505 156.826 159.584 156.431 163.221 154.786L162.478 143.901C162.478 143.901 171.732 142.222 171.603 132.936C171.546 128.43 170.674 119.208 169.786 110.908Z" fill="#FFBE9D"/>
<path d="M162.551 143.877C158.243 143.997 153.991 142.876 150.302 140.647C150.302 140.647 153.33 147.261 162.576 146.187L162.551 143.877Z" fill="#EB996E"/>
<path d="M166.846 118.547C166.855 118.892 166.731 119.227 166.5 119.482C166.268 119.738 165.947 119.895 165.603 119.919C165.434 119.936 165.264 119.919 165.103 119.87C164.941 119.82 164.791 119.739 164.661 119.63C164.531 119.522 164.424 119.389 164.346 119.239C164.267 119.089 164.22 118.925 164.206 118.757C164.195 118.411 164.318 118.075 164.55 117.819C164.782 117.563 165.104 117.407 165.449 117.384C165.618 117.366 165.788 117.382 165.95 117.432C166.112 117.481 166.263 117.562 166.393 117.67C166.524 117.779 166.631 117.912 166.709 118.063C166.786 118.213 166.833 118.378 166.846 118.547Z" fill="#263238"/>
<path d="M167.436 113.499C167.331 113.661 166.282 113.774 165.014 114.452C163.746 115.13 163.003 115.978 162.834 115.962C162.664 115.946 162.834 115.728 163.149 115.348C163.631 114.813 164.206 114.367 164.844 114.032C165.454 113.691 166.122 113.47 166.814 113.378C167.291 113.33 167.493 113.418 167.436 113.499Z" fill="#263238"/>
<path d="M153.443 119.249C153.458 119.595 153.336 119.934 153.104 120.191C152.871 120.448 152.546 120.603 152.199 120.622C152.031 120.639 151.861 120.623 151.698 120.574C151.536 120.525 151.386 120.444 151.255 120.335C151.125 120.227 151.018 120.093 150.94 119.943C150.862 119.792 150.816 119.628 150.802 119.459C150.791 119.113 150.915 118.777 151.147 118.521C151.379 118.265 151.701 118.109 152.046 118.086C152.215 118.068 152.385 118.085 152.547 118.134C152.709 118.183 152.86 118.264 152.99 118.372C153.12 118.481 153.227 118.614 153.305 118.765C153.383 118.915 153.43 119.08 153.443 119.249Z" fill="#263238"/>
<path d="M153.281 115.446C153.095 115.446 152.231 114.905 150.859 114.566C149.486 114.227 148.347 114.299 148.226 114.186C148.105 114.073 148.372 114.025 148.864 113.984C149.584 113.939 150.306 114.007 151.004 114.186C151.68 114.347 152.324 114.62 152.91 114.994C153.233 115.252 153.33 115.43 153.281 115.446Z" fill="#263238"/>
<path d="M158.836 126.533C159.584 126.283 160.36 126.123 161.146 126.056C161.509 126.056 161.848 125.927 161.905 125.677C161.927 125.302 161.834 124.93 161.638 124.611L160.483 121.857C158.868 117.949 157.722 114.727 157.883 114.671C158.045 114.614 159.498 117.723 161.057 121.631C161.444 122.6 161.816 123.521 162.163 124.401C162.401 124.834 162.481 125.336 162.389 125.822C162.339 125.952 162.26 126.069 162.158 126.164C162.055 126.26 161.933 126.33 161.8 126.371C161.601 126.433 161.394 126.469 161.186 126.476C160.408 126.596 159.619 126.615 158.836 126.533Z" fill="#263238"/>
<path d="M153.281 109.938C153.119 110.318 151.706 110.067 150.051 110.18C148.395 110.293 146.99 110.697 146.821 110.334C146.724 110.164 146.982 109.809 147.539 109.462C148.289 109.035 149.126 108.786 149.987 108.732C150.848 108.679 151.709 108.824 152.505 109.155C153.038 109.437 153.329 109.752 153.281 109.938Z" fill="#263238"/>
<path d="M167.404 110.254C167.089 110.585 165.862 110.254 164.392 110.254C162.923 110.254 161.671 110.504 161.38 110.165C161.251 110.003 161.445 109.672 161.986 109.357C162.732 108.966 163.566 108.774 164.408 108.8C165.257 108.794 166.093 109.011 166.831 109.43C167.364 109.761 167.541 110.1 167.404 110.254Z" fill="#263238"/>
<path d="M172.491 102.655C172.409 102.231 172.175 101.852 171.833 101.589C171.491 101.326 171.064 101.197 170.634 101.226C171.098 101.094 171.531 100.872 171.909 100.572C172.098 100.42 172.239 100.219 172.318 99.99C172.396 99.7614 172.409 99.5153 172.354 99.28C172.111 98.5614 171.191 98.4079 170.464 98.2061C169.51 97.9288 168.664 97.365 168.042 96.5911C167.161 95.4768 166.822 94.0233 166.055 92.8201C165.56 92.0434 164.896 91.3877 164.114 90.9012C163.332 90.4148 162.45 90.11 161.534 90.0092C160.619 89.9085 159.692 90.0145 158.823 90.3192C157.953 90.624 157.163 91.1199 156.511 91.7704C155.798 91.038 154.921 90.4863 153.953 90.161C152.984 89.8358 151.952 89.7465 150.942 89.9005C149.932 90.0545 148.973 90.4474 148.145 91.0465C147.318 91.6456 146.645 92.4336 146.183 93.345C144.944 92.8284 143.589 92.6544 142.26 92.8411C140.931 93.0278 139.677 93.5684 138.629 94.4063C137.58 95.2442 136.776 96.3486 136.301 97.6038C135.826 98.859 135.697 100.219 135.928 101.541L141.71 105.086C141.756 104.646 141.896 104.221 142.119 103.84C142.343 103.458 142.644 103.128 143.005 102.872C143.365 102.615 143.775 102.438 144.209 102.352C144.643 102.266 145.09 102.273 145.521 102.373C147.265 102.881 148.379 104.9 150.188 105.037C151.601 105.142 152.804 104.052 154.169 103.689C155.824 103.245 157.577 103.907 159.07 104.747C160.564 105.586 161.994 106.636 163.657 107.056C165.644 107.454 167.706 107.208 169.544 106.354C170.359 106.067 171.103 105.607 171.724 105.005C172.03 104.703 172.259 104.332 172.392 103.923C172.526 103.515 172.56 103.08 172.491 102.655Z" fill="#263238"/>
<path d="M142.687 102.357L169.172 102.212C168.217 100.432 166.828 98.9208 165.135 97.8188C161.618 95.2488 157.378 93.8555 153.022 93.8379C148.702 93.8379 140.062 99.3853 137.018 102.446C134.596 104.868 134.66 106.96 134.66 106.96C134.353 110.399 136.38 114.227 137.244 117.594C137.68 119.322 138.593 124.555 138.593 124.555C140.046 124.514 140.555 123.335 140.296 121.898L139.869 116.246C141.298 115.053 142.299 113.427 142.72 111.614C143.141 109.802 142.959 107.901 142.202 106.2C141.839 105.7 140.967 103.366 142.687 102.357Z" fill="#263238"/>
<path d="M139.489 115.874C138.141 111.191 136.897 106.184 138.335 101.501H137.527L137.204 101.735C136.458 101.484 135.65 101.478 134.9 101.717C134.149 101.955 133.494 102.427 133.03 103.063C132.565 103.7 132.316 104.467 132.317 105.255C132.319 106.043 132.571 106.809 133.038 107.444C132.25 107.437 131.487 107.718 130.893 108.234C130.298 108.75 129.912 109.466 129.808 110.246C129.81 111.334 130.109 112.4 130.672 113.331C131.236 114.264 131.581 115.313 131.681 116.399C131.715 116.94 131.557 117.475 131.235 117.911C130.913 118.347 130.448 118.655 129.921 118.781C130.176 119.332 130.613 119.778 131.159 120.044C131.704 120.311 132.325 120.381 132.916 120.243C132.539 121.163 131.909 121.958 131.1 122.536C132.828 123.715 135.194 123.343 137.067 122.399C138.229 121.931 139.178 121.051 139.732 119.928C140.248 118.628 139.861 117.198 139.489 115.874Z" fill="#263238"/>
<path d="M139.053 121.34C138.891 121.276 132.593 119.62 132.989 125.959C133.384 132.298 139.65 130.626 139.65 130.44C139.65 130.255 139.053 121.34 139.053 121.34Z" fill="#FFBE9D"/>
<path d="M138.133 128.14C138.133 128.14 138.028 128.221 137.842 128.318C137.591 128.442 137.302 128.465 137.035 128.382C136.348 128.172 135.727 127.147 135.63 126C135.581 125.452 135.655 124.9 135.848 124.385C135.899 124.181 136 123.993 136.14 123.837C136.281 123.681 136.458 123.561 136.655 123.489C136.781 123.45 136.916 123.455 137.038 123.503C137.16 123.552 137.261 123.641 137.325 123.755C137.422 123.925 137.382 124.054 137.422 124.07C137.463 124.086 137.552 123.949 137.487 123.691C137.435 123.54 137.339 123.408 137.212 123.311C137.123 123.249 137.022 123.205 136.915 123.183C136.808 123.161 136.698 123.16 136.591 123.182C136.334 123.249 136.098 123.381 135.906 123.565C135.714 123.748 135.571 123.978 135.492 124.232C135.26 124.799 135.163 125.413 135.21 126.024C135.331 127.3 136.017 128.447 136.986 128.673C137.158 128.711 137.337 128.71 137.508 128.671C137.68 128.632 137.841 128.555 137.98 128.447C138.133 128.293 138.157 128.148 138.133 128.14Z" fill="#EB996E"/>
<path d="M132.472 116.083C132.472 116.083 132.294 115.841 132.351 115.34C132.419 115.001 132.56 114.68 132.765 114.401C132.97 114.122 133.234 113.891 133.538 113.725C134.448 113.292 135.438 113.053 136.445 113.023C137.008 113.023 137.564 112.89 138.066 112.635C138.569 112.379 139.004 112.009 139.336 111.553C139.863 110.526 140.039 109.355 139.836 108.218C139.683 107.153 139.4 106.192 139.263 105.36C139.007 104.469 139.021 103.522 139.303 102.639C139.309 103.53 139.409 104.417 139.602 105.287C139.78 106.095 140.095 107.039 140.289 108.162C140.532 109.404 140.344 110.692 139.756 111.812C139.405 112.391 138.875 112.839 138.246 113.088C137.682 113.297 137.092 113.427 136.493 113.475C135.538 113.481 134.593 113.667 133.708 114.024C133.43 114.167 133.184 114.363 132.983 114.601C132.782 114.84 132.63 115.116 132.537 115.413C132.5 115.635 132.479 115.859 132.472 116.083Z" fill="#455A64"/>
<path d="M130.938 113.33C130.938 113.33 130.8 113.152 130.744 112.757C130.679 112.199 130.789 111.634 131.059 111.142C131.244 110.792 131.5 110.484 131.81 110.237C132.172 109.965 132.588 109.773 133.029 109.672C133.457 109.58 133.865 109.411 134.232 109.171C134.395 109.026 134.522 108.846 134.604 108.645C134.687 108.443 134.722 108.226 134.709 108.009C134.709 107.532 134.652 107.023 134.668 106.515C134.675 106.029 134.729 105.545 134.83 105.069C134.993 104.266 135.302 103.5 135.742 102.808C135.882 102.555 136.083 102.34 136.327 102.183C136.571 102.027 136.85 101.934 137.139 101.912C137.559 101.912 137.737 102.106 137.721 102.122C137.704 102.138 137.511 102.049 137.155 102.122C136.913 102.174 136.685 102.281 136.49 102.435C136.296 102.589 136.139 102.786 136.033 103.01C135.668 103.688 135.412 104.418 135.274 105.174C135.196 105.622 135.155 106.076 135.153 106.531C135.153 106.999 135.225 107.5 135.201 108.049C135.213 108.336 135.159 108.623 135.043 108.886C134.926 109.149 134.751 109.382 134.531 109.567C134.114 109.846 133.644 110.036 133.15 110.124C132.782 110.187 132.432 110.328 132.123 110.537C131.814 110.745 131.553 111.018 131.358 111.335C131.026 111.945 130.88 112.638 130.938 113.33Z" fill="#455A64"/>
<path d="M168.05 96.5919C168.09 96.5919 167.574 96.9391 166.742 96.5515C166.274 96.2975 165.864 95.9481 165.539 95.526C165.138 95.0008 164.639 94.5591 164.069 94.2259C163.328 93.8091 162.481 93.6169 161.632 93.6728C160.783 93.7287 159.969 94.0303 159.289 94.5408C158.481 95.1061 157.811 95.9055 156.866 96.5676C156.386 96.9239 155.836 97.1744 155.251 97.3024C154.647 97.4083 154.025 97.3498 153.451 97.1329C152.304 96.721 151.4 96.0185 150.414 95.6632C149.464 95.2983 148.453 95.1148 147.435 95.1222C145.681 95.12 143.976 95.7025 142.59 96.7776C141.664 97.5008 140.895 98.4046 140.329 99.4342C139.933 100.169 139.788 100.621 139.748 100.605C139.707 100.589 139.748 100.484 139.812 100.266C139.904 99.9515 140.017 99.6439 140.151 99.3454C140.673 98.2458 141.431 97.2751 142.372 96.503C143.789 95.3445 145.556 94.6986 147.386 94.67C148.464 94.642 149.537 94.8258 150.544 95.211C151.61 95.5986 152.53 96.3012 153.572 96.6645C154.065 96.8546 154.601 96.9076 155.122 96.8179C155.628 96.7021 156.103 96.482 156.519 96.172C157.367 95.5663 158.078 94.7669 158.942 94.1694C159.74 93.571 160.713 93.2505 161.711 93.2569C162.563 93.2632 163.398 93.4914 164.134 93.9191C164.723 94.2951 165.236 94.7802 165.644 95.3483C165.927 95.7632 166.292 96.1151 166.718 96.3819C167.118 96.6202 167.595 96.6954 168.05 96.5919Z" fill="#455A64"/>
<path d="M155.316 128.195C155.518 128.195 155.744 129.503 157.068 130.271C158.392 131.038 159.806 130.65 159.854 130.836C159.902 131.022 159.571 131.159 158.966 131.272C158.174 131.419 157.356 131.282 156.656 130.884C155.986 130.496 155.489 129.866 155.267 129.124C155.122 128.567 155.219 128.203 155.316 128.195Z" fill="#263238"/>
<path d="M238.874 254.365C236.416 252.253 233.226 251.192 229.992 251.41L224.533 268.747C228.53 268.924 232.519 270.983 236.379 269.926C237.92 269.45 239.294 268.544 240.337 267.313C241.38 266.083 242.049 264.58 242.266 262.981C242.434 261.378 242.213 259.758 241.623 258.259C241.032 256.759 240.09 255.424 238.874 254.365Z" fill="#442D87"/>
<path d="M230.057 251.014C230.057 250.877 230.646 250.764 231.672 250.772C233.197 250.8 234.707 251.087 236.137 251.62C238.322 252.471 240.212 253.938 241.58 255.843C242.415 256.973 243.031 258.249 243.396 259.606C243.792 261.091 243.836 262.647 243.526 264.152C243.225 265.677 242.544 267.102 241.547 268.294C240.592 269.381 239.382 270.213 238.027 270.717C235.824 271.496 233.448 271.649 231.163 271.161C229.692 270.873 228.258 270.426 226.883 269.829C225.922 269.417 225.414 269.11 225.462 268.973C225.511 268.835 226.092 268.876 227.077 269.045C228.062 269.215 229.556 269.53 231.333 269.691C233.347 269.915 235.386 269.637 237.268 268.884C238.299 268.448 239.213 267.772 239.932 266.914C240.687 265.974 241.202 264.866 241.434 263.684C241.656 262.512 241.639 261.307 241.385 260.142C241.132 258.976 240.646 257.874 239.957 256.901C238.844 255.215 237.314 253.847 235.515 252.928C234.241 252.326 232.906 251.861 231.534 251.539C230.606 251.329 230.041 251.159 230.057 251.014Z" fill="#F5F5F5"/>
<path d="M179.483 316.058L167.613 349.318L208.916 364.297C210.111 360.259 191.612 344.594 191.612 344.594L200.09 323.6L179.483 316.058Z" fill="#442D87"/>
<g opacity="0.6">
<path d="M179.491 338.175C179.05 338.151 178.615 338.291 178.271 338.569C177.927 338.846 177.697 339.24 177.626 339.677C177.586 340.116 177.717 340.553 177.99 340.899C178.264 341.244 178.659 341.472 179.096 341.534C179.566 341.559 180.029 341.407 180.394 341.108C180.758 340.81 180.998 340.385 181.066 339.919C181.066 339.039 180.194 338.029 179.322 338.151" fill="white"/>
</g>
<path d="M167.613 349.318L168.816 345.967L208.044 361.616C208.044 361.616 209.594 363.077 208.916 364.297L167.613 349.318Z" fill="white"/>
<path d="M192.363 344.626C192.282 344.828 191.241 344.553 190.013 344.844C188.786 345.135 187.946 345.789 187.793 345.652C187.639 345.514 188.358 344.448 189.852 344.125C191.346 343.802 192.468 344.457 192.363 344.626Z" fill="#263238"/>
<path d="M196.077 347.994C196.077 348.204 195.052 348.228 194.059 348.801C193.066 349.375 192.541 350.239 192.339 350.158C192.137 350.077 192.428 348.89 193.679 348.155C194.931 347.42 196.077 347.8 196.077 347.994Z" fill="#263238"/>
<path d="M196.619 354.066C196.425 354.066 196.506 352.936 197.427 352.015C198.347 351.094 199.445 351.006 199.469 351.208C199.494 351.409 198.702 351.781 197.959 352.548C197.217 353.315 196.829 354.123 196.619 354.066Z" fill="#263238"/>
<path d="M193.76 339.628C193.607 339.782 192.783 339.168 191.62 338.821C190.458 338.474 189.432 338.522 189.392 338.312C189.351 338.102 190.458 337.69 191.814 338.11C193.171 338.53 193.922 339.507 193.76 339.628Z" fill="#263238"/>
<path d="M194.552 334.372C193.81 334.307 193.099 334.045 192.493 333.613C191.793 333.212 191.147 332.724 190.571 332.159C190.226 331.83 189.905 331.476 189.61 331.102C189.424 330.889 189.271 330.649 189.158 330.391C189.077 330.2 189.062 329.987 189.116 329.786C189.17 329.586 189.29 329.409 189.456 329.285C189.608 329.181 189.782 329.114 189.964 329.088C190.146 329.063 190.332 329.081 190.506 329.139C190.768 329.233 191.016 329.364 191.241 329.527C191.645 329.796 192.023 330.102 192.372 330.439C192.955 331.005 193.445 331.659 193.825 332.377C194.24 333.006 194.451 333.748 194.431 334.501C194.318 334.501 194.075 333.734 193.373 332.644C192.956 332.017 192.462 331.444 191.903 330.94C191.572 330.643 191.219 330.373 190.845 330.133C190.45 329.858 190.078 329.721 189.901 329.874C189.723 330.028 189.812 329.963 189.86 330.124C189.944 330.315 190.056 330.492 190.191 330.649C190.456 331.008 190.745 331.348 191.055 331.667C191.579 332.219 192.155 332.719 192.775 333.161C193.841 333.928 194.6 334.267 194.552 334.372Z" fill="#263238"/>
<path d="M194.188 334.581C194.013 333.849 194.075 333.08 194.366 332.385C194.61 331.607 194.984 330.875 195.472 330.221C195.765 329.837 196.092 329.48 196.449 329.155C196.662 328.924 196.93 328.751 197.228 328.652C197.526 328.553 197.844 328.531 198.153 328.59C198.335 328.662 198.493 328.785 198.609 328.944C198.725 329.102 198.793 329.29 198.807 329.486C198.822 329.757 198.8 330.028 198.742 330.293C198.615 330.949 198.358 331.572 197.987 332.127C197.615 332.682 197.136 333.157 196.578 333.523C195.383 334.331 194.455 334.234 194.463 334.161C194.471 334.089 195.27 333.903 196.271 333.095C196.841 332.632 197.304 332.051 197.628 331.392C197.816 331.009 197.949 330.601 198.024 330.18C198.121 329.72 198.08 329.3 197.903 329.292C197.721 329.285 197.54 329.319 197.372 329.39C197.205 329.461 197.055 329.568 196.934 329.704C196.599 329.987 196.291 330.301 196.013 330.641C195.54 331.219 195.153 331.864 194.866 332.554C194.366 333.774 194.309 334.581 194.188 334.581Z" fill="#263238"/>
<path d="M139.473 227.234C133.207 227.38 127.264 228.26 122.944 232.806C117.218 238.838 110.145 247.421 109.741 253.373C109.144 262.255 114.513 264.92 118.43 267.1C120.162 268.037 122.114 268.491 124.082 268.416L196.497 267.867L198.766 255.601L151.932 244.054L153.878 226.427L139.473 227.234Z" fill="#263238"/>
<path d="M153.919 226.418L176.699 225.368C176.699 225.368 216.055 227.556 224.445 235.252C232.835 242.947 231.793 251.692 228.991 260.082C226.189 268.472 201.537 322.161 201.537 322.161C201.537 322.161 203.539 325.577 202.417 328.985C201.963 330.477 201.129 331.826 199.996 332.899C198.864 333.972 197.472 334.732 195.957 335.105L174.058 327.031C174.058 327.031 171.087 325.981 173.186 323.179C175.286 320.377 176.683 319.86 176.683 319.86V314.264C176.683 314.264 184.378 300.271 185.072 298.349C185.767 296.427 193.147 267.955 193.147 267.955L198.049 259.533C198.049 259.533 186.203 253.961 175.932 249.924L151.949 244.013L153.919 226.418Z" fill="#263238"/>
<path d="M190.87 326.046C190.207 325.661 189.566 325.241 188.948 324.787C185.854 322.782 182.37 321.458 178.725 320.903C177.961 320.829 177.201 320.715 176.448 320.564C177.216 320.475 177.993 320.488 178.758 320.604C182.493 321.003 186.061 322.36 189.118 324.545C189.765 324.966 190.354 325.471 190.87 326.046Z" fill="#455A64"/>
<path d="M201.811 322.203C201.334 321.811 200.908 321.361 200.543 320.862C199.801 319.998 198.815 318.771 197.79 317.366C196.764 315.961 195.876 314.661 195.271 313.7C194.91 313.197 194.606 312.655 194.366 312.085C194.8 312.524 195.184 313.008 195.513 313.53L198.129 317.116C199.106 318.44 200.002 319.635 200.778 320.677C201.177 321.146 201.523 321.658 201.811 322.203Z" fill="#455A64"/>
<path d="M209.805 251.879C209.805 251.944 208.997 252.121 207.729 252.541C204.41 253.637 201.402 255.514 198.96 258.016C198.484 258.566 197.98 259.091 197.45 259.59C197.792 258.938 198.227 258.34 198.742 257.814C199.917 256.487 201.277 255.337 202.78 254.398C204.282 253.453 205.914 252.732 207.624 252.258C208.328 252.022 209.063 251.895 209.805 251.879Z" fill="#455A64"/>
<path d="M187.438 289.895C187.447 289.733 187.477 289.573 187.526 289.419L187.865 288.086L189.174 283.201L193.655 267.124C194.568 263.983 195.343 260.995 196.223 258.282C197.152 255.924 198.557 253.783 200.349 251.992C201.532 250.778 202.843 249.695 204.257 248.762C204.766 248.439 205.162 248.196 205.444 248.051C205.58 247.965 205.723 247.892 205.872 247.833C205.872 247.833 205.323 248.204 204.354 248.891C202.986 249.868 201.715 250.973 200.559 252.193C198.83 253.978 197.479 256.092 196.586 258.411C195.779 261.084 194.971 264.112 194.059 267.237L189.464 283.274C188.867 285.284 188.374 286.923 188.019 288.118C187.849 288.651 187.72 289.087 187.607 289.427C187.572 289.59 187.515 289.747 187.438 289.895Z" fill="#455A64"/>
<path d="M167.291 248.883C167.17 248.883 166.693 244.636 166.217 239.371C165.74 234.106 165.409 229.826 165.571 229.818C165.732 229.81 166.16 234.066 166.637 239.331C167.113 244.595 167.404 248.875 167.291 248.883Z" fill="#455A64"/>
<path d="M129.372 260.293C129.307 260.293 128.96 259.639 128.241 258.63C127.313 257.317 126.201 256.144 124.938 255.149C123.666 254.167 122.26 253.37 120.764 252.783C119.609 252.331 118.858 252.162 118.874 252.089C119.554 252.121 120.224 252.26 120.861 252.501C124.019 253.542 126.716 255.649 128.491 258.46C128.883 259.019 129.181 259.638 129.372 260.293Z" fill="#455A64"/>
<path d="M143.324 244.788C143.324 244.853 142.323 244.239 140.652 243.472C136.266 241.48 131.402 240.785 126.634 241.47C124.817 241.728 123.71 242.051 123.694 241.978C123.929 241.846 124.182 241.748 124.445 241.688C125.147 241.471 125.862 241.298 126.585 241.171C131.408 240.325 136.375 241.037 140.765 243.206C141.423 243.531 142.059 243.897 142.67 244.304C142.91 244.434 143.13 244.597 143.324 244.788Z" fill="#455A64"/>
<path d="M197.878 255.577C197.684 255.567 197.491 255.535 197.305 255.48L195.69 255.133L189.795 253.833C184.813 252.719 177.917 251.217 170.27 249.707C162.623 248.197 155.679 246.945 150.648 246.081L144.681 245.056L143.066 244.773C142.875 244.751 142.688 244.704 142.509 244.636C142.701 244.641 142.892 244.657 143.082 244.684L144.697 244.894C146.11 245.088 148.153 245.395 150.681 245.79C155.727 246.598 162.688 247.777 170.343 249.295C177.998 250.813 184.878 252.355 189.852 253.542C192.331 254.14 194.341 254.641 195.722 255.004L197.337 255.424C197.522 255.458 197.703 255.51 197.878 255.577Z" fill="#455A64"/>
<path d="M151.972 246.122C151.892 246.122 151.722 245.169 150.971 243.812C150.532 243.029 149.988 242.31 149.356 241.672C148.559 240.887 147.712 240.153 146.821 239.476C145.179 238.263 143.442 237.183 141.629 236.246C140.861 235.881 140.122 235.46 139.416 234.986C140.229 235.243 141.015 235.576 141.766 235.98C143.64 236.848 145.42 237.906 147.079 239.137C147.982 239.826 148.835 240.579 149.631 241.39C150.279 242.061 150.824 242.826 151.246 243.659C151.536 244.222 151.756 244.818 151.9 245.435C151.966 245.658 151.991 245.89 151.972 246.122Z" fill="#455A64"/>
<path d="M232.632 257.062C232.721 257.159 231.51 258.379 230.565 260.244C229.62 262.109 229.314 263.789 229.192 263.765C229.19 262.459 229.535 261.177 230.194 260.05C230.729 258.857 231.57 257.826 232.632 257.062Z" fill="#263238"/>
<g opacity="0.3">
<path d="M180.8 174.328L185.984 210.843L186.242 211.424C187.458 198.8 185.59 186.07 180.8 174.328Z" fill="black"/>
</g>
<path d="M208.715 195.306L191.862 224.763L150.333 225.668L150.229 227.549L190.441 227.25L191.717 227.202L234.175 227.291L242.758 212.49L253.724 196.776C253.883 196.543 253.975 196.271 253.99 195.989C254.006 195.708 253.944 195.427 253.812 195.178C253.68 194.929 253.482 194.72 253.241 194.575C252.999 194.43 252.722 194.353 252.44 194.354L210.055 194.515C209.782 194.517 209.514 194.591 209.278 194.73C209.043 194.869 208.849 195.068 208.715 195.306Z" fill="#E0E0E0"/>
<path d="M242.758 212.514C242.758 212.514 244.938 214.516 244.599 216.212C244.26 217.908 244.365 219.175 242.758 219.288C242.788 219.909 242.578 220.517 242.173 220.988C241.767 221.458 241.196 221.755 240.578 221.816C240.578 221.816 241.07 224.481 237.97 224.941C237.97 224.941 237.017 227.791 235.063 227.097C233.936 226.714 232.854 226.213 231.833 225.603L231.259 224.569C231.259 224.569 228.377 223.487 229.087 221.864C229.523 220.879 231.009 220.621 231.009 220.621C230.838 220.216 230.766 219.777 230.798 219.339C230.83 218.901 230.966 218.477 231.195 218.101C231.881 217.173 234.126 217.94 234.126 217.94C234.08 217.145 234.333 216.361 234.837 215.744C235.644 214.831 239.181 217.294 239.181 217.294L241.127 214.968L242.758 212.514Z" fill="#FFBE9D"/>
<path d="M237.97 224.941C236.711 224.405 235.509 223.742 234.385 222.963C233.186 222.301 232.06 221.517 231.025 220.621C232.284 221.162 233.485 221.828 234.611 222.608C235.806 223.27 236.931 224.052 237.97 224.941Z" fill="#EB996E"/>
<path d="M240.578 221.815C239.407 221.355 238.291 220.764 237.251 220.055C236.14 219.466 235.098 218.757 234.143 217.939C235.316 218.396 236.432 218.987 237.469 219.7C238.58 220.288 239.623 220.998 240.578 221.815Z" fill="#EB996E"/>
<path d="M237.025 215.97C237.09 215.849 238.422 216.551 239.973 217.536C240.934 218.091 241.859 218.706 242.742 219.377C242.686 219.515 241.297 218.885 239.747 217.891C238.774 217.348 237.862 216.704 237.025 215.97Z" fill="#EB996E"/>
<path d="M253.724 195.484C253.657 195.494 253.589 195.494 253.522 195.484H252.925H250.631L242.201 195.548L214.383 195.613H212.357C212.058 195.585 211.757 195.637 211.486 195.765C211.214 195.893 210.982 196.091 210.814 196.34C210.168 197.492 209.538 198.628 208.925 199.747L205.34 206.207L199.259 217.132C197.531 220.217 196.118 222.72 195.125 224.489C194.648 225.296 194.261 225.991 193.986 226.475L193.679 226.984L193.566 227.153C193.566 227.153 193.566 227.081 193.639 226.96L193.914 226.427L194.988 224.408L199.025 216.987L205.033 206.013C206.163 203.954 207.358 201.79 208.586 199.553L210.483 196.122C210.69 195.814 210.975 195.568 211.308 195.406C211.641 195.244 212.011 195.174 212.381 195.201H214.408L242.225 195.258L250.656 195.33L252.949 195.371H253.546C253.612 195.398 253.672 195.436 253.724 195.484Z" fill="#263238"/>
<path d="M223.847 210.301C223.651 210.585 223.541 210.919 223.53 211.263C223.519 211.608 223.608 211.949 223.786 212.244C223.964 212.539 224.223 212.777 224.533 212.929C224.842 213.081 225.189 213.14 225.532 213.1C225.874 213.06 226.198 212.921 226.464 212.702C226.729 212.482 226.926 212.19 227.031 211.862C227.135 211.533 227.142 211.181 227.052 210.849C226.961 210.516 226.776 210.216 226.52 209.986C226.122 209.676 225.619 209.535 225.119 209.594C224.618 209.653 224.161 209.907 223.847 210.301Z" fill="white"/>
<g opacity="0.3">
<path d="M105.955 198.924C105.599 199.069 105.188 199.312 105.188 199.731C105.2 199.888 105.266 200.035 105.373 200.149C105.48 200.263 105.622 200.338 105.777 200.361C106.369 200.277 106.949 200.123 107.505 199.901C111.873 198.94 115.467 199.861 119.617 201.516L119.755 201.379C118.107 197.802 110.654 197.01 105.955 198.924Z" fill="black"/>
</g>
<path d="M330.928 362.845C330.928 362.958 257.891 363.055 167.816 363.055C77.7412 363.055 4.7041 362.925 4.7041 362.845C4.7041 362.764 77.725 362.635 167.816 362.635C257.907 362.635 330.928 362.691 330.928 362.845Z" fill="#263238"/>
<path d="M83.3686 105.426C83.5059 105.563 110.322 96.3498 110.322 96.3498L99.9867 72.6904L76.1416 81.8392L89.2713 89.3812L83.3686 105.426Z" fill="#455A64"/>
<path d="M95.9492 79.8126V47.602C95.9492 47.602 132.94 40.8353 159.595 41.2391C186.25 41.6428 213.697 46.0113 213.697 46.0113V76.938C213.697 76.938 130.154 69.4768 95.9492 79.8126Z" fill="#455A64"/>
<path d="M95.7549 79.8444L110.29 96.4867V76.9375C110.29 76.9375 98.137 78.391 95.7549 79.8444Z" fill="#263238"/>
<path d="M95.9493 47.5938C96.0704 47.5938 96.1188 54.8611 96.0704 63.7435C96.0219 72.6258 95.8766 79.8932 95.7635 79.8932C95.6505 79.8932 95.594 72.6743 95.6424 63.7435C95.6909 54.8127 95.8281 47.5938 95.9493 47.5938Z" fill="#263238"/>
<path d="M226.213 102.954C226.075 103.092 199.259 93.8783 199.259 93.8783L209.57 70.2109L233.44 79.3436L220.302 86.8855L226.213 102.954Z" fill="#455A64"/>
<path d="M213.842 77.3737L199.308 94.016V75.8799C204.181 76.0467 209.037 76.5458 213.842 77.3737Z" fill="#263238"/>
<path d="M213.68 46.0107C213.794 46.0107 213.923 53.0278 213.963 61.6921C214.003 70.3564 213.963 77.3735 213.826 77.3735C213.689 77.3735 213.584 70.3564 213.543 61.6921C213.503 53.0278 213.559 46.0107 213.68 46.0107Z" fill="#263238"/>
<path d="M116.806 61.7251C116.73 60.7977 116.929 59.8685 117.378 59.0536C117.827 58.2387 118.507 57.5743 119.331 57.1434C120.156 56.7125 121.089 56.5343 122.015 56.6312C122.94 56.728 123.816 57.0954 124.534 57.6876L123.404 59.0442C123.099 58.7665 122.737 58.5595 122.344 58.438C121.95 58.3166 121.534 58.2837 121.126 58.3417C120.403 58.4424 119.748 58.8264 119.308 59.4095C118.867 59.9925 118.676 60.7267 118.777 61.4505C118.877 62.1744 119.261 62.8286 119.844 63.2693C120.427 63.7099 121.162 63.901 121.886 63.8003C122.296 63.7463 122.689 63.6007 123.036 63.3743C123.382 63.1479 123.674 62.8464 123.888 62.4922L125.309 63.4854C124.783 64.2514 124.042 64.845 123.18 65.192C122.317 65.5389 121.372 65.6237 120.461 65.4358C119.551 65.2479 118.716 64.7956 118.062 64.1355C117.408 63.4754 116.962 62.637 116.782 61.7251H116.806Z" fill="white"/>
<path d="M125.616 60.5143C125.465 59.582 125.599 58.6261 125.998 57.7703C126.397 56.9145 127.044 56.1982 127.855 55.7142C128.665 55.2303 129.603 55.0009 130.546 55.0558C131.488 55.1108 132.393 55.4474 133.142 56.0223C133.891 56.5971 134.451 57.3837 134.748 58.28C135.045 59.1764 135.066 60.1413 134.808 61.0498C134.551 61.9583 134.026 62.7686 133.303 63.3756C132.58 63.9827 131.691 64.3587 130.751 64.4548C130.153 64.5502 129.542 64.5227 128.954 64.3739C128.367 64.2251 127.816 63.9582 127.336 63.5894C126.855 63.2206 126.455 62.7577 126.159 62.229C125.863 61.7003 125.678 61.1168 125.616 60.5143ZM132.972 59.7552C132.906 59.2313 132.688 58.7383 132.344 58.3377C132 57.9371 131.546 57.6466 131.038 57.5026C130.53 57.3585 129.99 57.3672 129.487 57.5275C128.984 57.6879 128.54 57.9928 128.209 58.4042C127.878 58.8157 127.675 59.3155 127.626 59.8412C127.578 60.367 127.685 60.8955 127.935 61.3608C128.184 61.826 128.565 62.2075 129.03 62.4576C129.495 62.7077 130.024 62.8154 130.55 62.7671C130.912 62.7433 131.266 62.6444 131.588 62.4768C131.91 62.3091 132.195 62.0764 132.422 61.7932C132.65 61.5101 132.816 61.1827 132.911 60.8319C133.006 60.4811 133.026 60.1145 132.972 59.7552Z" fill="white"/>
<path d="M144.648 63.2025L144.301 58.0507L142.048 62.4596L141.16 62.5161L138.374 58.5433L138.705 63.582L136.84 63.7031L136.323 55.1196L137.938 55.0146L141.491 60.1421L144.309 54.6108L145.924 54.5059L146.506 63.0814L144.648 63.2025Z" fill="white"/>
<path d="M155.768 57.3242C155.816 59.246 154.411 60.4734 152.118 60.5541L150.382 60.6026L150.455 62.9766L148.46 63.0331L148.218 54.3849L151.94 54.28C154.242 54.2477 155.703 55.4024 155.768 57.3242ZM153.749 57.3807C153.749 56.4359 153.095 55.903 151.876 55.9353L150.261 55.9838L150.35 58.9714L151.965 58.923C153.176 58.8907 153.773 58.3174 153.749 57.3807Z" fill="white"/>
<path d="M157.318 54.1992H159.305V61.1759H163.617V62.7909H157.318V54.1992Z" fill="white"/>
<path d="M171.328 61.4266V63.0416L164.666 62.8478L164.916 54.248L171.376 54.4418L171.328 56.0568L166.806 55.9195L166.757 57.7929L170.746 57.906L170.698 59.4563L166.709 59.3352L166.652 61.3297L171.328 61.4266Z" fill="white"/>
<path d="M175.01 56.2423L172.265 56.0808L172.362 54.4658L179.839 54.918L179.742 56.533L176.997 56.3634L176.577 63.332L174.59 63.2109L175.01 56.2423Z" fill="white"/>
<path d="M187.082 62.6049L186.936 64.2199L180.299 63.6062L181.106 55.0469L187.566 55.6444L187.421 57.2594L182.915 56.8072L182.746 58.6725L186.718 59.0359L186.581 60.5782L182.6 60.2148L182.423 62.1931L187.082 62.6049Z" fill="white"/>
<path d="M189.569 55.8301L193.437 56.3469C196.223 56.7183 197.911 58.6482 197.571 61.1918C197.232 63.7354 195.084 65.2292 192.299 64.8255L188.431 64.3087L189.569 55.8301ZM192.42 63.2347C192.771 63.2911 193.13 63.2766 193.476 63.1918C193.822 63.1071 194.147 62.954 194.433 62.7415C194.718 62.529 194.958 62.2615 195.139 61.9546C195.319 61.6478 195.436 61.3079 195.483 60.9551C195.53 60.6022 195.506 60.2435 195.412 59.9002C195.318 59.5569 195.156 59.2358 194.936 58.9561C194.716 58.6763 194.442 58.4435 194.131 58.2713C193.819 58.0992 193.476 57.9912 193.122 57.9538L191.321 57.7115L190.619 62.9925L192.42 63.2347Z" fill="white"/>
<path d="M230.226 48.9422L232.341 51.4211L238.3 48.9422L236.556 46.334L230.226 48.9422Z" fill="#455A64"/>
<path d="M227.497 37.1447C227.497 37.758 227.316 38.3575 226.975 38.8674C226.634 39.3773 226.15 39.7747 225.583 40.0094C225.017 40.2441 224.393 40.3055 223.792 40.1859C223.19 40.0662 222.638 39.7709 222.204 39.3372C221.77 38.9036 221.475 38.3511 221.355 37.7496C221.236 37.1481 221.297 36.5247 221.532 35.9581C221.767 35.3915 222.164 34.9072 222.674 34.5665C223.184 34.2258 223.783 34.0439 224.397 34.0439C225.218 34.0461 226.006 34.3735 226.587 34.9545C227.168 35.5355 227.495 36.323 227.497 37.1447Z" fill="#442D87"/>
<path d="M158.037 83.3975C158.036 83.7048 157.943 84.0047 157.77 84.2591C157.598 84.5135 157.354 84.7109 157.069 84.8262C156.784 84.9416 156.471 84.9697 156.17 84.907C155.87 84.8443 155.594 84.6935 155.379 84.474C155.164 84.2544 155.019 83.9759 154.963 83.6738C154.906 83.3717 154.941 83.0597 155.062 82.7773C155.184 82.4949 155.386 82.255 155.644 82.0879C155.902 81.9209 156.204 81.8343 156.511 81.8391C156.919 81.8454 157.309 82.0127 157.595 82.3045C157.88 82.5963 158.039 82.9891 158.037 83.3975Z" fill="#442D87"/>
<path d="M85.8071 60.0931C85.8071 60.327 85.7375 60.5555 85.6072 60.7497C85.4769 60.9439 85.2919 61.095 85.0755 61.1837C84.8591 61.2725 84.6213 61.2949 84.3921 61.2481C84.163 61.2012 83.953 61.0873 83.7888 60.9208C83.6246 60.7544 83.5136 60.5428 83.4699 60.313C83.4263 60.0833 83.452 59.8458 83.5437 59.6306C83.6354 59.4155 83.789 59.2325 83.985 59.105C84.181 58.9774 84.4105 58.911 84.6443 58.9142C84.9542 58.9184 85.2499 59.0445 85.4675 59.2651C85.6851 59.4858 85.8071 59.7832 85.8071 60.0931Z" fill="#442D87"/>
<path d="M81.4307 47.1165L84.9029 47.3264L86.5501 40.4951L83.304 40.6324L81.4307 47.1165Z" fill="#455A64"/>
<path d="M189.957 101.647L191.128 104.925L198.056 103.762L196.659 100.831L189.957 101.647Z" fill="#442D87"/>
<path d="M119.883 82.7275L117.743 85.473L122.435 90.6974L124.163 87.9439L119.883 82.7275Z" fill="#455A64"/>
<path d="M111.59 18.2334L119.786 26.5909L131.325 22.2305L131.785 25.097L126.787 35.3279L131.398 42.9667L131.01 45.2519L119.842 43.3704L113.237 50.6136L111.687 49.4427L110.322 40.2293L99.9056 34.803L99.4453 32.6955L109.935 29.8289L111.59 18.2334Z" fill="#442D87"/>
<g opacity="0.3">
<path d="M111.59 18.2334L119.786 26.5909L131.325 22.2305L131.785 25.097L126.787 35.3279L131.398 42.9667L131.01 45.2519L119.842 43.3704L113.237 50.6136L111.687 49.4427L110.322 40.2293L99.9056 34.803L99.4453 32.6955L109.935 29.8289L111.59 18.2334Z" fill="black"/>
</g>
<path d="M111.59 15.8838L119.786 24.2493L131.325 22.2306L125.907 32.6149L131.398 42.9669L119.842 41.0289L111.687 49.4429L109.967 37.8555L99.4453 32.6956L109.935 27.4793L111.59 15.8838Z" fill="#442D87"/>
<path d="M196.577 18.2334L188.373 26.5909L176.834 22.2305L176.374 25.097L181.372 35.3279L176.762 42.9667L177.149 45.2519L188.317 43.3704L194.922 50.6136L196.472 49.4427L197.837 40.2293L208.254 34.803L208.714 32.6955L198.225 29.8289L196.577 18.2334Z" fill="#442D87"/>
<g opacity="0.3">
<path d="M196.577 18.2334L188.373 26.5909L176.834 22.2305L176.374 25.097L181.372 35.3279L176.762 42.9667L177.149 45.2519L188.317 43.3704L194.922 50.6136L196.472 49.4427L197.837 40.2293L208.254 34.803L208.714 32.6955L198.225 29.8289L196.577 18.2334Z" fill="black"/>
</g>
<path d="M196.577 15.8838L188.373 24.2493L176.834 22.2306L182.253 32.6149L176.762 42.9669L188.317 41.0289L196.472 49.4429L198.192 37.8555L208.714 32.6956L198.225 27.4793L196.577 15.8838Z" fill="#442D87"/>
<path d="M153.814 3.56152L160.637 16.8931L176.375 15.9645L175.842 19.6305L165.845 30.2166L168.55 41.2873L167.218 43.9277L154.306 37.379L143.494 43.7097L142.049 41.6829L143.89 29.9179L133.247 19.3317L133.489 16.5943L147.378 17.0869L153.814 3.56152Z" fill="#442D87"/>
<g opacity="0.3">
<path d="M153.814 3.5625L160.637 16.8941L176.375 15.9655L175.842 19.6315L165.845 30.2176L168.55 41.2882L167.218 43.9287L154.306 37.38L143.494 43.7107L142.049 41.6839L143.89 29.9188L133.247 19.3327L133.489 16.5953L147.378 17.0879L153.814 3.5625Z" fill="black"/>
</g>
<path d="M154.702 0.703125L161.525 14.0266L176.375 15.9646L165.805 26.575L168.55 41.2874L155.203 34.5206L142.049 41.683L144.366 26.8899L133.489 16.5944L148.274 14.2204L154.702 0.703125Z" fill="#442D87"/>
<path d="M181.891 120.3L193.292 121.559C197.142 116.11 202.89 112.297 209.408 110.87C215.925 109.444 222.741 110.506 228.515 113.849C234.289 117.192 238.604 122.574 240.612 128.937C242.62 135.299 242.175 142.183 239.366 148.234C236.556 154.286 231.585 159.068 225.429 161.641C219.273 164.213 212.377 164.391 206.097 162.137C199.817 159.884 194.607 155.364 191.49 149.464C188.374 143.565 187.576 136.713 189.255 130.256L181.891 120.3Z" fill="#FAFAFA"/>
<path d="M181.891 120.3C182.335 120.897 184.644 123.949 189.36 130.207H189.19C189.196 130.194 189.205 130.182 189.216 130.173C189.226 130.163 189.239 130.156 189.253 130.153C189.267 130.149 189.282 130.148 189.296 130.15C189.31 130.153 189.324 130.159 189.336 130.167C189.355 130.178 189.369 130.195 189.378 130.216C189.387 130.236 189.389 130.259 189.384 130.28C188.228 134.81 188.29 139.565 189.562 144.064C189.935 145.414 190.43 146.727 191.039 147.988C191.362 148.634 191.669 149.296 192.017 149.951L193.22 151.864C197.062 157.434 202.874 161.338 209.482 162.79C213.141 163.594 216.928 163.61 220.593 162.838C224.457 161.997 228.088 160.315 231.228 157.912C234.517 155.415 237.161 152.167 238.939 148.441C240.781 144.651 241.689 140.476 241.588 136.264C241.47 132.234 240.449 128.283 238.6 124.7C236.861 121.305 234.397 118.333 231.381 115.996C225.95 111.797 219.114 109.844 212.284 110.537C209.399 110.883 206.581 111.662 203.927 112.847C199.704 114.798 196.065 117.822 193.373 121.616C193.365 121.631 193.351 121.644 193.335 121.651C193.319 121.658 193.301 121.66 193.284 121.656L181.891 120.3L193.308 121.454L193.212 121.503C195.895 117.657 199.551 114.592 203.806 112.62C206.473 111.391 209.314 110.58 212.228 110.214C219.151 109.481 226.091 111.442 231.608 115.689C234.675 118.054 237.181 121.068 238.948 124.515C240.836 128.148 241.876 132.162 241.992 136.256C242.098 140.534 241.179 144.776 239.311 148.626C237.501 152.411 234.812 155.708 231.47 158.243C228.279 160.68 224.59 162.383 220.666 163.234C216.936 164.018 213.081 163.993 209.361 163.161C202.682 161.689 196.813 157.731 192.945 152.09L191.734 150.152C191.387 149.49 191.08 148.812 190.749 148.158C190.141 146.88 189.649 145.551 189.279 144.185C188.013 139.638 187.979 134.836 189.182 130.272L189.376 130.345C189.361 130.368 189.338 130.385 189.311 130.393C189.284 130.4 189.256 130.397 189.231 130.385L181.891 120.3Z" fill="#263238"/>
<path d="M205.283 127.413C205.292 127.537 205.292 127.661 205.283 127.784C205.283 128.051 205.283 128.39 205.283 128.818C205.283 129.755 205.283 131.055 205.332 132.702C205.332 136.053 205.388 140.777 205.428 146.429L205.243 146.244H224.243C224.291 146.195 223.847 146.639 224.033 146.445V143.861C224.033 143.014 224.033 142.166 224.033 141.326V136.408C224.033 133.227 224.033 130.215 224.033 127.445L224.211 127.631L210.483 127.534L206.599 127.494H205.566H205.194H205.525H206.527L210.362 127.445L224.194 127.356H224.38V127.534C224.38 130.304 224.38 133.316 224.38 136.497V146.437C224.574 146.252 224.13 146.704 224.17 146.655H205.17H204.984V146.437C204.984 140.736 205.049 135.98 205.073 132.605C205.073 130.99 205.073 129.682 205.122 128.761C205.122 128.35 205.122 128.019 205.122 127.76C205.16 127.638 205.214 127.521 205.283 127.413Z" fill="#263238"/>
<path d="M222.232 130.554C222.507 130.772 219.955 134.454 216.523 138.783C215.845 139.647 215.175 140.47 214.553 141.205L214.149 141.698L213.697 141.286C210.726 138.613 208.715 136.562 208.893 136.352C209.07 136.142 211.404 137.838 214.481 140.39L213.617 140.47C214.206 139.663 214.852 138.855 215.538 137.999C218.962 133.671 221.966 130.344 222.232 130.554Z" fill="#442D87"/>
</svg>
