<svg width="339" height="254" viewBox="0 0 339 254" fill="none" xmlns="http://www.w3.org/2000/svg">
<path d="M77.5951 133.062C76.0021 112.842 36.7809 79.6738 50.5822 62.8356C67.7322 41.9167 132.929 71.614 162.098 65.8996C193.374 59.7988 247.787 2.85818 275.301 16.0969C307.961 31.8505 263.357 108.063 267.933 139.841C270.502 157.703 301.826 197.297 287.679 211.017C265.242 232.708 196.33 197.392 162.667 199.798C136.522 201.669 75.8666 235.928 57.7608 220.215C39.0246 203.947 79.3915 155.927 77.5951 133.062Z" fill="#442D87"/>
<path opacity="0.9" d="M77.5951 133.062C76.0021 112.842 36.7809 79.6738 50.5822 62.8356C67.7322 41.9167 132.929 71.614 162.098 65.8996C193.374 59.7988 247.787 2.85818 275.301 16.0969C307.961 31.8505 263.357 108.063 267.933 139.841C270.502 157.703 301.826 197.297 287.679 211.017C265.242 232.708 196.33 197.392 162.667 199.798C136.522 201.669 75.8666 235.928 57.7608 220.215C39.0246 203.947 79.3915 155.927 77.5951 133.062Z" fill="white"/>
<path d="M169.5 253.134C242.087 253.134 300.931 249.698 300.931 245.461C300.931 241.223 242.087 237.787 169.5 237.787C96.9126 237.787 38.0688 241.223 38.0688 245.461C38.0688 249.698 96.9126 253.134 169.5 253.134Z" fill="#F5F5F5"/>
<path d="M301.392 17.2695V166.562L283.429 184.526H179.438V17.2695H301.392Z" fill="#442D87"/>
<path opacity="0.8" d="M301.392 17.2695V166.562L283.429 184.526H179.438V17.2695H301.392Z" fill="white"/>
<path opacity="0.2" d="M283.429 184.526V167.092H301.392L283.781 184.703" fill="black"/>
<path opacity="0.1" d="M225.587 31.7696H191.951C191.478 31.7696 191.025 31.5818 190.69 31.2474C190.356 30.9131 190.168 30.4597 190.168 29.9868C190.167 29.7521 190.213 29.5196 190.302 29.3025C190.391 29.0854 190.522 28.8881 190.688 28.7218C190.854 28.5556 191.05 28.4236 191.267 28.3336C191.484 28.2436 191.716 28.1973 191.951 28.1973H225.587C226.06 28.1991 226.513 28.3884 226.848 28.7238C227.182 29.0592 227.369 29.5134 227.369 29.9868C227.369 30.4597 227.181 30.9131 226.847 31.2474C226.513 31.5818 226.059 31.7696 225.587 31.7696Z" fill="black"/>
<path opacity="0.1" d="M286.594 46.2345H205.508C205.273 46.2345 205.041 46.1881 204.824 46.0981C204.608 46.0081 204.411 45.8762 204.245 45.7099C204.08 45.5436 203.948 45.3463 203.859 45.1292C203.77 44.9121 203.724 44.6796 203.725 44.4449C203.725 43.9721 203.913 43.5186 204.248 43.1843C204.582 42.8499 205.035 42.6621 205.508 42.6621H286.594C287.067 42.6621 287.521 42.8499 287.855 43.1843C288.189 43.5186 288.377 43.9721 288.377 44.4449C288.377 44.9183 288.19 45.3725 287.855 45.7079C287.521 46.0433 287.068 46.2327 286.594 46.2345Z" fill="black"/>
<path opacity="0.1" d="M286.594 53.2638H191.951C191.478 53.2638 191.025 53.0759 190.69 52.7416C190.356 52.4073 190.168 51.9538 190.168 51.481C190.167 51.2463 190.213 51.0137 190.302 50.7966C190.391 50.5796 190.522 50.3822 190.688 50.216C190.854 50.0497 191.05 49.9178 191.267 49.8278C191.484 49.7377 191.716 49.6914 191.951 49.6914H286.594C287.068 49.6932 287.521 49.8825 287.855 50.2179C288.19 50.5534 288.377 51.0075 288.377 51.481C288.377 51.9538 288.189 52.4073 287.855 52.7416C287.521 53.0759 287.067 53.2638 286.594 53.2638Z" fill="black"/>
<path opacity="0.1" d="M286.594 61.2091H191.951C191.716 61.2091 191.484 61.1627 191.267 61.0727C191.05 60.9827 190.854 60.8508 190.688 60.6845C190.522 60.5182 190.391 60.3209 190.302 60.1038C190.213 59.8867 190.167 59.6542 190.168 59.4195C190.168 58.9467 190.356 58.4932 190.69 58.1589C191.025 57.8245 191.478 57.6367 191.951 57.6367H286.594C287.067 57.6367 287.521 57.8245 287.855 58.1589C288.189 58.4932 288.377 58.9467 288.377 59.4195C288.377 59.8929 288.19 60.3471 287.855 60.6825C287.521 61.0179 287.068 61.2073 286.594 61.2091Z" fill="black"/>
<path opacity="0.1" d="M286.594 69.1456H191.951C191.478 69.1456 191.025 68.9578 190.69 68.6235C190.356 68.2891 190.168 67.8357 190.168 67.3629C190.168 66.89 190.356 66.4366 190.69 66.1022C191.025 65.7679 191.478 65.5801 191.951 65.5801H286.594C287.067 65.5801 287.521 65.7679 287.855 66.1022C288.189 66.4366 288.377 66.89 288.377 67.3629C288.377 67.8357 288.189 68.2891 287.855 68.6235C287.521 68.9578 287.067 69.1456 286.594 69.1456Z" fill="black"/>
<path opacity="0.1" d="M286.594 77.091H191.951C191.478 77.091 191.025 76.9031 190.69 76.5688C190.356 76.2345 190.168 75.781 190.168 75.3082C190.167 75.0738 190.213 74.8416 190.302 74.6249C190.391 74.4082 190.523 74.2113 190.688 74.0456C190.854 73.8798 191.051 73.7486 191.268 73.6593C191.484 73.57 191.717 73.5245 191.951 73.5254H286.594C287.067 73.5254 287.521 73.7132 287.855 74.0476C288.189 74.3819 288.377 74.8354 288.377 75.3082C288.377 75.781 288.189 76.2345 287.855 76.5688C287.521 76.9031 287.067 77.091 286.594 77.091Z" fill="black"/>
<path opacity="0.1" d="M286.594 85.0352H191.951C191.478 85.0352 191.025 84.8474 190.69 84.5131C190.356 84.1787 190.168 83.7253 190.168 83.2525C190.167 83.0178 190.213 82.7852 190.302 82.5681C190.391 82.3511 190.522 82.1537 190.688 81.9875C190.854 81.8212 191.05 81.6893 191.267 81.5992C191.484 81.5092 191.716 81.4629 191.951 81.4629H286.594C287.068 81.4647 287.521 81.654 287.855 81.9894C288.19 82.3248 288.377 82.779 288.377 83.2525C288.377 83.7253 288.189 84.1787 287.855 84.5131C287.521 84.8474 287.067 85.0352 286.594 85.0352Z" fill="black"/>
<path opacity="0.1" d="M286.601 89.4082H191.951C190.966 89.4082 190.168 90.2064 190.168 91.191V91.1978C190.168 92.1824 190.966 92.9806 191.951 92.9806H286.601C287.586 92.9806 288.384 92.1824 288.384 91.1978V91.191C288.384 90.2064 287.586 89.4082 286.601 89.4082Z" fill="black"/>
<path opacity="0.1" d="M286.594 100.911H191.951C191.478 100.911 191.025 100.723 190.69 100.389C190.356 100.055 190.168 99.6013 190.168 99.1285C190.168 98.6557 190.356 98.2022 190.69 97.8679C191.025 97.5335 191.478 97.3457 191.951 97.3457H286.594C287.067 97.3457 287.521 97.5335 287.855 97.8679C288.189 98.2022 288.377 98.6557 288.377 99.1285C288.377 99.6013 288.189 100.055 287.855 100.389C287.521 100.723 287.067 100.911 286.594 100.911Z" fill="black"/>
<path opacity="0.1" d="M286.594 108.862H191.951C191.478 108.862 191.025 108.675 190.69 108.34C190.356 108.006 190.168 107.552 190.168 107.08C190.167 106.845 190.213 106.613 190.302 106.396C190.391 106.18 190.523 105.983 190.688 105.817C190.854 105.651 191.051 105.52 191.268 105.431C191.484 105.341 191.717 105.296 191.951 105.297H286.594C287.067 105.297 287.521 105.485 287.855 105.819C288.189 106.153 288.377 106.607 288.377 107.08C288.377 107.552 288.189 108.006 287.855 108.34C287.521 108.675 287.067 108.862 286.594 108.862Z" fill="black"/>
<path opacity="0.1" d="M286.594 116.807H191.951C191.478 116.807 191.025 116.619 190.69 116.285C190.356 115.95 190.168 115.497 190.168 115.024C190.167 114.789 190.213 114.557 190.302 114.34C190.391 114.123 190.522 113.925 190.688 113.759C190.854 113.593 191.05 113.461 191.267 113.371C191.484 113.281 191.716 113.234 191.951 113.234H286.594C287.068 113.236 287.521 113.426 287.855 113.761C288.19 114.096 288.377 114.55 288.377 115.024C288.377 115.497 288.189 115.95 287.855 116.285C287.521 116.619 287.067 116.807 286.594 116.807Z" fill="black"/>
<path opacity="0.1" d="M286.594 124.752H191.951C191.716 124.752 191.484 124.706 191.267 124.616C191.05 124.526 190.854 124.394 190.688 124.227C190.522 124.061 190.391 123.864 190.302 123.647C190.213 123.43 190.167 123.197 190.168 122.962C190.168 122.49 190.356 122.036 190.69 121.702C191.025 121.368 191.478 121.18 191.951 121.18H286.594C287.067 121.18 287.521 121.368 287.855 121.702C288.189 122.036 288.377 122.49 288.377 122.962C288.377 123.436 288.19 123.89 287.855 124.225C287.521 124.561 287.068 124.75 286.594 124.752Z" fill="black"/>
<path opacity="0.1" d="M232.365 132.689H191.951C191.478 132.689 191.025 132.501 190.69 132.166C190.356 131.832 190.168 131.379 190.168 130.906C190.168 130.433 190.356 129.98 190.69 129.645C191.025 129.311 191.478 129.123 191.951 129.123H232.365C232.838 129.123 233.291 129.311 233.626 129.645C233.96 129.98 234.148 130.433 234.148 130.906C234.148 131.379 233.96 131.832 233.626 132.166C233.291 132.501 232.838 132.689 232.365 132.689Z" fill="black"/>
<path d="M279.314 53.8543L279.185 53.7459C278.819 53.4679 278.609 53.5628 278.44 53.0273C278.318 52.6409 278.44 52.2071 278.297 51.8072C277.974 51.1187 277.605 50.4529 277.192 49.8142L275.525 46.8113C275.152 46.1463 274.532 45.656 273.799 45.4477C273.066 45.2393 272.28 45.3299 271.614 45.6996L256.26 54.2543C256.199 54.7694 255.772 55.1219 255.684 55.61C255.653 55.7542 255.661 55.9038 255.706 56.0441C255.752 56.1844 255.833 56.3105 255.941 56.4099C255.769 56.4065 255.602 56.347 255.467 56.2404C254.552 55.732 254.308 55.3253 253.365 55.8405C252.959 56.0574 252.559 56.2878 252.159 56.5183L248.092 58.7892L235.348 65.8864L220.435 74.2106L208.01 81.1316C206.315 82.0738 204.261 82.9008 202.749 84.1006C203.17 84.3175 203.244 84.6497 202.871 84.9751L202.193 85.5919C202.193 85.7614 202.437 85.7614 202.593 85.6936L203.434 85.3343C202.85 86.0758 202.147 86.715 201.353 87.2256C200.02 87.9994 198.588 88.5878 197.096 88.9745L197.814 88.0729C197.869 87.9983 197.936 87.9034 197.889 87.8153C197.842 87.7272 197.753 87.7204 197.672 87.7136C197.313 87.673 196.954 87.7136 196.689 87.4493C194.371 88.805 191.944 90.093 189.585 91.408C188.92 91.7803 188.43 92.401 188.221 93.1341C188.013 93.8671 188.104 94.6529 188.473 95.3193L203.956 123.112C204.139 123.441 204.385 123.732 204.681 123.966C204.976 124.2 205.315 124.374 205.678 124.478C206.04 124.581 206.42 124.612 206.794 124.568C207.169 124.524 207.531 124.407 207.86 124.223L211.934 121.925C211.934 121.444 212.314 120.909 212.029 120.468C211.989 120.415 211.963 120.351 211.955 120.285C211.955 120.197 212.036 120.129 212.111 120.082C212.528 119.817 213.006 119.663 213.5 119.634C213.67 119.634 213.893 119.709 213.866 119.872C213.866 119.722 214.741 119.411 214.883 119.363C214.951 119.729 214.7 120.122 215.127 120.197C215.554 120.271 216.205 119.519 216.483 119.383L220.55 117.113L233.429 109.948L247.556 102.078L256.945 96.8445C257.283 96.6479 257.683 96.4174 258.009 96.2547C258.126 95.6331 258.429 95.0614 258.876 94.6143C259.554 94.1466 260.625 94.6618 261.188 93.9975C261.296 93.8687 261.364 93.7127 261.459 93.5772C261.649 93.3567 261.879 93.1749 262.137 93.0417C262.301 92.913 262.499 92.8352 262.706 92.818C262.91 92.818 263.127 92.9874 263.1 93.1908C264.496 92.8654 265.757 91.9232 266.991 91.225C267.438 90.9742 271.363 89.1304 271.349 88.8389C271.295 87.9373 271.844 87.1646 271.817 86.2359C271.817 86.0597 271.471 84.8802 271.627 84.7921C268.102 86.8934 264.442 88.805 260.849 90.7979C260.727 90.8725 260.266 91.0284 260.171 91.164C260.171 91.164 260.137 91.225 260.124 91.2589L260.022 91.4826V91.5368C259.876 91.9981 259.704 92.4508 259.507 92.8925C259.507 92.9535 258.741 93.9026 258.68 93.6789C258.382 92.5875 258.002 92.418 257.168 92.8654L255.975 93.5433L252.186 95.6514L239.422 102.769L224.38 111.147L211.846 118.129L206.593 121.051C205.544 119.153 204.489 117.257 203.427 115.364L201.394 111.71C201.188 111.204 200.884 110.743 200.499 110.354C200.207 110.137 199.712 110.192 199.455 109.995C198.824 109.514 198.37 108.639 197.774 108.077C197.367 107.697 196.75 106.558 196.92 105.928C197.123 106.009 197.326 106.097 197.53 106.158C197.423 105.741 197.447 105.301 197.598 104.898C195.564 101.474 193.693 97.8952 191.748 94.3974L191.619 94.1737L196.364 91.53L199.828 89.5981C200.54 89.2919 201.221 88.9173 201.861 88.4796C202.302 88.1 202.749 87.6255 203.217 87.2188C203.531 86.9801 203.872 86.7798 204.234 86.6223L205.515 85.9986C205.581 85.9591 205.655 85.9358 205.732 85.9309C205.808 85.9392 205.884 85.9575 205.956 85.9851C206.633 86.1274 208.315 84.8734 208.925 84.5345L212.87 82.3382L224.773 75.7019L239.605 67.4455L254.45 59.1688L266.394 52.5189L272.495 49.1296L272.779 48.9737L279.375 60.816C279.783 61.6142 280.437 62.2605 281.239 62.6598C281.51 62.7479 281.815 62.9377 281.782 63.2156C281.748 63.4935 281.341 63.724 281.436 64.0087C281.531 64.2934 282.053 64.185 282.175 64.4426C282.297 64.7001 281.965 65.1204 282.005 65.4729C282.145 65.8949 282.354 66.2911 282.622 66.6456L284.54 70.0959C285.611 72.0075 286.676 73.9259 287.754 75.8578L276.026 82.3924C276.084 82.4392 276.133 82.4967 276.169 82.5619L276.23 82.7178C276.463 82.8003 276.689 82.9 276.908 83.0161C277.001 83.0683 277.078 83.1453 277.131 83.2385C277.184 83.3318 277.21 83.4378 277.206 83.5448C277.204 83.6506 277.175 83.7541 277.12 83.8446C277.065 83.9351 276.987 84.0095 276.894 84.06L276.176 84.4667C276.15 84.6239 276.077 84.7696 275.967 84.8846C275.857 84.9996 275.715 85.0784 275.559 85.1106C275.475 85.1176 275.391 85.1176 275.308 85.1106C275.237 85.1629 275.155 85.1991 275.068 85.2166C274.982 85.2342 274.892 85.2327 274.806 85.2123C274.653 85.1651 274.524 85.0605 274.445 84.9204C274.367 84.7802 274.346 84.6153 274.386 84.4599C274.414 84.3902 274.45 84.3241 274.494 84.2633C274.443 84.1645 274.42 84.0536 274.427 83.9424C274.434 83.8313 274.471 83.7243 274.535 83.6329H274.318C274.196 83.6329 274.088 83.5651 273.973 83.5312C273.363 83.9078 272.888 84.4678 272.617 85.131C272.587 85.1672 272.573 85.2132 272.576 85.2598C272.576 85.3547 272.725 85.3615 272.813 85.4021C273.017 85.497 272.969 85.7953 272.868 85.9919C272.766 86.1885 272.644 86.4393 272.779 86.6155C272.831 86.6748 272.888 86.7293 272.949 86.7782C273.24 87.1103 272.793 88.0729 273.505 87.6798C273.455 87.4704 273.486 87.2499 273.593 87.0629C273.713 86.8742 273.899 86.7366 274.115 86.6765C274.642 86.5486 275.18 86.4715 275.721 86.446L289.855 78.5421C290.52 78.1698 291.01 77.5492 291.219 76.8161C291.427 76.083 291.336 75.2973 290.967 74.6309L290.885 74.4885L284.5 63.0258L280.812 56.3963C280.453 55.7659 280.134 55.1084 279.741 54.4847C279.633 54.2533 279.489 54.0405 279.314 53.8543Z" fill="#442D87"/>
<path d="M214.009 91.3055C213.541 90.736 213.683 90.7225 213.595 90.1124C213.595 90.1124 213.595 90.1124 213.595 90.0717L213.541 90.0107L213.46 89.9158C213.141 90.0582 212.822 90.2141 212.504 90.3903L206.261 93.8678L208.775 98.3756C208.423 97.7519 209.67 97.935 209.718 97.9282C209.85 97.8892 209.987 97.8664 210.124 97.8604C210.26 97.8892 210.379 97.9694 210.457 98.0841C210.717 98.54 210.795 99.078 210.674 99.589C210.599 100.267 210.958 100.945 210.572 101.623C210.904 102.165 213.907 107.628 213.92 107.622L220.164 104.144C220.523 103.941 221.377 103.582 221.587 103.222C221.797 102.863 221.465 102.3 221.838 102.131C221.978 102.079 222.129 102.06 222.278 102.074C222.427 102.088 222.57 102.135 222.699 102.212C223.888 101.035 224.652 99.4961 224.872 97.8373C225.091 96.1785 224.754 94.4937 223.912 93.0476C222.157 89.8955 218.171 88.0178 214.68 89.482C214.436 89.5837 214.761 90.675 214.178 90.7971C214.289 90.5785 214.449 90.3883 214.646 90.2412M218.537 101.589L215.629 103.209C215.391 102.782 215.161 102.355 214.917 101.941C215.222 102.456 214.381 102.294 214.205 102.178C213.778 101.894 213.663 101.073 213.649 100.613C213.639 99.8221 213.404 99.0509 212.971 98.3891C212.289 97.1554 211.611 95.9217 210.938 94.688L213.846 93.0679C216.557 91.5495 219.269 92.1799 220.733 94.81C222.197 97.4401 221.269 100.091 218.537 101.589Z" fill="#442D87"/>
<path d="M234.65 79.7621C234.798 80.0841 234.841 80.4447 234.772 80.7924C234.738 80.9822 234.433 81.4703 234.473 81.5923C234.582 81.8634 234.69 82.1346 234.792 82.4057C234.81 82.4501 234.835 82.4913 234.866 82.5278C234.919 82.5628 234.98 82.5817 235.043 82.582C236.121 82.6769 236.073 82.7853 236.141 83.6937C236.202 84.4732 236.873 84.9206 237.253 85.5985C237.762 86.4891 237.984 87.5158 237.887 88.5374C237.79 89.559 237.378 90.5254 236.71 91.304C236.041 92.0825 235.148 92.6349 234.153 92.8853C233.158 93.1358 232.109 93.0719 231.152 92.7025C231.126 92.7271 231.099 92.7497 231.07 92.7703C230.928 92.842 230.765 92.8612 230.609 92.8245C230.257 92.7247 229.938 92.5316 229.686 92.2655C229.435 91.9994 229.259 91.6703 229.179 91.3129C229.169 91.2591 229.169 91.204 229.179 91.1502C228.987 90.9128 228.817 90.6587 228.671 90.391C228.322 89.8309 228.094 89.2049 227.998 88.5522C227.903 87.8995 227.944 87.2342 228.117 86.5979C228.291 85.9616 228.594 85.368 229.008 84.8543C229.421 84.3406 229.937 83.9178 230.521 83.6123C231.369 83.1289 232.341 82.9071 233.314 82.9751L233.26 82.8938C232.677 82.121 234.778 81.8092 233.829 81.2873C233.429 81.0703 233.497 80.0874 233.396 79.6875C231.856 79.7223 230.349 80.1392 229.01 80.9009C224.671 83.3208 223.173 88.1134 225.451 92.2009C226.409 93.9594 227.994 95.2928 229.891 95.9359C230.337 96.1301 230.815 96.2404 231.301 96.2613C231.857 96.2138 231.586 96.2613 231.823 95.9291C232.06 95.597 231.918 95.4546 232.277 95.1021C232.636 94.7496 233.057 94.5395 233.131 93.9972C233.131 94.2413 233.402 94.4175 233.402 94.6751C233.402 94.7497 233.402 94.8242 233.402 94.892C233.417 94.9806 233.457 95.0631 233.518 95.1293C233.748 95.4411 234.134 95.8071 234.141 96.1664C235.133 96.0019 236.085 95.6524 236.948 95.136C241.266 92.7296 242.798 87.9439 240.506 83.8428C239.32 81.7482 237.09 79.8976 234.65 79.7621Z" fill="#442D87"/>
<path d="M248.512 70.3268L253.162 78.6713L241.679 74.1296L239.049 75.6006C240.825 78.7865 242.709 81.9386 244.377 85.1856C244.492 84.8331 244.763 84.7653 245.089 84.7179C245.699 84.6365 245.678 84.9416 246.011 85.5449C246.051 85.6194 246.099 85.694 246.173 85.7075C246.248 85.7211 246.397 85.5991 246.519 85.6126C246.641 85.6262 246.688 85.7753 246.655 85.8906C246.612 86.0035 246.555 86.1105 246.485 86.2092C246.289 86.582 246.614 86.8192 246.573 87.1582C246.573 87.3344 245.983 88.053 246.051 88.175L246.729 89.3409L249.874 87.592L249.034 86.0871H248.878C247.963 86.2092 248.37 85.0093 248.166 84.5145C247.837 83.8135 247.463 83.1343 247.048 82.4809L245.197 79.2204L254.531 82.8944C254.507 82.6263 254.54 82.3561 254.626 82.1013C254.701 81.9589 255.304 81.6946 255.304 81.559C255.339 81.9962 255.543 82.4024 255.874 82.691C256.233 83.0096 256.233 82.9622 256.165 83.5248L256.721 83.7485L259.337 82.2911L251.678 68.5508L248.512 70.3268Z" fill="#442D87"/>
<path d="M264.313 76.1888L262.537 73.0096L268.922 69.4508L267.567 66.9766L261.188 70.5354L259.527 67.546L263.838 65.1464C264.021 64.9115 264.252 64.7195 264.516 64.5837C264.65 64.515 264.805 64.498 264.95 64.5363L266.774 63.5263C266.774 63.5263 265.479 61.2147 265.357 60.9707C264.733 61.2554 265.357 62.0417 264.726 62.4213C264.855 62.5569 265.045 63.0382 264.726 63.0992C264.543 63.0992 264.408 62.8687 264.225 62.8891C264.042 62.9094 264.035 62.9975 263.94 62.9704C263.911 62.9623 263.885 62.9477 263.862 62.9277C263.84 62.9077 263.823 62.8829 263.811 62.8552C263.724 62.6507 263.612 62.4573 263.479 62.279C263.052 61.8655 259.154 64.4617 258.612 64.7667L254.986 66.8003L262.639 80.5406L265.696 78.8392L265.757 78.7579C265.98 78.4732 266.197 78.1817 266.435 77.9173C266.531 77.8257 266.654 77.7677 266.786 77.7518C266.918 77.7359 267.051 77.7631 267.167 77.8292C267.221 77.8577 267.27 77.8969 267.309 77.9444L273.281 74.6161L271.858 72.0606L264.313 76.1888Z" fill="#442D87"/>
<path d="M272.468 222.391C272.468 222.391 268.007 212.671 273.098 203.079C278.189 193.487 279.673 191.23 276.426 189.271C273.179 187.312 271.681 196.938 271.681 196.938C271.681 196.938 268.97 190.308 271.2 183.38C273.43 176.452 274.881 165.146 271.797 163.932C268.712 162.719 271.207 178.025 268.529 183.245C267.164 179.581 266.282 175.755 265.906 171.863C265.54 166.291 266.116 157.398 263.676 155.113C261.235 152.829 259.683 154.435 262.076 166.705C263.514 174.053 264.31 181.513 264.455 189C264.455 189 259.161 172.867 255.643 172.399C252.125 171.931 252.098 177.144 255.141 181.679C258.185 186.214 264.015 194.321 264.97 198.524C264.97 198.524 259.168 186.39 253.942 190.105C248.715 193.819 258.49 201.161 262.842 203.811C267.194 206.462 270.224 223.062 270.224 223.062L272.468 222.391Z" fill="#442D87"/>
<path opacity="0.2" d="M272.468 222.391C272.468 222.391 268.007 212.671 273.098 203.079C278.189 193.487 279.673 191.23 276.426 189.271C273.179 187.312 271.681 196.938 271.681 196.938C271.681 196.938 268.97 190.308 271.2 183.38C273.43 176.452 274.881 165.146 271.797 163.932C268.712 162.719 271.207 178.025 268.529 183.245C267.164 179.581 266.282 175.755 265.906 171.863C265.54 166.291 266.116 157.398 263.676 155.113C261.235 152.829 259.683 154.435 262.076 166.705C263.514 174.053 264.31 181.513 264.455 189C264.455 189 259.161 172.867 255.643 172.399C252.125 171.931 252.098 177.144 255.141 181.679C258.185 186.214 264.015 194.321 264.97 198.524C264.97 198.524 259.168 186.39 253.942 190.105C248.715 193.819 258.49 201.161 262.842 203.811C267.194 206.462 270.224 223.062 270.224 223.062L272.468 222.391Z" fill="black"/>
<path d="M268.943 226.384C268.943 226.384 273.288 216.589 268.082 207.079C262.876 197.568 261.364 195.332 264.591 193.318C267.817 191.305 269.417 200.917 269.417 200.917C269.417 200.917 272.074 194.254 269.736 187.36C267.397 180.466 265.838 169.179 268.909 167.925C271.98 166.671 269.668 182.011 272.407 187.184C273.729 183.503 274.563 179.665 274.888 175.768C275.193 170.19 274.508 161.303 276.921 158.984C279.334 156.666 280.914 158.225 278.663 170.556C277.314 177.921 276.609 185.39 276.555 192.878C276.555 192.878 281.653 176.67 285.198 176.148C288.743 175.626 288.797 180.846 285.815 185.421C282.832 189.997 277.07 198.199 276.155 202.368C276.155 202.368 281.815 190.166 287.082 193.793C292.349 197.419 282.669 204.91 278.351 207.621C274.033 210.333 271.18 226.995 271.18 226.995L268.943 226.384Z" fill="#442D87"/>
<path d="M288.967 219.402H253.108L256.009 245.066H286.066L288.967 219.402Z" fill="#263238"/>
<path d="M105.53 58.0371H81.8657C80.9542 58.0371 80.08 58.3992 79.4355 59.0437C78.791 59.6882 78.4289 60.5624 78.4289 61.4739V84.4806C78.4289 85.3921 78.791 86.2663 79.4355 86.9108C80.08 87.5553 80.9542 87.9174 81.8657 87.9174H89.4374L84.3399 94.8452L93.1521 87.9174H105.523C106.435 87.9174 107.309 87.5553 107.953 86.9108C108.598 86.2663 108.96 85.3921 108.96 84.4806V61.4739C108.96 60.5636 108.599 59.6904 107.956 59.0461C107.313 58.4018 106.44 58.0389 105.53 58.0371Z" fill="#442D87"/>
<path opacity="0.6" d="M105.53 58.0371H81.8657C80.9542 58.0371 80.08 58.3992 79.4355 59.0437C78.791 59.6882 78.4289 60.5624 78.4289 61.4739V84.4806C78.4289 85.3921 78.791 86.2663 79.4355 86.9108C80.08 87.5553 80.9542 87.9174 81.8657 87.9174H89.4374L84.3399 94.8452L93.1521 87.9174H105.523C106.435 87.9174 107.309 87.5553 107.953 86.9108C108.598 86.2663 108.96 85.3921 108.96 84.4806V61.4739C108.96 60.5636 108.599 59.6904 107.956 59.0461C107.313 58.4018 106.44 58.0389 105.53 58.0371Z" fill="white"/>
<path d="M93.7012 83.7207C99.635 83.7207 104.445 78.9104 104.445 72.9766C104.445 67.0427 99.635 62.2324 93.7012 62.2324C87.7673 62.2324 82.957 67.0427 82.957 72.9766C82.957 78.9104 87.7673 83.7207 93.7012 83.7207Z" fill="#442D87"/>
<path opacity="0.2" d="M102.664 75.0867C103.832 70.135 100.766 65.1735 95.8139 64.0048C90.8622 62.8361 85.9006 65.9028 84.7319 70.8545C83.5632 75.8062 86.6299 80.7677 91.5816 81.9364C96.5333 83.1051 101.495 80.0384 102.664 75.0867Z" fill="black"/>
<path d="M92.5556 77.3767C92.4308 77.3794 92.3066 77.3574 92.1903 77.312C92.074 77.2667 91.9678 77.1988 91.8777 77.1123L87.9664 73.2824C87.7867 73.108 87.6835 72.8693 87.6797 72.6189C87.6759 72.3684 87.7717 72.1268 87.9461 71.947C88.1205 71.7672 88.3592 71.664 88.6096 71.6602C88.86 71.6564 89.1017 71.7522 89.2815 71.9266L92.4878 75.0651L98.0327 68.8762C98.2028 68.7049 98.4321 68.6053 98.6733 68.5981C98.9146 68.5908 99.1495 68.6765 99.3295 68.8373C99.5095 68.9982 99.6208 69.222 99.6406 69.4626C99.6605 69.7032 99.5872 69.9422 99.4359 70.1303L93.2335 77.0513C93.1479 77.147 93.0436 77.2241 92.9269 77.2777C92.8103 77.3314 92.6839 77.3604 92.5556 77.3631V77.3767Z" fill="white"/>
<path d="M63.0075 229.652L82.5368 227.727V205.703H90.278V227.72L109.889 229.652C110.828 229.743 111.7 230.181 112.335 230.88C112.969 231.58 113.32 232.49 113.319 233.435V236.37H59.5775V233.435C59.5765 232.49 59.9273 231.58 60.5615 230.88C61.1957 230.181 62.0678 229.743 63.0075 229.652Z" fill="#263238"/>
<path opacity="0.1" d="M63.0075 229.652L82.5368 227.727V205.703H90.278V227.72L109.889 229.652C110.828 229.743 111.7 230.181 112.335 230.88C112.969 231.58 113.32 232.49 113.319 233.435V236.37H59.5775V233.435C59.5765 232.49 59.9273 231.58 60.5615 230.88C61.1957 230.181 62.0678 229.743 63.0075 229.652Z" fill="white"/>
<path d="M111.251 245.067C114.048 245.067 116.315 242.8 116.315 240.003C116.315 237.207 114.048 234.939 111.251 234.939C108.455 234.939 106.187 237.207 106.187 240.003C106.187 242.8 108.455 245.067 111.251 245.067Z" fill="#263238"/>
<path d="M61.645 245.067C64.4416 245.067 66.7087 242.8 66.7087 240.003C66.7087 237.207 64.4416 234.939 61.645 234.939C58.8484 234.939 56.5814 237.207 56.5814 240.003C56.5814 242.8 58.8484 245.067 61.645 245.067Z" fill="#263238"/>
<path d="M88.807 211.602H83.9806C83.2381 211.602 82.526 211.307 82.001 210.782C81.476 210.257 81.181 209.544 81.181 208.802V187.151H91.6066V208.802C91.6066 209.544 91.3116 210.257 90.7866 210.782C90.2616 211.307 89.5495 211.602 88.807 211.602Z" fill="#263238"/>
<path opacity="0.2" d="M88.807 211.602H83.9806C83.2381 211.602 82.526 211.307 82.001 210.782C81.476 210.257 81.181 209.544 81.181 208.802V187.151H91.6066V208.802C91.6066 209.544 91.3116 210.257 90.7866 210.782C90.2616 211.307 89.5495 211.602 88.807 211.602Z" fill="white"/>
<path d="M59.3741 144.717C59.3741 144.717 65.1767 180.901 76.6326 187.158H64.9869C64.9869 187.158 53.4632 174.821 49.9925 144.717H59.3741Z" fill="#263238"/>
<path opacity="0.1" d="M59.3741 144.717C59.3741 144.717 65.1767 180.901 76.6326 187.158H64.9869C64.9869 187.158 53.4632 174.821 49.9925 144.717H59.3741Z" fill="white"/>
<path d="M64.431 182.039H109.794C110.693 182.039 111.555 182.396 112.19 183.032C112.826 183.667 113.183 184.529 113.183 185.428V189.963H61.0417V185.428C61.0417 184.529 61.3988 183.667 62.0344 183.032C62.67 182.396 63.5321 182.039 64.431 182.039Z" fill="#442D87"/>
<path d="M113.969 185.998H60.2079C59.4554 185.998 58.8454 186.608 58.8454 187.361V188.594C58.8454 189.347 59.4554 189.957 60.2079 189.957H113.969C114.722 189.957 115.332 189.347 115.332 188.594V187.361C115.332 186.608 114.722 185.998 113.969 185.998Z" fill="#263238"/>
<path opacity="0.6" d="M113.969 185.998H60.2079C59.4554 185.998 58.8454 186.608 58.8454 187.361V188.594C58.8454 189.347 59.4554 189.957 60.2079 189.957H113.969C114.722 189.957 115.332 189.347 115.332 188.594V187.361C115.332 186.608 114.722 185.998 113.969 185.998Z" fill="white"/>
<path d="M48.6164 152.077H67.2509C72.7145 152.077 76.2598 147.698 75.1752 142.296L73.7245 135.083C72.64 129.66 67.3323 125.309 61.8755 125.309H43.241C37.7774 125.309 34.2322 129.688 35.3167 135.083L36.7674 142.296C37.8519 147.685 43.1529 152.077 48.6164 152.077Z" fill="#442D87"/>
<path d="M147.497 212.686L143.226 214.36L140.155 208.571L137.362 203.304L142.094 200.471L144.955 206.931L147.497 212.686Z" fill="#E4897B"/>
<path opacity="0.2" d="M144.955 206.931L140.155 208.571L137.362 203.304L142.094 200.471L144.955 206.931Z" fill="black"/>
<path d="M144.067 203.772L138.257 206.89C138.257 206.89 116.301 168.286 112.925 168.611C109.55 168.937 77.5206 189.341 67.7525 181.803C57.9845 174.265 67.4882 151.57 67.4882 151.57C67.4882 151.57 87.6953 145.795 89.8577 150.214C90.4276 151.538 90.9122 152.896 91.3083 154.281C91.7354 155.671 92.0608 156.844 92.0608 156.844C92.6776 156.593 112.634 148.411 121.541 152.777C130.631 157.264 144.067 203.772 144.067 203.772Z" fill="#263238"/>
<path opacity="0.3" d="M144.067 203.772L138.257 206.89C138.257 206.89 116.301 168.286 112.925 168.611C109.55 168.937 77.5206 189.341 67.7525 181.803C57.9845 174.265 67.4882 151.57 67.4882 151.57C67.4882 151.57 87.6953 145.795 89.8577 150.214C90.4276 151.538 90.9122 152.896 91.3083 154.281C91.7354 155.671 92.0608 156.844 92.0608 156.844C92.6776 156.593 112.634 148.411 121.541 152.777C130.631 157.264 144.067 203.772 144.067 203.772Z" fill="white"/>
<path d="M112.505 235.252L107.95 234.73L107.923 228.303L107.916 222.406L113.427 222.148L112.939 229.083L112.505 235.252Z" fill="#E4897B"/>
<path opacity="0.2" d="M112.925 229.226L107.909 228.426V222.467L113.42 222.176L112.925 229.226Z" fill="black"/>
<path d="M135.417 204.972L143.917 200.715L144.805 204.321L138.366 207.643L135.417 204.972Z" fill="#442D87"/>
<path d="M82.8418 181.863C82.8418 181.863 84.2382 181.707 105.72 177.728C105.72 177.728 106.208 205.195 107.225 225.674L113.841 225.884C113.841 225.884 123.331 180.467 122.212 173.58C121.094 166.693 112.932 165.791 112.932 165.791C112.932 165.791 98.7581 176.833 82.8418 181.863Z" fill="#263238"/>
<path opacity="0.4" d="M82.8418 181.863C82.8418 181.863 84.2382 181.707 105.72 177.728C105.72 177.728 106.208 205.195 107.225 225.674L113.841 225.884C113.841 225.884 123.331 180.467 122.212 173.58C121.094 166.693 112.932 165.791 112.932 165.791C112.932 165.791 98.7581 176.833 82.8418 181.863Z" fill="white"/>
<path opacity="0.3" d="M82.8418 181.863C82.8418 181.863 84.2382 181.707 105.72 177.728C105.72 177.728 106.208 205.195 107.225 225.674L113.841 225.884C113.841 225.884 123.331 180.467 122.212 173.58C121.094 166.693 112.932 165.791 112.932 165.791C112.932 165.791 98.7581 176.833 82.8418 181.863Z" fill="black"/>
<path d="M106.011 223.843L115.034 223.633L113.8 227.347L106.479 227.415L106.011 223.843Z" fill="#442D87"/>
<path opacity="0.3" d="M92.0879 156.857L80.3812 161.026C80.3812 161.026 86.5362 156.43 91.3355 154.295C91.7625 155.685 92.0879 156.857 92.0879 156.857Z" fill="black"/>
<path d="M66.1324 150.172L66.5663 153.419L88.5088 148.762L88.0004 144.926L66.1324 150.172Z" fill="#263238"/>
<path opacity="0.2" d="M66.1324 150.172L66.5663 153.419L88.5088 148.762L88.0004 144.926L66.1324 150.172Z" fill="black"/>
<path d="M73.4028 147.815L72.3097 148.018L73.3422 153.583L74.4352 153.38L73.4028 147.815Z" fill="#263238"/>
<path d="M82.9709 146.405L78.1833 147.484L79.0014 151.115L83.7891 150.036L82.9709 146.405Z" fill="white"/>
<path d="M86.0493 144.138L84.9599 144.338L85.9787 149.885L87.0682 149.685L86.0493 144.138Z" fill="#263238"/>
<path opacity="0.3" d="M73.4028 147.815L72.3097 148.018L73.3422 153.583L74.4352 153.38L73.4028 147.815Z" fill="white"/>
<path opacity="0.3" d="M86.0493 144.138L84.9599 144.338L85.9787 149.885L87.0682 149.685L86.0493 144.138Z" fill="white"/>
<path d="M155.983 220.264C155.271 220.045 154.524 219.96 153.78 220.013C153.78 220.013 151.021 218.861 147.68 213.377L144.833 213.75C144.353 213.822 143.908 214.039 143.556 214.373C143.205 214.706 142.964 215.139 142.867 215.614C142.846 215.749 142.846 215.886 142.867 216.021C142.989 216.709 143.157 217.388 143.368 218.054C144.098 220.258 144.961 222.415 145.951 224.514L146.412 224.324L144.941 220.217C144.453 218.813 146.154 220 147.056 221.355C147.957 222.711 149.239 224.026 152.282 222.874C155.821 221.491 157.224 220.759 155.983 220.264Z" fill="#263238"/>
<path d="M146.968 211.92C146.968 211.92 151.537 218.861 153.78 220.014C153.78 220.014 151.265 222.047 147.91 218.78C143.578 214.584 142.853 216.021 142.853 216.021C142.815 215.199 142.853 214.375 142.968 213.56C143.314 211.967 146.968 211.92 146.968 211.92Z" fill="#E4897B"/>
<path d="M119.338 243.332C118.689 242.958 117.977 242.705 117.237 242.587C117.237 242.587 114.83 240.817 112.898 234.703L110.045 234.391C109.56 234.345 109.074 234.451 108.652 234.694C108.231 234.937 107.895 235.305 107.692 235.747C107.632 235.869 107.59 235.999 107.57 236.133C107.523 236.826 107.523 237.522 107.57 238.214C107.754 240.528 108.08 242.828 108.546 245.102L109.041 245.027L108.601 240.675C108.458 239.197 109.834 240.756 110.39 242.288C110.946 243.82 111.875 245.4 115.101 245C118.87 244.491 120.402 244.112 119.338 243.332Z" fill="#263238"/>
<path d="M112.559 233.096C112.559 233.096 115.352 240.925 117.257 242.586C117.257 242.586 114.335 243.942 111.834 239.997C108.614 234.892 107.577 236.119 107.577 236.119C107.729 235.313 107.956 234.524 108.255 233.76C108.973 232.269 112.559 233.096 112.559 233.096Z" fill="#E4897B"/>
<path d="M61.3535 94.8121L55.6188 95.9644C55.3948 96.1532 55.1301 96.2875 54.8455 96.3569C54.5609 96.4262 54.2641 96.4288 53.9784 96.3644C52.2701 95.6865 49.8095 93.7004 49.4977 92.975C49.0367 91.9515 49.4977 88.9485 50.7043 88.4062C51.9109 87.8639 56.0662 92.8801 56.0662 92.8801L62.228 91.4905L61.3535 94.8121Z" fill="#E4897B"/>
<path d="M79.439 113.873C79.439 113.873 78.917 95.2927 76.7682 94.4996C74.6193 93.7065 58.4658 95.9231 58.4658 95.9231L58.0727 91.6797C58.0727 91.6797 76.8698 88.7852 80.51 90.5002C84.1501 92.2152 85.3499 119.906 84.6856 125.241L79.439 113.873Z" fill="#442D87"/>
<path opacity="0.6" d="M79.439 113.873C79.439 113.873 78.917 95.2927 76.7682 94.4996C74.6193 93.7065 58.4658 95.9231 58.4658 95.9231L58.0727 91.6797C58.0727 91.6797 76.8698 88.7852 80.51 90.5002C84.1501 92.2152 85.3499 119.906 84.6856 125.241L79.439 113.873Z" fill="white"/>
<path d="M58.7437 96.3307L57.6185 91.6669L59.2318 91.084L60.2554 96.473L58.7437 96.3307Z" fill="#442D87"/>
<path opacity="0.7" d="M58.7437 96.3307L57.6185 91.6669L59.2318 91.084L60.2554 96.473L58.7437 96.3307Z" fill="white"/>
<path d="M79.344 111.555C79.344 111.555 77.9002 117.208 70.9453 119.011C63.9904 120.814 56.2966 116.103 56.2966 116.103L57.8286 129.593L66.3426 150.844L88.102 145.17C88.102 145.17 86.8005 120.448 79.344 111.555Z" fill="#442D87"/>
<path opacity="0.7" d="M79.344 111.555C79.344 111.555 77.9002 117.208 70.9453 119.011C63.9904 120.814 56.2966 116.103 56.2966 116.103L57.8286 129.593L66.3426 150.844L88.102 145.17C88.102 145.17 86.8005 120.448 79.344 111.555Z" fill="white"/>
<path opacity="0.6" d="M83.1257 133.972L85.6727 133.169C85.9548 133.08 86.1113 132.779 86.0223 132.497L84.5049 127.687C84.4159 127.405 84.1152 127.249 83.8331 127.338L81.2861 128.141C81.004 128.23 80.8475 128.531 80.9365 128.813L82.4539 133.623C82.5429 133.905 82.8437 134.061 83.1257 133.972Z" fill="#442D87"/>
<path opacity="0.2" d="M82.607 132.505L85.5031 131.592L84.2529 127.629L81.3567 128.543L82.607 132.505Z" fill="black"/>
<path d="M82.51 126.197L81.8701 126.398L82.6063 128.732L83.2463 128.53L82.51 126.197Z" fill="#263238"/>
<path d="M64.553 90.4395C59.1911 90.4395 55.6527 96.12 56.9067 105.129C58.1608 114.138 63.1838 116.734 63.1838 116.734L62.8652 114.558C68.4414 115.823 74.1904 116.144 79.8728 115.507C79.8728 115.507 77.2833 108.159 78.1239 100.655C78.1239 100.655 79.8253 90.4259 64.553 90.4395Z" fill="#263238"/>
<path opacity="0.2" d="M75.2023 117.181L77.3918 125.315L73.5415 122.38C73.5415 122.38 77.2901 130.948 78.2866 135.937C78.2866 135.937 75.0464 127.443 72.2536 122.787L70.6199 127.45L64.0514 120.76C64.0514 120.76 69.8539 116.313 75.2023 117.181Z" fill="black"/>
<path d="M72.0028 119.805L65.319 120.009C68.2813 116.22 62.9261 109.617 62.9261 109.617L69.5285 111.047C71.1012 117.582 73.8194 117.779 73.8194 117.779L72.0028 119.805Z" fill="#E4897B"/>
<path opacity="0.2" d="M71.3723 115.737C68.822 115.523 66.4499 114.342 64.7428 112.435C64.2154 111.456 63.6078 110.522 62.9261 109.643L69.5285 111.08C69.8782 112.724 70.5015 114.298 71.3723 115.737Z" fill="black"/>
<path d="M69.5218 93.1978C75.2768 93.6791 76.8766 96.9125 76.802 102.885C76.7139 110.341 74.6261 115.472 67.5627 113.29C57.9642 110.327 59.9571 92.398 69.5218 93.1978Z" fill="#E4897B"/>
<path d="M73.1077 102.268C73.4974 103.166 73.9935 104.015 74.5854 104.796C74.3959 105.018 74.1492 105.184 73.872 105.276C73.5947 105.368 73.2976 105.383 73.0128 105.318L73.1077 102.268Z" fill="#DE5753"/>
<path d="M69.21 101.305L70.4572 100.898C70.4572 100.898 69.7929 101.888 69.21 101.305Z" fill="#263238"/>
<path d="M69.6438 101.164C69.4119 101.05 69.1465 101.024 68.897 101.091C68.6475 101.159 68.4311 101.315 68.2881 101.53C68.5009 101.433 68.7321 101.383 68.966 101.383C69.1998 101.383 69.431 101.433 69.6438 101.53V101.164Z" fill="#263238"/>
<path d="M67.3255 98.4189C67.2614 98.4173 67.2005 98.3905 67.156 98.3443C67.1324 98.3221 67.1136 98.2954 67.1008 98.2656C67.0879 98.2359 67.0813 98.2039 67.0813 98.1715C67.0813 98.1391 67.0879 98.107 67.1008 98.0773C67.1136 98.0476 67.1324 98.0208 67.156 97.9986C67.534 97.668 67.9837 97.4297 68.4696 97.3027C68.9554 97.1756 69.4642 97.1632 69.9556 97.2665C70.0194 97.28 70.0753 97.3183 70.1109 97.3729C70.1465 97.4276 70.1589 97.4942 70.1454 97.558C70.1319 97.6218 70.0937 97.6777 70.039 97.7133C69.9843 97.7489 69.9178 97.7613 69.8539 97.7478C69.4438 97.664 69.0201 97.6736 68.6141 97.7756C68.2081 97.8777 67.8303 98.0697 67.5085 98.3375C67.4858 98.3636 67.4576 98.3844 67.426 98.3985C67.3944 98.4125 67.3601 98.4195 67.3255 98.4189Z" fill="#263238"/>
<path d="M76.3546 98.5204C76.3009 98.5225 76.2482 98.5057 76.2055 98.473C75.9343 98.2243 75.611 98.0393 75.2592 97.9315C74.9074 97.8236 74.5359 97.7955 74.1719 97.8493C74.1408 97.8578 74.1083 97.86 74.0762 97.8559C74.0442 97.8518 74.0133 97.8414 73.9853 97.8254C73.9573 97.8093 73.9327 97.7879 73.913 97.7624C73.8932 97.7368 73.8787 97.7076 73.8703 97.6765C73.8618 97.6453 73.8596 97.6128 73.8637 97.5808C73.8678 97.5488 73.8782 97.5179 73.8942 97.4898C73.9103 97.4618 73.9317 97.4373 73.9572 97.4175C73.9828 97.3978 74.012 97.3833 74.0431 97.3748C74.4825 97.2971 74.9338 97.3209 75.3626 97.4442C75.7915 97.5676 76.1864 97.7873 76.5173 98.0866C76.5675 98.1277 76.5998 98.1868 76.6074 98.2512C76.615 98.3157 76.5973 98.3806 76.558 98.4323C76.5335 98.462 76.5023 98.4855 76.4669 98.5008C76.4316 98.5161 76.3931 98.5228 76.3546 98.5204Z" fill="#263238"/>
<path d="M62.3974 102.377C62.3974 102.377 65.4817 97.8756 65.38 94.188C65.38 94.188 77.1816 90.4733 76.7817 102.105C76.7817 102.105 78.7475 91.9375 68.871 90.8597C58.9945 89.7819 57.849 104.302 62.6008 109.047C62.6008 109.047 60.5062 105.197 62.3974 102.377Z" fill="#263238"/>
<path d="M63.2583 103.672C63.2583 103.001 62.9921 102.357 62.5182 101.882C62.0442 101.406 61.4011 101.139 60.7299 101.137C58.9268 101.184 57.7744 104.777 62.1398 106.031C62.7635 106.207 63.177 105.617 63.2583 103.672Z" fill="#E4897B"/>
<path d="M73.0603 107.013C72.6381 107.58 72.2597 108.178 71.9282 108.802C71.813 108.762 71.691 108.728 71.5757 108.68C69.9827 108.118 69.4269 107.325 69.2981 106.647C69.2374 106.303 69.263 105.949 69.3727 105.617C69.4291 105.426 69.5112 105.243 69.6167 105.074C70.445 105.861 71.4351 106.458 72.518 106.823C72.8433 106.945 73.0603 107.013 73.0603 107.013Z" fill="#263238"/>
<path d="M72.5179 106.809L72.1722 107.331C70.6674 106.796 69.6845 106.22 69.3727 105.603C69.4291 105.412 69.5112 105.229 69.6167 105.061C70.4449 105.848 71.4351 106.445 72.5179 106.809Z" fill="white"/>
<path d="M71.5757 108.68C69.9827 108.117 69.4269 107.324 69.2981 106.646C69.9007 106.868 70.4586 107.197 70.9453 107.616C71.2609 107.897 71.4812 108.268 71.5757 108.68Z" fill="#DE5753"/>
<path d="M69.3659 93.6247C69.3659 93.6247 66.2545 102.905 60.3028 102.267C54.3512 101.63 64.5531 90.4184 64.5531 90.4184C64.5531 90.4184 74.5922 87.551 78.9645 93.1298C83.3367 98.7087 76.8021 102.091 76.8021 102.091C76.8021 102.091 77.7782 94.8109 69.3659 93.6247Z" fill="#263238"/>
<path d="M64.6208 101.522C64.5864 101.52 64.5531 101.509 64.5244 101.49C64.4958 101.471 64.4728 101.445 64.4581 101.414C64.4426 101.37 64.4446 101.323 64.4636 101.281C64.4825 101.239 64.5171 101.207 64.5598 101.19C69.3049 99.3799 69.1964 93.0148 69.1964 92.947C69.1944 92.9248 69.1972 92.9025 69.2046 92.8815C69.212 92.8605 69.2238 92.8413 69.2392 92.8253C69.2546 92.8092 69.2733 92.7967 69.294 92.7884C69.3147 92.7802 69.3369 92.7765 69.3591 92.7775C69.4031 92.7789 69.4452 92.7961 69.4776 92.826C69.5099 92.8559 69.5305 92.8964 69.5353 92.9402C69.5353 93.008 69.6438 99.6104 64.6818 101.508L64.6208 101.522Z" fill="#263238"/>
<path d="M75.0532 101.869L76.3004 101.469C76.3004 101.469 75.6293 102.452 75.0532 101.869Z" fill="#263238"/>
<path d="M75.487 101.727C75.2546 101.612 74.9881 101.586 74.7382 101.655C74.4882 101.724 74.2723 101.882 74.1313 102.099C74.3409 101.995 74.5706 101.937 74.8047 101.93C75.0387 101.923 75.2715 101.967 75.487 102.059V101.727Z" fill="#263238"/>
<path d="M66.2612 117.27L71.2978 119.832L71.2164 124.936L64.0175 120.74L66.2612 117.27Z" fill="#442D87"/>
<path d="M72.0638 116.307L72.362 119.404L75.6497 122.882L75.2023 117.161L72.0638 116.307Z" fill="#442D87"/>
<path d="M48.7927 81.2545L46.6913 75.8316C46.7297 75.5417 46.7 75.2468 46.6047 74.9703C46.5094 74.6939 46.3511 74.4433 46.1422 74.2386C44.678 73.1473 41.6548 72.1576 40.8955 72.2728C39.7906 72.4355 37.5062 74.4352 37.7028 75.7435C37.8994 77.0518 44.3527 77.8584 44.3527 77.8584L46.4947 83.8033L48.7927 81.2545Z" fill="#E4897B"/>
<path d="M57.8422 129.593C57.8422 129.593 61.9094 126.36 60.2893 119.215L55.917 99.4485L48.4063 79.0312L44.7323 80.8886C44.7323 80.8886 50.9008 100.838 51.4702 102.187C51.7617 102.865 52.9209 113.216 54.5003 120.151C55.9509 126.536 57.8422 129.593 57.8422 129.593Z" fill="#442D87"/>
<path opacity="0.6" d="M57.8422 129.593C57.8422 129.593 61.9094 126.36 60.2893 119.215L55.917 99.4485L48.4063 79.0312L44.7323 80.8886C44.7323 80.8886 50.9008 100.838 51.4702 102.187C51.7617 102.865 52.9209 113.216 54.5003 120.151C55.9509 126.536 57.8422 129.593 57.8422 129.593Z" fill="white"/>
<path d="M44.0883 80.3051L48.3792 78.1562L49.3147 79.5865L44.2985 81.81L44.0883 80.3051Z" fill="#442D87"/>
<path opacity="0.7" d="M44.0883 80.3051L48.3792 78.1562L49.3147 79.5865L44.2985 81.81L44.0883 80.3051Z" fill="white"/>
<path opacity="0.6" d="M66.2612 117.27L71.2978 119.832L71.2164 124.936L64.0175 120.74L66.2612 117.27Z" fill="white"/>
<path opacity="0.6" d="M72.0638 116.307L72.362 119.404L75.6497 122.882L75.2023 117.161L72.0638 116.307Z" fill="white"/>
<path d="M215.093 106.613H194.784V122.394H215.093V106.613Z" fill="white"/>
<path opacity="0.1" d="M215.093 106.613H209.887V122.394H215.093V106.613Z" fill="black"/>
<path d="M193.618 136.331H216.578V107.691H209.182L193.618 115.141V136.331Z" fill="#442D87"/>
<path opacity="0.2" d="M216.578 107.691H209.182V136.331H216.578V107.691Z" fill="black"/>
<path opacity="0.7" d="M206.735 120.787H195.984V125.939H206.735V120.787Z" fill="white"/>
<path opacity="0.7" d="M206.735 127.66H195.984V128.399H206.735V127.66Z" fill="white"/>
<path opacity="0.7" d="M215.859 129.822H209.887V134.195H215.859V129.822Z" fill="white"/>
<path d="M206.464 105.752H186.155V122.394H206.464V105.752Z" fill="white"/>
<path opacity="0.1" d="M206.464 105.752H201.258V122.394H206.464V105.752Z" fill="black"/>
<path d="M184.989 136.331H207.948V107.691H200.553L184.989 115.141V136.331Z" fill="#442D87"/>
<path opacity="0.2" d="M207.948 107.691H200.553V136.331H207.948V107.691Z" fill="black"/>
<path opacity="0.7" d="M198.106 120.787H187.355V125.939H198.106V120.787Z" fill="white"/>
<path opacity="0.7" d="M198.106 127.66H187.355V128.399H198.106V127.66Z" fill="white"/>
<path opacity="0.7" d="M207.23 129.822H201.258V134.195H207.23V129.822Z" fill="white"/>
<path d="M170.727 245.066H174.882L182.339 141.184H176.828L170.727 245.066Z" fill="#263238"/>
<path opacity="0.1" d="M170.727 245.067H174.882L181.973 146.343L182.339 141.354H176.828L176.536 146.343L170.727 245.067Z" fill="white"/>
<path opacity="0.2" d="M176.536 146.099H181.973L182.339 141.354H176.828L176.536 146.099Z" fill="black"/>
<path d="M140.25 245.066H144.405L145.083 141.184H139.572L140.25 245.066Z" fill="#263238"/>
<path opacity="0.1" d="M139.566 141.354L139.681 158.11L140.243 245.067H144.399L144.968 158.11L145.077 141.354H139.566Z" fill="white"/>
<path opacity="0.2" d="M139.566 141.354L139.681 158.3H144.968L145.077 141.354H139.566Z" fill="black"/>
<path d="M96.1619 245.066H100.317L107.774 141.184H102.263L96.1619 245.066Z" fill="#263238"/>
<path opacity="0.1" d="M96.1619 245.067H100.317L107.414 146.343L107.774 141.354H102.263L101.971 146.343L96.1619 245.067Z" fill="white"/>
<path opacity="0.2" d="M101.971 146.099H107.414L107.774 141.354H102.263L101.971 146.099Z" fill="black"/>
<path d="M218.232 245.066H222.387L216.279 141.184H210.768L218.232 245.066Z" fill="#263238"/>
<path opacity="0.1" d="M210.768 141.354L211.141 146.343L218.232 245.067H222.38L216.578 146.343L216.279 141.354H210.768Z" fill="white"/>
<path opacity="0.2" d="M216.279 141.354H210.768L211.141 146.099H216.578L216.279 141.354Z" fill="black"/>
<path d="M219.187 143.787L99.3681 143.787C99.1759 143.787 98.9855 143.749 98.8078 143.676C98.6302 143.602 98.4688 143.494 98.3328 143.358C98.1968 143.222 98.089 143.061 98.0154 142.883C97.9418 142.706 97.9039 142.515 97.9039 142.323V138.588L220.652 138.588V142.323C220.652 142.515 220.614 142.706 220.54 142.883C220.467 143.061 220.359 143.222 220.223 143.358C220.087 143.494 219.925 143.602 219.748 143.676C219.57 143.749 219.38 143.787 219.187 143.787Z" fill="#442D87"/>
<path opacity="0.4" d="M219.187 143.787L99.3681 143.787C99.1759 143.787 98.9855 143.749 98.8078 143.676C98.6302 143.602 98.4688 143.494 98.3328 143.358C98.1968 143.222 98.089 143.061 98.0154 142.883C97.9418 142.706 97.9039 142.515 97.9039 142.323V138.588L220.652 138.588V142.323C220.652 142.515 220.614 142.706 220.54 142.883C220.467 143.061 220.359 143.222 220.223 143.358C220.087 143.494 219.925 143.602 219.748 143.676C219.57 143.749 219.38 143.787 219.187 143.787Z" fill="white"/>
<path opacity="0.2" d="M97.9039 141.184L220.652 141.184V138.581L97.9039 138.581V141.184Z" fill="black"/>
<path d="M95.3281 139.258H223.221C223.413 139.259 223.604 139.222 223.782 139.149C223.96 139.076 224.122 138.968 224.258 138.832C224.394 138.695 224.502 138.534 224.575 138.356C224.649 138.178 224.686 137.987 224.685 137.794C224.685 137.406 224.531 137.034 224.256 136.759C223.982 136.484 223.609 136.33 223.221 136.33H95.3281C94.9391 136.33 94.566 136.484 94.2903 136.759C94.0147 137.033 93.8589 137.405 93.8571 137.794C93.8571 137.987 93.8952 138.178 93.9692 138.356C94.0432 138.534 94.1517 138.696 94.2884 138.832C94.425 138.968 94.5873 139.076 94.7657 139.149C94.9441 139.222 95.1352 139.259 95.3281 139.258Z" fill="#442D87"/>
<path opacity="0.4" d="M95.3281 139.258H223.221C223.413 139.259 223.604 139.222 223.782 139.149C223.96 139.076 224.122 138.968 224.258 138.832C224.394 138.695 224.502 138.534 224.575 138.356C224.649 138.178 224.686 137.987 224.685 137.794C224.685 137.406 224.531 137.034 224.256 136.759C223.982 136.484 223.609 136.33 223.221 136.33H95.3281C94.9391 136.33 94.566 136.484 94.2903 136.759C94.0147 137.033 93.8589 137.405 93.8571 137.794C93.8571 137.987 93.8952 138.178 93.9692 138.356C94.0432 138.534 94.1517 138.696 94.2884 138.832C94.425 138.968 94.5873 139.076 94.7657 139.149C94.9441 139.222 95.1352 139.259 95.3281 139.258Z" fill="white"/>
<path d="M195.74 136.317V134.025H197.279L195.74 133.131H196.893L195.354 132.127H193.896V130.975H195.591L193.896 130.304V127.803H195.591V126.169H197.279L195.591 125.6V124.434H196.798L195.808 123.451L194.954 122.59H168.761V123.763H167.033L168.958 124.63V125.6H165.426V127.403H163.86L165.426 128.189V130.202H166.538V131.165H168.761V134.025H167.514L168.537 135.049V136.33L195.74 136.317Z" fill="#442D87"/>
<path opacity="0.7" d="M195.74 136.317V134.025H197.279L195.74 133.131H196.893L195.354 132.127H193.896V130.975H195.591L193.896 130.304V127.803H195.591V126.169H197.279L195.591 125.6V124.434H196.798L195.808 123.451L194.954 122.59H168.761V123.763H167.033L168.958 124.63V125.6H165.426V127.403H163.86L165.426 128.189V130.202H166.538V131.165H168.761V134.025H167.514L168.537 135.049V136.33L195.74 136.317Z" fill="white"/>
<path opacity="0.1" d="M195.74 136.317V134.025H197.279L195.74 133.131H196.893L195.354 132.127H193.896V130.975H195.591L193.896 130.304V127.803H195.591V126.169H197.279L195.591 125.6V124.434H196.798L195.808 123.451L194.954 122.59H181.159V123.763H179.431L181.349 124.63V125.6H177.817V127.403H176.252L177.817 128.189V130.202H178.929V131.165H181.159V134.025H179.912L180.929 135.049V136.33L195.74 136.317Z" fill="black"/>
<path opacity="0.1" d="M168.958 125.6H181.349L168.958 125.152V125.6Z" fill="black"/>
<path opacity="0.1" d="M168.761 131.166H181.159L181.214 132.034L168.761 131.166Z" fill="black"/>
<path opacity="0.1" d="M166.538 130.203H178.929L166.538 130.637V130.203Z" fill="black"/>
<path opacity="0.1" d="M168.761 134.026H181.159L168.761 133.572V134.026Z" fill="black"/>
<path opacity="0.1" d="M168.537 135.049H180.929V135.523L168.537 135.049Z" fill="black"/>
<path opacity="0.1" d="M165.426 127.403H177.817L165.426 127.01V127.403Z" fill="black"/>
<path opacity="0.1" d="M168.761 123.762H181.159L168.761 123.328V123.762Z" fill="black"/>
<path opacity="0.1" d="M195.591 124.434H183.017L195.591 124.82V124.434Z" fill="black"/>
<path opacity="0.1" d="M181.349 125.6H195.591L182.678 126.02L181.349 125.6Z" fill="black"/>
<path opacity="0.1" d="M177.817 127.402L195.591 127.802V127.402H177.817Z" fill="black"/>
<path opacity="0.1" d="M177.817 128.189H186.609L177.817 128.617V128.189Z" fill="black"/>
<path opacity="0.1" d="M193.896 130.304L181.159 130.203L193.896 129.918V130.304Z" fill="black"/>
<path opacity="0.1" d="M193.896 130.975H180.929L193.896 131.408V130.975Z" fill="black"/>
<path opacity="0.1" d="M195.74 133.131H181.349V133.571L195.74 133.131Z" fill="black"/>
<path opacity="0.1" d="M195.74 134.025H185.315L195.74 134.317V134.025Z" fill="black"/>
<path d="M162.389 133.361V135.537C162.389 136.093 161.711 136.324 161.176 136.324H117.711C117.155 136.324 116.484 136.093 116.484 135.537V133.361H162.389Z" fill="#263238"/>
<path opacity="0.4" d="M162.389 133.361V135.537C162.389 136.093 161.711 136.324 161.176 136.324H117.711C117.155 136.324 116.484 136.093 116.484 135.537V133.361H162.389Z" fill="white"/>
<path opacity="0.2" d="M162.389 133.361V135.537C162.389 136.093 161.711 136.324 161.176 136.324H132.509C131.953 136.324 131.289 136.093 131.289 135.537V133.361H162.389Z" fill="black"/>
<path d="M169.663 110.775L164.484 134.25C164.395 134.631 164.181 134.971 163.876 135.217C163.572 135.462 163.194 135.599 162.803 135.605H134.543C134.367 135.602 134.194 135.557 134.038 135.475C133.883 135.394 133.748 135.277 133.645 135.134C133.542 134.992 133.473 134.827 133.444 134.654C133.415 134.48 133.427 134.303 133.478 134.134L138.644 110.843C138.75 110.487 138.974 110.179 139.28 109.969C139.586 109.76 139.955 109.661 140.325 109.691H168.592C169.351 109.664 169.825 110.009 169.663 110.775Z" fill="#263238"/>
<path opacity="0.4" d="M169.663 110.776L164.484 134.25C164.395 134.631 164.181 134.971 163.876 135.217C163.572 135.463 163.194 135.599 162.803 135.606H135.498C135.322 135.602 135.15 135.557 134.994 135.476C134.838 135.394 134.704 135.277 134.601 135.135C134.498 134.992 134.429 134.828 134.4 134.654C134.371 134.481 134.383 134.303 134.434 134.135L139.606 110.843C139.711 110.487 139.935 110.178 140.242 109.968C140.548 109.758 140.917 109.66 141.287 109.691H168.592C169.351 109.664 169.825 110.01 169.663 110.776Z" fill="white"/>
<path opacity="0.2" d="M155.726 122.706C155.726 124.739 153.57 126.346 151.991 126.346C150.411 126.346 149.476 124.712 149.957 122.706C150.438 120.699 151.991 119.133 153.523 119.072C153.075 121.106 154.038 122.706 155.611 122.706H155.726Z" fill="black"/>
</svg>
