<svg width="22" height="23" viewBox="0 0 22 23" fill="none" xmlns="http://www.w3.org/2000/svg">
<path d="M11.1501 11.1978V16.6108M11.1501 16.6108L13.8567 14.8065M11.1501 16.6108L8.44358 14.8065M12.0523 3.07891C11.9662 3.07812 11.8694 3.07812 11.7588 3.07812H7.72201C6.71147 3.07812 6.20583 3.07812 5.81985 3.27479C5.48034 3.44778 5.20451 3.72361 5.03152 4.06312C4.83485 4.4491 4.83485 4.95474 4.83485 5.96528V16.4306C4.83485 17.4411 4.83485 17.9461 5.03152 18.3321C5.20451 18.6716 5.48034 18.9479 5.81985 19.1209C6.20545 19.3174 6.71048 19.3174 7.71905 19.3174H14.5812C15.5898 19.3174 16.0941 19.3174 16.4797 19.1209C16.8192 18.9479 17.0959 18.6716 17.2689 18.3321C17.4654 17.9465 17.4654 17.4422 17.4654 16.4336V8.78504C17.4654 8.67432 17.4654 8.57747 17.4645 8.49121M12.0523 3.07891C12.31 3.08125 12.473 3.09062 12.6287 3.12798C12.8128 3.17218 12.9886 3.24527 13.1501 3.3442C13.3321 3.45575 13.4884 3.61205 13.8003 3.92392L16.62 6.74367C16.9321 7.05574 17.0873 7.21134 17.1988 7.39343C17.2978 7.55487 17.371 7.73091 17.4152 7.91502C17.4525 8.07058 17.4621 8.23365 17.4645 8.49121M12.0523 3.07891V5.60423C12.0523 6.61477 12.0523 7.11969 12.249 7.50566C12.422 7.84517 12.6978 8.12175 13.0373 8.29474C13.4229 8.49121 13.9279 8.49121 14.9365 8.49121H17.4645M17.4645 8.49121H17.4656" stroke="#00BAC2" stroke-width="1.35327" stroke-linecap="round" stroke-linejoin="round"/>
</svg>
