<svg width="25" height="24" viewBox="0 0 25 24" fill="none" xmlns="http://www.w3.org/2000/svg">
<path d="M12.5 8.00012L4.5 16.0001V20.0001L8.5 20.0001L16.5 12.0001M12.5 8.00012L15.3686 5.13146L15.3704 5.12976C15.7652 4.73488 15.963 4.53709 16.191 4.46301C16.3919 4.39775 16.6082 4.39775 16.8091 4.46301C17.0369 4.53704 17.2345 4.7346 17.6288 5.12892L19.3686 6.86872C19.7646 7.26474 19.9627 7.46284 20.0369 7.69117C20.1022 7.89201 20.1021 8.10835 20.0369 8.3092C19.9628 8.53736 19.765 8.73516 19.3695 9.13061L19.3686 9.13146L16.5 12.0001M12.5 8.00012L16.5 12.0001" stroke="#00BAC2" stroke-width="1.5" stroke-linecap="round" stroke-linejoin="round"/>
</svg>
