<svg width="16" height="16" viewBox="0 0 16 16" fill="none" xmlns="http://www.w3.org/2000/svg">
<path d="M7.99984 9.99996L9.99984 7.99996M9.99984 7.99996L7.99984 5.99996M9.99984 7.99996H2.6665M2.6665 4.83197V4.80009C2.6665 4.05335 2.6665 3.67971 2.81183 3.39449C2.93966 3.14361 3.14349 2.93978 3.39437 2.81195C3.67958 2.66663 4.05323 2.66663 4.79997 2.66663H11.2C11.9467 2.66663 12.3196 2.66663 12.6048 2.81195C12.8556 2.93978 13.0602 3.14361 13.188 3.39449C13.3332 3.67943 13.3332 4.05262 13.3332 4.7979V11.2023C13.3332 11.9476 13.3332 12.3203 13.188 12.6052C13.0602 12.8561 12.8556 13.0603 12.6048 13.1881C12.3198 13.3333 11.9472 13.3333 11.2019 13.3333H4.79778C4.0525 13.3333 3.67931 13.3333 3.39437 13.1881C3.14349 13.0603 2.93966 12.8559 2.81183 12.605C2.6665 12.3198 2.6665 11.9467 2.6665 11.2V11.1666" stroke="white" stroke-width="1.5" stroke-linecap="round" stroke-linejoin="round"/>
</svg>
