<svg width="24" height="25" viewBox="0 0 24 25" fill="none" xmlns="http://www.w3.org/2000/svg">
<path fill-rule="evenodd" clip-rule="evenodd" d="M23.1854 13.039C23.1854 13.039 22.9759 13.5102 22.5487 14.1887C22.5487 14.1887 21.707 15.5255 20.5928 16.6397C20.5928 16.6397 16.9982 20.2344 12 20.2344C12 20.2344 7.00184 20.2344 3.40717 16.6397C3.40717 16.6397 2.29298 15.5255 1.45126 14.1887C1.45126 14.1887 1.02406 13.5102 0.814641 13.039C0.728453 12.8451 0.728453 12.6237 0.814641 12.4298C0.814641 12.4298 1.02406 11.9586 1.45126 11.2801C1.45126 11.2801 2.29298 9.94324 3.40717 8.82905C3.40717 8.82905 7.00184 5.23438 12 5.23438C12 5.23438 16.9981 5.23438 20.5928 8.82905C20.5928 8.82905 21.707 9.94323 22.5487 11.2801C22.5487 11.2801 22.9759 11.9586 23.1854 12.4298C23.2715 12.6237 23.2715 12.8451 23.1854 13.039ZM21.2794 13.3895C21.2794 13.3895 21.5125 13.0193 21.6644 12.7344C21.6644 12.7344 21.5125 12.4495 21.2794 12.0793C21.2794 12.0793 20.5273 10.8849 19.5322 9.8897C19.5322 9.8897 16.3768 6.73438 12 6.73438C12 6.73438 7.62316 6.73438 4.46783 9.8897C4.46783 9.8897 3.47265 10.8849 2.72061 12.0793C2.72061 12.0793 2.48753 12.4495 2.33558 12.7344C2.33558 12.7344 2.48753 13.0193 2.72061 13.3895C2.72061 13.3895 3.47265 14.5839 4.46783 15.579C4.46783 15.579 7.62316 18.7344 12 18.7344C12 18.7344 16.3768 18.7344 19.5322 15.579C19.5322 15.579 20.5273 14.5839 21.2794 13.3895Z" fill="#D7D7D7"/>
<path fill-rule="evenodd" clip-rule="evenodd" d="M12 8.23438C12 8.23438 13.864 8.23438 15.182 9.55239C15.182 9.55239 16.5 10.8704 16.5 12.7344C16.5 12.7344 16.5 14.5983 15.182 15.9164C15.182 15.9164 13.864 17.2344 12 17.2344C12 17.2344 10.136 17.2344 8.81802 15.9164C8.81802 15.9164 7.5 14.5983 7.5 12.7344C7.5 12.7344 7.5 10.8704 8.81802 9.55239C8.81802 9.55239 10.136 8.23438 12 8.23438ZM12 9.73438C12 9.73438 10.7574 9.73438 9.87868 10.6131C9.87868 10.6131 9 11.4917 9 12.7344C9 12.7344 9 13.977 9.87868 14.8557C9.87868 14.8557 10.7574 15.7344 12 15.7344C12 15.7344 13.2426 15.7344 14.1213 14.8557C14.1213 14.8557 15 13.977 15 12.7344C15 12.7344 15 11.4917 14.1213 10.6131C14.1213 10.6131 13.2426 9.73438 12 9.73438Z" fill="#D7D7D7"/>
</svg>
