<svg width="96" height="96" viewBox="0 0 96 96" fill="none" xmlns="http://www.w3.org/2000/svg">
<g clip-path="url(#clip0_1520_53901)">
<path d="M73.2633 22.7363H22.7373V73.2623H73.2633V22.7363Z" fill="white"/>
<path d="M73.2633 96.0007L96.0003 73.2637L84.6319 71.3242L73.2633 73.2637L71.1885 83.6625L73.2633 96.0007Z" fill="#EA4335"/>
<path d="M0 73.2637V88.4216C0 92.6092 3.3915 96.0007 7.57875 96.0007H22.737L25.0714 84.6322L22.737 73.2637L10.3496 71.3242L0 73.2637Z" fill="#188038"/>
<path d="M96.0003 22.737V7.57875C96.0003 3.3915 92.6088 0 88.4216 0H73.2633C71.8803 5.6385 71.1887 9.788 71.1885 12.4485C71.1885 15.1087 71.8801 18.5382 73.2633 22.737C78.2921 24.177 82.0816 24.897 84.6319 24.897C87.1821 24.897 90.9716 24.1772 96.0003 22.737Z" fill="#1967D2"/>
<path d="M95.9997 22.7363H73.2627V73.2623H95.9997V22.7363Z" fill="#FBBC04"/>
<path d="M73.2633 73.2637H22.7373V96.0007H73.2633V73.2637Z" fill="#34A853"/>
<path d="M73.263 0H7.57913C3.3915 0 0 3.3915 0 7.57875V73.263H22.737V22.737H73.263V0Z" fill="#4285F4"/>
<path d="M33.1012 61.9336C31.2127 60.6578 29.905 58.7948 29.1914 56.3311L33.5748 54.5251C33.9723 56.0408 34.667 57.2156 35.659 58.0493C36.6442 58.883 37.8442 59.2936 39.2463 59.2936C40.6798 59.2936 41.9113 58.8577 42.9408 57.986C43.9705 57.1145 44.4884 56.003 44.4884 54.6578C44.4884 53.2808 43.9453 52.1566 42.859 51.2851C41.7727 50.4136 40.4084 49.9778 38.779 49.9778H36.2463V45.6391H38.5199C39.9219 45.6391 41.1029 45.26 42.0629 44.5017C43.0229 43.7442 43.5029 42.7081 43.5029 41.3881C43.5029 40.2136 43.0735 39.2787 42.2148 38.5778C41.356 37.8766 40.2693 37.523 38.9493 37.523C37.6608 37.523 36.6378 37.8642 35.8799 38.5523C35.1223 39.2424 34.5528 40.1141 34.225 41.0851L29.8863 39.2787C30.4608 37.6493 31.5157 36.2093 33.0629 34.9651C34.6102 33.7208 36.5872 33.0957 38.9872 33.0957C40.762 33.0957 42.3599 33.437 43.7748 34.1251C45.1893 34.8136 46.3008 35.7672 47.1029 36.98C47.9054 38.1987 48.3029 39.563 48.3029 41.0787C48.3029 42.626 47.9305 43.9336 47.1854 45.0072C46.4403 46.0808 45.5242 46.9017 44.4378 47.4766V47.7353C45.8405 48.3137 47.059 49.2637 47.962 50.483C48.8778 51.7145 49.339 53.186 49.339 54.9042C49.339 56.6217 48.9029 58.1566 48.0314 59.5017C47.1599 60.8472 45.9539 61.9081 44.425 62.6787C42.8905 63.4493 41.1663 63.8412 39.2527 63.8412C37.0357 63.8472 34.9897 63.2093 33.1012 61.9336ZM60.0247 40.1817L55.2123 43.6617L52.8059 40.0115L61.4395 33.7838H64.7489V63.1587H60.0247V40.1817Z" fill="#4285F4"/>
</g>
<defs>
<clipPath id="clip0_1520_53901">
<rect width="96" height="96" fill="white"/>
</clipPath>
</defs>
</svg>
