<svg width="60" height="41" viewBox="0 0 60 41" fill="none" xmlns="http://www.w3.org/2000/svg">
<rect x="0.85" y="0.85" width="57.8" height="39.1" rx="5.95" fill="white" stroke="#D9D9D9" stroke-width="1.7"/>
<path fill-rule="evenodd" clip-rule="evenodd" d="M28.1004 26.7888V21.6531H30.751C31.8371 21.6531 32.7539 21.2892 33.5012 20.5714L33.6806 20.3895C35.0458 18.9034 34.9561 16.5883 33.5012 15.2134C32.7738 14.4855 31.7774 14.0912 30.751 14.1115H26.4961V26.7888H28.1004ZM28.0998 20.0963V15.6683H30.7907C31.3687 15.6683 31.9169 15.8908 32.3255 16.2951C33.1926 17.1443 33.2125 18.5597 32.3753 19.4392C31.9667 19.8739 31.3887 20.1165 30.7907 20.0963H28.0998ZM41.1635 18.7921C40.4759 18.1552 39.5393 17.8317 38.3535 17.8317C36.8289 17.8317 35.6829 18.3979 34.9256 19.52L36.3406 20.4198C36.8588 19.6514 37.5663 19.2673 38.4631 19.2673C39.0311 19.2673 39.5791 19.4796 40.0076 19.8637C40.4261 20.2277 40.6653 20.7534 40.6653 21.3094V21.6835C40.0475 21.3397 39.2702 21.1578 38.3136 21.1578C37.1976 21.1578 36.3008 21.4206 35.6331 21.9564C34.9655 22.4922 34.6267 23.1999 34.6267 24.0996C34.6068 24.9185 34.9555 25.6969 35.5733 26.2226C36.2011 26.7887 36.9983 27.0718 37.935 27.0718C39.041 27.0718 39.9179 26.5765 40.5855 25.5857H40.6553V26.7887H42.1899V21.4408C42.1899 20.3187 41.8511 19.429 41.1635 18.7921ZM36.8092 25.1914C36.4803 24.9488 36.281 24.5545 36.281 24.1299C36.281 23.6547 36.5002 23.2605 36.9288 22.9471C37.3673 22.6337 37.9154 22.4719 38.5632 22.4719C39.4602 22.4618 40.1578 22.664 40.6561 23.0684C40.6561 23.7558 40.387 24.3523 39.8588 24.8578C39.3805 25.343 38.7327 25.616 38.0549 25.616C37.6065 25.6261 37.168 25.4745 36.8092 25.1914ZM45.6389 30.6001L50.9999 18.1148H49.256L46.7748 24.3423H46.745L44.204 18.1148H42.4602L45.9777 26.2328L43.9847 30.6001H45.6389Z" fill="#3C4043"/>
<path d="M22.5623 20.5411C22.5623 20.0457 22.5225 19.5503 22.4428 19.0651H15.6768V21.8654H19.553C19.3936 22.7652 18.8754 23.5739 18.1181 24.0794V25.8991H20.4299C21.7851 24.6354 22.5623 22.7652 22.5623 20.5411Z" fill="#4285F4"/>
<path d="M15.6778 27.6581C17.6109 27.6581 19.2451 27.0111 20.4309 25.8991L18.1191 24.0794C17.4714 24.5242 16.6443 24.7769 15.6778 24.7769C13.8044 24.7769 12.22 23.493 11.6521 21.7744H9.27051V23.6548C10.4862 26.1114 12.9674 27.6581 15.6778 27.6581Z" fill="#34A853"/>
<path d="M11.6518 21.7744C11.3528 20.8747 11.3528 19.894 11.6518 18.9842V17.1139H9.26989C8.24337 19.1661 8.24337 21.5924 9.26989 23.6447L11.6518 21.7744Z" fill="#FBBC04"/>
<path d="M15.6778 15.9817C16.7041 15.9615 17.6906 16.3557 18.428 17.0735L20.4807 14.991C19.1754 13.7576 17.4615 13.0803 15.6778 13.1005C12.9674 13.1005 10.4862 14.6573 9.27051 17.1139L11.6521 18.9943C12.22 17.2656 13.8044 15.9817 15.6778 15.9817Z" fill="#EA4335"/>
</svg>
