<svg width="32" height="24" viewBox="0 0 32 24" fill="none" xmlns="http://www.w3.org/2000/svg">
<path opacity="0.587821" fill-rule="evenodd" clip-rule="evenodd" d="M7.03027 5.33333C7.03027 8.27885 9.34457 10.6667 12.1994 10.6667C15.0542 10.6667 17.3685 8.27885 17.3685 5.33333C17.3685 2.38781 15.0542 0 12.1994 0C9.34457 0 7.03027 2.38781 7.03027 5.33333ZM19.9532 10.6665C19.9532 12.8756 21.689 14.6665 23.8301 14.6665C25.9712 14.6665 27.7069 12.8756 27.7069 10.6665C27.7069 8.45737 25.9712 6.6665 23.8301 6.6665C21.689 6.6665 19.9532 8.45737 19.9532 10.6665Z" fill="#8280FF"/>
<path fill-rule="evenodd" clip-rule="evenodd" d="M12.1778 13.3335C6.07643 13.3335 1.07059 16.5689 0.56969 22.9324C0.542405 23.2791 1.18489 24.0002 1.50898 24.0002H22.8564C23.8272 24.0002 23.8423 23.1941 23.8272 22.9335C23.4485 16.3911 18.3651 13.3335 12.1778 13.3335ZM23.3142 16.0008C24.9362 18.2291 25.8973 20.9987 25.8974 24H30.8803C31.5814 24 31.5923 23.3955 31.5814 23.2C31.3109 18.3468 27.7164 16.0504 23.3142 16.0008Z" fill="#8280FF"/>
</svg>
