<svg width="60" height="41" viewBox="0 0 60 41" fill="none" xmlns="http://www.w3.org/2000/svg">
<rect x="1.35" y="0.85" width="57.8" height="39.1" rx="5.95" fill="white" stroke="#D9D9D9" stroke-width="1.7"/>
<path fill-rule="evenodd" clip-rule="evenodd" d="M30.675 29.1667C28.6493 30.9148 26.0216 31.9702 23.1502 31.9702C16.7435 31.9702 11.5498 26.7162 11.5498 20.2351C11.5498 13.754 16.7435 8.5 23.1502 8.5C26.0216 8.5 28.6493 9.55533 30.675 11.3035C32.7007 9.55533 35.3284 8.5 38.1997 8.5C44.6065 8.5 49.8001 13.754 49.8001 20.2351C49.8001 26.7162 44.6065 31.9702 38.1997 31.9702C35.3284 31.9702 32.7007 30.9148 30.675 29.1667Z" fill="#ED0006"/>
<path fill-rule="evenodd" clip-rule="evenodd" d="M30.6748 29.1667C33.169 27.0143 34.7506 23.8115 34.7506 20.2351C34.7506 16.6586 33.169 13.4558 30.6748 11.3034C32.7005 9.5553 35.3281 8.5 38.1995 8.5C44.6062 8.5 49.7999 13.754 49.7999 20.2351C49.7999 26.7162 44.6062 31.9702 38.1995 31.9702C35.3281 31.9702 32.7005 30.9149 30.6748 29.1667Z" fill="#F9A000"/>
<path fill-rule="evenodd" clip-rule="evenodd" d="M30.6744 29.1667C33.1686 27.0143 34.7501 23.8115 34.7501 20.2351C34.7501 16.6586 33.1686 13.4558 30.6744 11.3034C28.1802 13.4558 26.5986 16.6586 26.5986 20.2351C26.5986 23.8115 28.1802 27.0143 30.6744 29.1667Z" fill="#FF5E00"/>
</svg>
