<svg width="28" height="24" viewBox="0 0 28 24" fill="none" xmlns="http://www.w3.org/2000/svg">
<path d="M3.7984 16.689C3.79834 16.6276 3.79834 16.5643 3.79834 16.4989V7.36803C3.79834 6.30266 3.79834 5.76958 4.04408 5.36266C4.26024 5.00473 4.60491 4.71393 5.02915 4.53155C5.51145 4.32422 6.14328 4.32422 7.406 4.32422H20.483C21.7457 4.32422 22.3767 4.32422 22.859 4.53155C23.2833 4.71393 23.6285 5.00473 23.8447 5.36266C24.0902 5.76918 24.0902 6.30162 24.0902 7.36491V16.5017C24.0902 16.963 24.0902 17.3242 24.0702 17.6186M3.7984 16.689C3.79926 17.6291 3.81341 18.1212 4.04408 18.5031C4.26024 18.8611 4.60491 19.1528 5.02915 19.3352C5.51098 19.5424 6.14204 19.5424 7.4023 19.5424H20.4868C21.747 19.5424 22.3772 19.5424 22.859 19.3352C23.2833 19.1528 23.6285 18.8611 23.8447 18.5031C23.9837 18.273 24.044 18.0027 24.0702 17.6186M3.7984 16.689L9.1734 11.3983L9.17499 11.3968C9.65172 10.9276 9.89048 10.6925 10.1737 10.6078C10.4224 10.5334 10.694 10.5352 10.9416 10.6125C11.2236 10.7006 11.4586 10.9383 11.9285 11.4141L14.9398 14.4628C15.3748 14.9033 15.5936 15.1247 15.8592 15.2136C16.0935 15.292 16.3518 15.3009 16.5936 15.2407C16.8688 15.1722 17.111 14.9678 17.5954 14.5591L18.1558 14.0863C18.649 13.6702 18.8956 13.4623 19.1747 13.3944C19.4198 13.3347 19.6819 13.3475 19.9178 13.4296C20.1863 13.5232 20.4041 13.7522 20.8398 14.2117L24.0702 17.6186M24.0702 17.6186L24.0902 17.6397M17.3262 10.031C16.7036 10.031 16.1989 9.60518 16.1989 9.07989C16.1989 8.55459 16.7036 8.12875 17.3262 8.12875C17.9489 8.12875 18.4536 8.55459 18.4536 9.07989C18.4536 9.60518 17.9489 10.031 17.3262 10.031Z" stroke="#666666" stroke-width="1.69099" stroke-linecap="round" stroke-linejoin="round"/>
</svg>
