<svg width="34" height="40" viewBox="0 0 34 40" fill="none" xmlns="http://www.w3.org/2000/svg">
<g clip-path="url(#clip0_902_17593)">
<path d="M28.5697 3.95129C26.7702 1.9003 23.5175 1.021 19.3562 1.021H7.27914C6.86741 1.02093 6.46916 1.16779 6.15604 1.43515C5.84292 1.70251 5.63547 2.07283 5.57102 2.47949L0.542346 34.3726C0.442393 35.0015 0.929376 35.571 1.56681 35.571H9.02278L10.8953 23.6939L10.8372 24.0659C10.9706 23.2263 11.6886 22.6071 12.5388 22.6071H16.0819C23.0422 22.6071 28.4923 19.78 30.0843 11.6017C30.1316 11.3599 30.1725 11.1245 30.2079 10.8945C30.007 10.788 30.007 10.788 30.2079 10.8945C30.682 7.8717 30.2047 5.81412 28.5697 3.95129Z" fill="#27346A"/>
<path d="M13.7482 9.80555C13.952 9.70834 14.175 9.65804 14.4008 9.65833H23.869C24.9902 9.65833 26.0359 9.7313 26.9916 9.8851C27.259 9.92777 27.525 9.97868 27.7893 10.0377C28.1638 10.1204 28.534 10.2216 28.8986 10.3408C29.3684 10.4977 29.8059 10.6805 30.208 10.8945C30.682 7.87053 30.2047 5.81412 28.5697 3.95129C26.7692 1.9003 23.5175 1.021 19.3562 1.021H7.27811C6.42773 1.021 5.70429 1.64009 5.57102 2.47949L0.542347 34.3714C0.442393 35.0014 0.929377 35.5701 1.56577 35.5701H9.02278L12.9077 10.9342C12.9459 10.6921 13.0424 10.4629 13.1888 10.2663C13.3352 10.0696 13.5272 9.91155 13.7482 9.80555Z" fill="#27346A"/>
<path d="M30.0859 11.6016C28.4939 19.7787 23.044 22.6069 16.0835 22.6069H12.5394C11.6892 22.6069 10.971 23.2262 10.8389 24.0657L8.50937 38.8334C8.42234 39.3838 8.84798 39.8825 9.40482 39.8825H15.69C16.0501 39.8824 16.3982 39.7539 16.672 39.52C16.9457 39.2861 17.127 38.9622 17.1833 38.6066L17.2445 38.2864L18.4291 30.7787L18.5054 30.3638C18.5616 30.0082 18.7429 29.6844 19.0166 29.4505C19.2903 29.2166 19.6385 29.088 19.9985 29.0879H20.9391C27.0277 29.0879 31.7951 26.6144 33.1882 19.4606C33.7698 16.471 33.4689 13.975 31.9306 12.2218C31.464 11.6908 30.8845 11.2523 30.2095 10.8943C30.173 11.1254 30.1333 11.3597 30.0859 11.6016Z" fill="#2790C3"/>
<path d="M28.5434 10.2302C28.2952 10.1577 28.0446 10.0935 27.7921 10.0377C27.5277 9.97962 27.2617 9.92906 26.9944 9.88614C26.0377 9.7313 24.9927 9.65821 23.8705 9.65821H14.4034C14.1775 9.65783 13.9544 9.70855 13.7509 9.80659C13.5296 9.9122 13.3373 10.0702 13.1908 10.2669C13.0444 10.4635 12.948 10.693 12.9102 10.9353L10.898 23.6939L10.8398 24.0659C10.9722 23.2263 11.6902 22.6071 12.5406 22.6071H16.0847C23.045 22.6071 28.495 19.78 30.087 11.6017C30.1344 11.3599 30.1742 11.1255 30.2107 10.8945C29.8076 10.6818 29.3711 10.4976 28.9012 10.3419C28.7827 10.3026 28.6634 10.2653 28.5435 10.2302" fill="#1F264F"/>
</g>
<defs>
<clipPath id="clip0_902_17593">
<rect width="33.0596" height="39" fill="white" transform="translate(0.525391 0.915527)"/>
</clipPath>
</defs>
</svg>
