<svg width="60" height="41" viewBox="0 0 60 41" fill="none" xmlns="http://www.w3.org/2000/svg">
<rect x="1.35" y="0.85" width="57.8" height="39.1" rx="5.95" fill="white" stroke="#D9D9D9" stroke-width="1.7"/>
<path fill-rule="evenodd" clip-rule="evenodd" d="M17.33 25.9096H14.6855C14.5045 25.9096 14.3506 26.0411 14.3224 26.2197L13.2528 33.0011C13.2315 33.135 13.3351 33.2556 13.4709 33.2556H14.7334C14.9144 33.2556 15.0683 33.1241 15.0965 32.9451L15.385 31.1161C15.4128 30.937 15.5671 30.8056 15.7477 30.8056H16.5849C18.3269 30.8056 19.3323 29.9626 19.595 28.2921C19.7132 27.5613 19.6 26.9871 19.2576 26.5848C18.8818 26.1433 18.2151 25.9096 17.33 25.9096ZM17.6351 28.3864C17.4905 29.3354 16.7655 29.3354 16.0644 29.3354H15.6653L15.9453 27.5631C15.9619 27.4561 16.0547 27.3772 16.163 27.3772H16.3459C16.8235 27.3772 17.274 27.3772 17.5068 27.6493C17.6455 27.8118 17.6881 28.053 17.6351 28.3864ZM25.2352 28.356H23.9688C23.8609 28.356 23.7677 28.4349 23.751 28.5421L23.695 28.8962L23.6064 28.7679C23.3323 28.37 22.721 28.237 22.1108 28.237C20.7112 28.237 19.516 29.2969 19.2832 30.7838C19.1623 31.5253 19.3342 32.2345 19.7549 32.7291C20.1409 33.1838 20.6932 33.3733 21.3501 33.3733C22.4776 33.3733 23.103 32.6482 23.103 32.6482L23.0465 33.0002C23.0252 33.1348 23.1288 33.2554 23.2637 33.2554H24.4045C24.586 33.2554 24.739 33.1239 24.7676 32.9449L25.4521 28.6105C25.4737 28.4772 25.3705 28.356 25.2352 28.356ZM23.4699 30.8208C23.3477 31.5443 22.7734 32.03 22.0412 32.03C21.6734 32.03 21.3794 31.9121 21.1908 31.6885C21.0036 31.4667 20.9324 31.1506 20.992 30.7988C21.1062 30.0814 21.6901 29.58 22.4112 29.58C22.7707 29.58 23.0631 29.6994 23.2557 29.9248C23.4486 30.1526 23.5252 30.4704 23.4699 30.8208ZM30.7073 28.3558H31.9799C32.1582 28.3558 32.2621 28.5557 32.1608 28.7019L27.9282 34.8115C27.8597 34.9105 27.7467 34.9694 27.6261 34.9694H26.3551C26.1761 34.9694 26.0716 34.7679 26.1752 34.6213L27.4932 32.761L26.0915 28.6473C26.043 28.5043 26.1486 28.3558 26.3007 28.3558H27.5512C27.7136 28.3558 27.857 28.4625 27.9039 28.618L28.6477 31.1025L30.403 28.5171C30.4718 28.4161 30.5859 28.3558 30.7073 28.3558Z" fill="#253B80"/>
<path fill-rule="evenodd" clip-rule="evenodd" d="M44.5044 33.0011L45.5897 26.0957C45.6063 25.9885 45.6992 25.9096 45.8071 25.9092H47.029C47.1639 25.9092 47.2675 26.0302 47.2462 26.1641L46.1759 32.9451C46.148 33.1241 45.9941 33.2556 45.8128 33.2556H44.7216C44.5867 33.2556 44.4831 33.135 44.5044 33.0011ZM36.1924 25.9096H33.5474C33.3668 25.9096 33.2129 26.0411 33.1847 26.2197L32.1151 33.0011C32.0938 33.135 32.1974 33.2556 32.3325 33.2556H33.6897C33.8158 33.2556 33.9237 33.1636 33.9434 33.0383L34.2469 31.1161C34.2748 30.937 34.4291 30.8056 34.6096 30.8056H35.4464C37.1888 30.8056 38.1939 29.9626 38.4568 28.2921C38.5755 27.5613 38.4615 26.987 38.1193 26.5848C37.7437 26.1433 37.0775 25.9096 36.1924 25.9096ZM36.4975 28.3864C36.3533 29.3354 35.6282 29.3354 34.9267 29.3354H34.528L34.8084 27.5631C34.8251 27.4561 34.9171 27.3771 35.0257 27.3771H35.2086C35.6858 27.3771 36.1368 27.3771 36.3694 27.6493C36.5083 27.8118 36.5505 28.053 36.4975 28.3864ZM44.0969 28.356H42.8314C42.7226 28.356 42.6302 28.4349 42.614 28.5421L42.5579 28.8962L42.469 28.7679C42.1949 28.37 41.5839 28.237 40.9737 28.237C39.5742 28.237 38.3793 29.2969 38.1465 30.7838C38.0259 31.5253 38.1972 32.2345 38.6179 32.7291C39.0046 33.1838 39.5561 33.3733 40.213 33.3733C41.3406 33.3733 41.9658 32.6482 41.9658 32.6482L41.9094 33.0002C41.8881 33.1348 41.9918 33.2554 42.1276 33.2554H43.2678C43.4484 33.2554 43.6023 33.1239 43.6306 32.9449L44.3154 28.6105C44.3363 28.4771 44.2327 28.356 44.0969 28.356ZM42.3318 30.8208C42.2103 31.5443 41.6353 32.03 40.9029 32.03C40.5358 32.03 40.2413 31.912 40.0525 31.6885C39.8653 31.4666 39.795 31.1506 39.8539 30.7988C39.9686 30.0814 40.5518 29.58 41.2729 29.58C41.6326 29.58 41.9248 29.6994 42.1176 29.9248C42.3112 30.1526 42.3878 30.4704 42.3318 30.8208Z" fill="#179BD7"/>
<path d="M27.116 23.4836L27.4412 21.4185L26.717 21.4017H23.2588L25.6621 6.16318C25.6694 6.11718 25.6937 6.07428 25.7292 6.04382C25.7646 6.01337 25.81 5.99658 25.8573 5.99658H31.6883C33.6242 5.99658 34.96 6.39941 35.6575 7.19449C35.9845 7.56749 36.1928 7.95726 36.2935 8.3862C36.3991 8.83629 36.4011 9.37401 36.2978 10.0299L36.2903 10.0777V10.4979L36.6174 10.6832C36.8928 10.8293 37.1115 10.9965 37.2793 11.188C37.5592 11.5069 37.7401 11.9122 37.8166 12.3927C37.8955 12.8869 37.8693 13.475 37.7401 14.1408C37.5909 14.9067 37.3497 15.5737 37.024 16.1195C36.7243 16.6224 36.3426 17.0395 35.8895 17.3628C35.4568 17.6699 34.9426 17.9031 34.3614 18.0523C33.7981 18.1989 33.156 18.273 32.4517 18.273H31.9979C31.6735 18.273 31.3581 18.3898 31.1108 18.5994C30.8628 18.8132 30.6985 19.1053 30.6483 19.4249L30.6141 19.6108L30.0397 23.2504L30.0135 23.3841C30.0067 23.4265 29.9949 23.4476 29.9776 23.4619C29.962 23.4748 29.9396 23.4836 29.9178 23.4836H27.116Z" fill="#253B80"/>
<path d="M36.9271 10.1264C36.9098 10.2377 36.8899 10.3515 36.8675 10.4683C36.0984 14.4164 33.4677 15.7803 30.1076 15.7803H28.3968C27.986 15.7803 27.6397 16.0787 27.5757 16.484L26.6997 22.0392L26.4517 23.6137C26.41 23.8798 26.6152 24.1198 26.8837 24.1198H29.9181C30.2774 24.1198 30.5825 23.8587 30.6391 23.5044L30.6689 23.3501L31.2403 19.7247L31.277 19.5258C31.3328 19.1703 31.6387 18.9092 31.998 18.9092H32.4518C35.3916 18.9092 37.693 17.7156 38.3657 14.2616C38.6466 12.8188 38.5011 11.614 37.7576 10.7667C37.5327 10.5112 37.2535 10.2992 36.9271 10.1264Z" fill="#179BD7"/>
<path d="M36.1223 9.80592C36.0049 9.77172 35.8836 9.74064 35.7592 9.71267C35.6343 9.68532 35.5062 9.66108 35.3745 9.63994C34.9131 9.56534 34.4078 9.52991 33.8663 9.52991H29.296C29.1834 9.52991 29.0766 9.55539 28.9808 9.6014C28.77 9.70272 28.6135 9.90228 28.5755 10.1466L27.6031 16.3047L27.5752 16.4843C27.6393 16.079 27.9855 15.7806 28.3964 15.7806H30.1071C33.4672 15.7806 36.0981 14.4161 36.8671 10.4686C36.89 10.3517 36.9093 10.238 36.9266 10.1267C36.7321 10.0235 36.5213 9.93522 36.2944 9.85999C36.2386 9.84135 36.1808 9.82333 36.1223 9.80592Z" fill="#222D65"/>
<path d="M28.5761 10.1464C28.614 9.90209 28.7708 9.70254 28.9814 9.60183C29.0778 9.55582 29.1841 9.53034 29.2965 9.53034H33.867C34.4085 9.53034 34.9139 9.56577 35.375 9.64038C35.5069 9.66151 35.635 9.68576 35.7599 9.7131C35.8843 9.74109 36.0054 9.77217 36.123 9.80635C36.1814 9.82376 36.2392 9.84178 36.2957 9.85982C36.5226 9.93503 36.7334 10.0239 36.9279 10.1265C37.1568 8.66749 36.9261 7.6741 36.1373 6.77456C35.2676 5.78428 33.6979 5.36032 31.6894 5.36032H25.8582C25.4479 5.36032 25.098 5.6587 25.0345 6.06464L22.6058 21.4598C22.5579 21.7644 22.7928 22.0392 23.0999 22.0392H26.7L27.6039 16.3045L28.5761 10.1464Z" fill="#253B80"/>
</svg>
