<svg width="16" height="16" viewBox="0 0 16 16" fill="none" xmlns="http://www.w3.org/2000/svg">
<path d="M6.33497 2.83815C6.13249 2.33193 5.64221 2 5.09701 2H3.26316C2.56554 2 2 2.5654 2 3.26302C2 9.19281 6.80719 14 12.737 14C13.4346 14 14 13.4344 14 12.7368L14.0003 10.9026C14.0003 10.3574 13.6685 9.86724 13.1622 9.66475L11.4046 8.96196C10.9499 8.78007 10.4322 8.86193 10.056 9.17546L9.60235 9.55378C9.07258 9.99526 8.29309 9.96015 7.80546 9.47252L6.52815 8.19404C6.04052 7.70641 6.00449 6.92756 6.44596 6.39779L6.82422 5.9442C7.13774 5.56797 7.22033 5.05011 7.03844 4.59539L6.33497 2.83815Z" stroke="white" stroke-width="1.5" stroke-linecap="round" stroke-linejoin="round"/>
</svg>
