<svg width="17" height="16" viewBox="0 0 17 16" fill="none" xmlns="http://www.w3.org/2000/svg">
<path d="M7.00099 2.83815C6.79851 2.33193 6.30823 2 5.76302 2H3.92917C3.23155 2 2.66602 2.5654 2.66602 3.26302C2.66602 9.19281 7.4732 14 13.403 14C14.1006 14 14.666 13.4344 14.666 12.7368L14.6663 10.9026C14.6663 10.3574 14.3345 9.86724 13.8283 9.66475L12.0706 8.96196C11.6159 8.78007 11.0982 8.86193 10.722 9.17546L10.2684 9.55378C9.73859 9.99526 8.9591 9.96015 8.47148 9.47252L7.19416 8.19404C6.70654 7.70641 6.67051 6.92756 7.11198 6.39779L7.49023 5.9442C7.80376 5.56797 7.88634 5.05011 7.70446 4.59539L7.00099 2.83815Z" stroke="white" stroke-width="1.5" stroke-linecap="round" stroke-linejoin="round"/>
</svg>
