<svg width="28" height="24" viewBox="0 0 28 24" fill="none" xmlns="http://www.w3.org/2000/svg">
<path d="M6.10889 17.0727V6.9273C6.10889 6.09072 6.10889 5.67196 6.31755 5.42444C6.49966 5.2084 6.78036 5.06656 7.09199 5.03265C7.44892 4.99381 7.88669 5.19079 8.76096 5.5842L20.0342 10.6569L20.0383 10.6584C21.0045 11.0932 21.4878 11.3107 21.6464 11.6006C21.7847 11.8534 21.7847 12.1453 21.6464 12.3982C21.4876 12.6885 21.0031 12.9068 20.0342 13.3428L8.76096 18.4155C7.88606 18.8092 7.44905 19.0054 7.09199 18.9666C6.78036 18.9327 6.49966 18.7909 6.31755 18.5748C6.10889 18.3273 6.10889 17.9093 6.10889 17.0727Z" stroke="#666666" stroke-width="1.69099" stroke-linecap="round" stroke-linejoin="round"/>
</svg>
