<svg width="12" height="12" viewBox="0 0 12 12" fill="none" xmlns="http://www.w3.org/2000/svg">
<path d="M10.8482 9.7498C11.0304 9.95228 11.0304 10.256 10.8279 10.4382L10.261 11.0052C10.0787 11.2077 9.775 11.2077 9.57251 11.0052L7.56794 9.00062C7.4667 8.89938 7.4262 8.77789 7.4262 8.6564V8.31218C6.69727 8.87913 5.80635 9.2031 4.83443 9.2031C2.50589 9.2031 0.622803 7.32002 0.622803 4.99147C0.622803 2.68317 2.50589 0.779842 4.83443 0.779842C7.14273 0.779842 9.04606 2.68317 9.04606 4.99147C9.04606 5.98363 8.70184 6.87456 8.15514 7.58324H8.47911C8.6006 7.58324 8.72209 7.64399 8.82333 7.72498L10.8482 9.7498ZM4.83443 7.58324C6.25181 7.58324 7.4262 6.42909 7.4262 4.99147C7.4262 3.5741 6.25181 2.3997 4.83443 2.3997C3.39681 2.3997 2.24266 3.5741 2.24266 4.99147C2.24266 6.42909 3.39681 7.58324 4.83443 7.58324Z" fill="#00BAC2"/>
</svg>
