<svg width="19" height="12" viewBox="0 0 19 12" fill="none" xmlns="http://www.w3.org/2000/svg">
<path d="M2.48863 7.48234C3.9715 8.95653 6.55758 10.9999 9.49979 10.9999C12.442 10.9999 15.0276 8.95653 16.5104 7.48234C16.9015 7.09355 17.0977 6.89849 17.2223 6.51676C17.3111 6.2444 17.3111 5.75561 17.2223 5.48325C17.0977 5.10151 16.9016 4.90642 16.5104 4.51759C15.0276 3.0434 12.442 1 9.49979 1C6.55758 1 3.9715 3.0434 2.48863 4.51759C2.09725 4.90669 1.90154 5.10137 1.77696 5.48325C1.68811 5.75561 1.68811 6.2444 1.77696 6.51676C1.90154 6.89864 2.09725 7.09324 2.48863 7.48234Z" stroke="#442D87" stroke-width="1.5" stroke-linecap="round" stroke-linejoin="round"/>
<path d="M7.83297 6C7.83297 6.92047 8.57916 7.66667 9.49963 7.66667C10.4201 7.66667 11.1663 6.92047 11.1663 6C11.1663 5.07953 10.4201 4.33333 9.49963 4.33333C8.57916 4.33333 7.83297 5.07953 7.83297 6Z" stroke="#442D87" stroke-width="1.5" stroke-linecap="round" stroke-linejoin="round"/>
</svg>
