<svg width="64" height="64" viewBox="0 0 64 64" fill="none" xmlns="http://www.w3.org/2000/svg">
<path d="M53.1004 38.6H45.6004V42.4H53.1004C54.1004 42.4 55.0004 43.2 55.0004 44.3C55.0004 45.4 54.2004 46.2 53.1004 46.2H6.30039C5.30039 46.2 4.40039 47 4.40039 48.1C4.40039 49.1 5.20039 50 6.30039 50H53.2004C56.3004 50 58.8004 47.5 58.8004 44.4C58.8004 41.1 56.2004 38.6 53.1004 38.6ZM54.5004 25.7L50.8004 25.4C50.8004 25.3 53.1004 11.6 53.6004 8.8C53.9004 7.2 54.5004 2.7 60.2004 2.7V6.5C57.9004 6.5 57.6004 7.4 57.4004 9.1C56.8004 11.9 54.5004 25.5 54.5004 25.7Z" fill="#B2C1C0"/>
<path d="M54.7004 12.3H4.00037C2.10037 12.3 1.80037 14.1 2.10037 15.1L7.80037 40.5C8.10037 41.5 9.10037 42.3 10.2004 42.3H50.0004C51.0004 42.3 52.0004 41.5 52.2004 40.4L56.4004 14.1C56.5004 13.2 55.7004 12.3 54.7004 12.3ZM6.90037 20.8L5.90037 17C5.80037 16.5 6.10037 16.1 6.60037 16.1H13.7004C14.2004 16.1 14.7004 16.5 14.7004 17L15.1004 20.8C15.2004 21.3 14.8004 21.7 14.3004 21.7H8.00037C7.50037 21.7 7.00037 21.3 6.90037 20.8ZM10.1004 30.1C9.60037 30.1 9.10037 29.7 8.90037 29.2L8.20037 26.3C8.10037 25.8 8.40037 25.4 8.90037 25.4H14.6004C15.1004 25.4 15.6004 25.8 15.6004 26.3L15.9004 29.1C16.0004 29.6 15.6004 30 15.1004 30C15.2004 30.1 10.1004 30.1 10.1004 30.1ZM16.1004 38.6H12.2004C11.7004 38.6 11.2004 38.2 11.0004 37.7L10.3004 34.8C10.2004 34.3 10.5004 33.9 11.0004 33.9H15.5004C16.0004 33.9 16.5004 34.3 16.5004 34.8L16.8004 37.6C17.0004 38.1 16.6004 38.6 16.1004 38.6ZM27.6004 37.6C27.6004 38.1 27.2004 38.5 26.7004 38.5H21.8004C21.3004 38.5 20.8004 38.1 20.8004 37.6L20.5004 34.8C20.4004 34.3 20.8004 33.9 21.3004 33.9H26.7004C27.2004 33.9 27.6004 34.3 27.6004 34.8V37.6ZM27.6004 29.2C27.6004 29.7 27.2004 30.1 26.7004 30.1H20.9004C20.4004 30.1 19.9004 29.7 19.9004 29.2L19.6004 26.4C19.5004 25.9 19.9004 25.5 20.4004 25.5H26.7004C27.2004 25.5 27.6004 25.9 27.6004 26.4V29.2ZM27.6004 20.8C27.6004 21.3 27.2004 21.7 26.7004 21.7H20.0004C19.5004 21.7 19.0004 21.3 19.0004 20.8L18.5004 17C18.4004 16.5 18.8004 16.1 19.3004 16.1H26.6004C27.1004 16.1 27.5004 16.5 27.5004 17C27.6004 17 27.6004 20.8 27.6004 20.8ZM37.8004 37.6C37.7004 38.1 37.3004 38.5 36.8004 38.5H32.4004C31.9004 38.5 31.5004 38.1 31.5004 37.6V34.8C31.5004 34.3 31.9004 33.9 32.4004 33.9H37.3004C37.8004 33.9 38.2004 34.3 38.1004 34.8L37.8004 37.6ZM38.7004 29.2C38.6004 29.7 38.2004 30.1 37.7004 30.1H32.4004C31.9004 30.1 31.5004 29.7 31.5004 29.2V26.4C31.5004 25.9 31.9004 25.5 32.4004 25.5H38.2004C38.7004 25.5 39.1004 25.9 39.0004 26.4L38.7004 29.2ZM39.6004 20.8C39.5004 21.3 39.1004 21.7 38.6004 21.7H32.4004C31.9004 21.7 31.5004 21.3 31.5004 20.8V17C31.5004 16.5 31.9004 16.1 32.4004 16.1H39.2004C39.7004 16.1 40.1004 16.5 40.0004 17L39.6004 20.8ZM48.3004 37.6C48.2004 38.1 47.7004 38.5 47.2004 38.5H42.4004C41.9004 38.5 41.5004 38.1 41.6004 37.6L41.9004 34.8C42.0004 34.3 42.4004 33.9 42.9004 33.9H48.0004C48.5004 33.9 48.9004 34.3 48.8004 34.8L48.3004 37.6ZM49.6004 29.2C49.5004 29.7 49.0004 30.1 48.5004 30.1H43.2004C42.7004 30.1 42.3004 29.7 42.4004 29.2L42.7004 26.4C42.8004 25.9 43.2004 25.5 43.7004 25.5H49.2004C49.7004 25.5 50.1004 25.9 50.0004 26.4L49.6004 29.2ZM50.9004 20.8C50.8004 21.3 50.3004 21.7 49.8004 21.7H44.1004C43.6004 21.7 43.2004 21.3 43.3004 20.8L43.7004 17C43.8004 16.5 44.2004 16.1 44.7004 16.1H50.6004C51.1004 16.1 51.5004 16.5 51.4004 17L50.9004 20.8Z" fill="#442D87"/>
<path d="M12.3002 62C15.393 62 17.9002 59.4928 17.9002 56.4C17.9002 53.3072 15.393 50.8 12.3002 50.8C9.2074 50.8 6.7002 53.3072 6.7002 56.4C6.7002 59.4928 9.2074 62 12.3002 62Z" fill="#62727A"/>
<path d="M12.3 59.2C13.8464 59.2 15.1 57.9464 15.1 56.4C15.1 54.8536 13.8464 53.6 12.3 53.6C10.7536 53.6 9.5 54.8536 9.5 56.4C9.5 57.9464 10.7536 59.2 12.3 59.2Z" fill="white"/>
<path d="M46.1 62C49.1928 62 51.7 59.4928 51.7 56.4C51.7 53.3072 49.1928 50.8 46.1 50.8C43.0072 50.8 40.5 53.3072 40.5 56.4C40.5 59.4928 43.0072 62 46.1 62Z" fill="#62727A"/>
<path d="M48.8998 56.4C48.8998 58 47.5998 59.2 46.0998 59.2C44.4998 59.2 43.2998 57.9 43.2998 56.4C43.2998 54.8 44.5998 53.6 46.0998 53.6C47.5998 53.6 48.8998 54.8 48.8998 56.4Z" fill="white"/>
<path d="M61.0998 2H58.2998V7.6H61.0998C61.5998 7.6 61.9998 7.2 61.9998 6.7V2.9C61.9998 2.4 61.5998 2 61.0998 2Z" fill="#62727A"/>
<path d="M12.2998 48.9C8.1998 48.9 4.7998 52.3 4.7998 56.4H19.7998C19.7998 52.2 16.4998 48.9 12.2998 48.9ZM46.0998 48.9C41.9998 48.9 38.5998 52.3 38.5998 56.4H53.5998C53.5998 52.2 50.1998 48.9 46.0998 48.9Z" fill="#442D87"/>
</svg>
