<svg width="41" height="41" viewBox="0 0 41 41" fill="none" xmlns="http://www.w3.org/2000/svg">
<path d="M4.42949 8.83068C3.3457 10.9577 3.3457 13.7422 3.3457 19.3112V22.2943C3.3457 27.8632 3.3457 30.6477 4.42949 32.7747C5.38282 34.6458 6.904 36.1669 8.77502 37.1203C10.9021 38.2041 13.6866 38.2041 19.2555 38.2041H22.2386C27.8075 38.2041 30.592 38.2041 32.7191 37.1203C34.5901 36.1669 36.1113 34.6458 37.0646 32.7747C38.1484 30.6477 38.1484 27.8632 38.1484 22.2943V19.3112C38.1484 13.7422 38.1484 10.9577 37.0646 8.83068C36.1113 6.95967 34.5901 5.43849 32.7191 4.48516C30.592 3.40137 27.8075 3.40137 22.2386 3.40137H19.2555C13.6866 3.40137 10.9021 3.40137 8.77502 4.48516C6.904 5.43849 5.38282 6.95967 4.42949 8.83068Z" fill="url(#paint0_linear_847_6948)"/>
<path d="M3.67536 11.2065C3.3457 13.08 3.3457 15.5659 3.3457 19.3111V22.2942C3.3457 27.8632 3.3457 30.6476 4.42949 32.7747C5.38282 34.6457 6.904 36.1669 8.77502 37.1202C10.9021 38.204 13.6866 38.204 19.2555 38.204H22.2386C27.8075 38.204 30.592 38.204 32.7191 37.1202C34.5901 36.1669 36.1113 34.6457 37.0646 32.7747C38.1484 30.6476 38.1484 27.8632 38.1484 22.2942V19.3111C38.1484 13.7422 38.1484 10.9577 37.0646 8.83063C36.1444 7.02472 34.6953 5.54471 32.9131 4.58667L3.67536 11.2065Z" fill="url(#paint1_linear_847_6948)"/>
<path d="M37.7888 30.5649C37.629 31.4049 37.3982 32.1209 37.0651 32.7747C36.1117 34.6458 34.5905 36.1669 32.7195 37.1203C30.6561 38.1716 27.9741 38.2031 22.7316 38.204H20.8203V34.2723L37.7888 30.5649Z" fill="url(#paint2_linear_847_6948)"/>
<path d="M22.2376 3.40137H19.2545C18.1711 3.40137 17.193 3.40137 16.3047 3.40935V8.33654L32.9088 4.58497C32.8457 4.55104 32.7821 4.51777 32.7181 4.48516C31.5372 3.88349 30.1538 3.61584 28.2037 3.49677C26.6412 3.40137 24.7149 3.40137 22.2376 3.40137Z" fill="url(#paint3_linear_847_6948)"/>
<path d="M38.1483 22.5097C38.1482 26.2455 38.1415 28.708 37.7882 30.5649L31.8867 31.8543V23.0597L38.1483 21.6035V22.5097Z" fill="url(#paint4_linear_847_6948)"/>
<path fill-rule="evenodd" clip-rule="evenodd" d="M19.4312 17.5437C19.4312 16.7449 20.0843 16.4376 21.166 16.4376C22.7171 16.4376 24.6764 16.9087 26.2275 17.7485V12.9351C24.5335 12.2592 22.86 11.9929 21.166 11.9929C17.0229 11.9929 14.2676 14.1641 14.2676 17.7895C14.2676 23.4426 22.0232 22.5414 22.0232 24.9788C22.0232 25.921 21.2068 26.2283 20.0639 26.2283C18.3699 26.2283 16.2065 25.5319 14.4921 24.5897V29.4645C16.3902 30.2838 18.3086 30.632 20.0639 30.632C24.309 30.632 27.2276 28.5223 27.2276 24.8559C27.2072 18.7522 19.4312 19.8377 19.4312 17.5437Z" fill="white"/>
<defs>
<linearGradient id="paint0_linear_847_6948" x1="3.3457" y1="3.40137" x2="14.7767" y2="11.4832" gradientUnits="userSpaceOnUse">
<stop stop-color="#392993"/>
<stop offset="1" stop-color="#4B47B9"/>
</linearGradient>
<linearGradient id="paint1_linear_847_6948" x1="4.65627" y1="11.5731" x2="29.891" y2="32.3882" gradientUnits="userSpaceOnUse">
<stop stop-color="#594BB9"/>
<stop offset="1" stop-color="#60A8F2"/>
</linearGradient>
<linearGradient id="paint2_linear_847_6948" x1="20.8203" y1="34.418" x2="38.1488" y2="38.2041" gradientUnits="userSpaceOnUse">
<stop stop-color="#61A2EF"/>
<stop offset="1" stop-color="#58E6FD"/>
</linearGradient>
<linearGradient id="paint3_linear_847_6948" x1="16.3047" y1="5.87687" x2="38.1474" y2="3.40137" gradientUnits="userSpaceOnUse">
<stop stop-color="#534EBE"/>
<stop offset="1" stop-color="#6875E2"/>
</linearGradient>
<linearGradient id="paint4_linear_847_6948" x1="31.8867" y1="23.1325" x2="38.1483" y2="30.6318" gradientUnits="userSpaceOnUse">
<stop stop-color="#71A5F3"/>
<stop offset="1" stop-color="#6CC3FA"/>
</linearGradient>
</defs>
</svg>
