<svg width="60" height="41" viewBox="0 0 60 41" fill="none" xmlns="http://www.w3.org/2000/svg">
<rect x="0.85" y="0.85" width="57.8" height="39.1" rx="5.95" fill="white" stroke="#D9D9D9" stroke-width="1.7"/>
<path fill-rule="evenodd" clip-rule="evenodd" d="M31.969 13.8413L28.9465 14.49V12.0395L31.969 11.4028V13.8413ZM19.6863 12.7963L16.7481 13.4209L16.736 23.0427C16.736 24.8205 18.0727 26.1299 19.8548 26.1299C20.8423 26.1299 21.5648 25.9497 21.9621 25.7335V23.295C21.5768 23.4511 19.6742 24.0037 19.6742 22.2259V17.9615H21.9621V15.4029H19.6742L19.6863 12.7963ZM12.5701 17.8054C11.9319 17.8054 11.5466 17.9856 11.5466 18.4541C11.5466 18.9656 12.2097 19.1906 13.0325 19.4697C14.3737 19.9248 16.139 20.5237 16.1465 22.7424C16.1465 24.8926 14.4245 26.1299 11.9199 26.1299C10.8843 26.1299 9.75234 25.9257 8.63246 25.4452V22.5863C9.64396 23.1388 10.9204 23.5473 11.9199 23.5473C12.5942 23.5473 13.0759 23.3671 13.0759 22.8145C13.0759 22.2479 12.357 21.9889 11.4891 21.6763C10.1673 21.2001 8.5 20.5995 8.5 18.5982C8.5 16.472 10.1256 15.1987 12.5701 15.1987C13.5696 15.1987 14.557 15.3549 15.5565 15.7513V18.5742C14.6413 18.0817 13.4853 17.8054 12.5701 17.8054ZM47.5033 15.1987C50.3572 15.1987 51.8504 17.6252 51.8504 20.7003C51.8504 20.8662 51.8424 21.1435 51.8356 21.3788V21.3789L51.8356 21.3792V21.3793L51.8356 21.3795L51.8356 21.3801C51.8306 21.5531 51.8263 21.7033 51.8263 21.7694H45.9379C46.0704 23.1869 47.106 23.5953 48.274 23.5953C49.4661 23.5953 50.4054 23.343 51.2242 22.9346V25.3371C50.4054 25.7935 49.3216 26.1179 47.8887 26.1179C44.9505 26.1179 42.9034 24.292 42.9034 20.6763C42.9034 17.6252 44.6374 15.1987 47.5033 15.1987ZM47.4913 17.6372C46.7326 17.6372 45.9018 18.2018 45.9018 19.5592H49.0085C49.0085 18.2018 48.2258 17.6372 47.4913 17.6372ZM25.7072 16.2919L25.5145 15.4029H22.9135V25.9137H25.9239V18.7904C26.6344 17.8655 27.8385 18.0336 28.2118 18.1658V15.4029C27.8265 15.2588 26.4176 14.9945 25.7072 16.2919ZM28.9465 15.4029H31.969V25.9136H28.9465V15.4029ZM38.2542 15.1987C37.0741 15.1987 36.3155 15.7513 35.894 16.1357L35.7375 15.3909H33.0883V29.3972L36.0987 28.7606L36.1108 25.3611C36.5443 25.6734 37.1825 26.1179 38.2421 26.1179C40.3976 26.1179 42.3604 24.3881 42.3604 20.5802C42.3484 17.0967 40.3615 15.1987 38.2542 15.1987ZM37.5311 23.4752C36.8206 23.4752 36.3992 23.2229 36.1102 22.9106L36.0981 18.4541C36.4112 18.1057 36.8447 17.8655 37.5311 17.8655C38.6269 17.8655 39.3855 19.0907 39.3855 20.6643C39.3855 22.2739 38.6389 23.4752 37.5311 23.4752Z" fill="#6461FC"/>
</svg>
