<svg width="28" height="25" viewBox="0 0 28 25" fill="none" xmlns="http://www.w3.org/2000/svg">
<g clip-path="url(#clip0_1119_49466)">
<path d="M10.5458 16.3321V13.9925M10.5458 13.9925V6.19385C10.5458 5.78018 10.7361 5.38346 11.0748 5.09095C11.4135 4.79844 11.8728 4.63412 12.3518 4.63412C12.8308 4.63412 13.2902 4.79844 13.6289 5.09095C13.9675 5.38346 14.1578 5.78018 14.1578 6.19385V12.4328H20.2134C21.8568 12.4328 23.1879 13.5823 23.1879 15.0017V16.3321C23.1879 18.1936 22.3316 19.9789 20.8075 21.2952C19.2834 22.6114 17.2162 23.3509 15.0608 23.3509H14.1578C12.2419 23.3509 10.4044 22.6936 9.04966 21.5236C7.69489 20.3535 6.93379 18.7667 6.93379 17.112C6.93379 16.2846 7.31434 15.4912 7.99173 14.9062C8.66911 14.3212 9.58784 13.9925 10.5458 13.9925ZM16.8668 9.31332H20.4788C21.6763 9.31332 22.8247 8.90249 23.6714 8.17123C24.5182 7.43996 24.9939 6.44815 24.9939 5.41398C24.9939 4.37981 24.5182 3.388 23.6714 2.65674C22.8247 1.92547 21.6763 1.51465 20.4788 1.51465H7.8368C6.63934 1.51465 5.49093 1.92547 4.6442 2.65674C3.79747 3.388 3.32178 4.37981 3.32178 5.41398C3.32178 6.44815 3.79747 7.43996 4.6442 8.17123C5.49093 8.90249 6.63934 9.31332 7.8368 9.31332" stroke="#666666" stroke-width="1.46493"/>
</g>
<defs>
<clipPath id="clip0_1119_49466">
<rect width="27.0901" height="23.396" fill="white" transform="translate(0.612793 0.734863)"/>
</clipPath>
</defs>
</svg>
