<svg width="40" height="40" viewBox="0 0 40 40" fill="none" xmlns="http://www.w3.org/2000/svg">
<path d="M10.8333 32.5C8.52778 32.5 6.56222 31.7011 4.93667 30.1033C3.31222 28.5067 2.5 26.5556 2.5 24.25C2.5 22.1667 3.16667 20.34 4.5 18.77C5.83333 17.2011 7.48611 16.2778 9.45833 16C9.98611 13.5 11.2361 11.4583 13.2083 9.875C15.1806 8.29167 17.4444 7.5 20 7.5C23.0278 7.5 25.5906 8.54833 27.6883 10.645C29.785 12.7428 30.8333 15.3056 30.8333 18.3333V19.1667H31.3333C33.1111 19.3056 34.5833 20.0139 35.75 21.2917C36.9167 22.5694 37.5 24.0833 37.5 25.8333C37.5 27.6944 36.8611 29.2706 35.5833 30.5617C34.3056 31.8539 32.7361 32.5 30.875 32.5H21.75C20.9167 32.5 20.2083 32.2083 19.625 31.625C19.0417 31.0417 18.75 30.3333 18.75 29.5V20.375L15.6667 23.375L13.9167 21.6667L20 15.5417L26.0833 21.6667L24.3333 23.375L21.25 20.375V29.5C21.25 29.6111 21.3056 29.7222 21.4167 29.8333C21.5278 29.9444 21.6389 30 21.75 30H30.8333C32 30 32.9861 29.5972 33.7917 28.7917C34.5972 27.9861 35 27 35 25.8333C35 24.6667 34.5972 23.6806 33.7917 22.875C32.9861 22.0694 32 21.6667 30.8333 21.6667H28.3333V18.3333C28.3333 16.0278 27.5211 14.0622 25.8967 12.4367C24.2711 10.8122 22.3056 10 20 10C17.6944 10 15.7294 10.8122 14.105 12.4367C12.4794 14.0622 11.6667 16.0278 11.6667 18.3333H10.7917C9.20833 18.3333 7.84722 18.9028 6.70833 20.0417C5.56944 21.1806 5 22.5556 5 24.1667C5 25.7778 5.56944 27.1528 6.70833 28.2917C7.84722 29.4306 9.22222 30 10.8333 30H15V32.5H10.8333Z" fill="#202124"/>
</svg>
