<svg width="60" height="41" viewBox="0 0 60 41" fill="none" xmlns="http://www.w3.org/2000/svg">
<rect x="0.85" y="0.85" width="57.8" height="39.1" rx="5.95" fill="white" stroke="#D9D9D9" stroke-width="1.7"/>
<path fill-rule="evenodd" clip-rule="evenodd" d="M18.0624 27.639H14.4578L11.7548 17.327C11.6265 16.8527 11.3541 16.4333 10.9534 16.2357C9.95344 15.739 8.85152 15.3437 7.64941 15.1443V14.7473H13.4561C14.2575 14.7473 14.8585 15.3437 14.9587 16.0363L16.3611 23.4747L19.9639 14.7473H23.4683L18.0624 27.639ZM25.4721 27.639H22.0679L24.871 14.7473H28.2752L25.4721 27.639ZM32.6795 18.3187C32.7796 17.6244 33.3807 17.2273 34.0819 17.2273C35.1838 17.1277 36.3842 17.327 37.3859 17.822L37.987 15.0464C36.9852 14.6493 35.8833 14.45 34.8833 14.45C31.5793 14.45 29.1751 16.2357 29.1751 18.714C29.1751 20.5994 30.8781 21.5893 32.0802 22.1857C33.3807 22.7803 33.8816 23.1774 33.7814 23.772C33.7814 24.664 32.7796 25.061 31.7796 25.061C30.5775 25.061 29.3754 24.7637 28.2753 24.267L27.6742 27.0444C28.8763 27.5393 30.1768 27.7387 31.3789 27.7387C35.0837 27.8367 37.3859 26.0527 37.3859 23.375C37.3859 20.003 32.6795 19.8053 32.6795 18.3187ZM49.2989 27.639L46.5959 14.7473H43.6926C43.0915 14.7473 42.4905 15.1443 42.2901 15.739L37.2849 27.639H40.7892L41.4887 25.7553H45.7945L46.1952 27.639H49.2989ZM44.1947 18.219L45.1946 23.0777H42.3915L44.1947 18.219Z" fill="#172B85"/>
</svg>
