<svg width="20" height="21" viewBox="0 0 20 21" fill="none" xmlns="http://www.w3.org/2000/svg">
<path d="M10.0001 10.207V15.207M10.0001 15.207L12.5001 13.5404M10.0001 15.207L7.50008 13.5404M10.8334 2.70776C10.7538 2.70703 10.6645 2.70703 10.5623 2.70703H6.83358C5.90016 2.70703 5.4331 2.70703 5.07658 2.88869C4.76298 3.04848 4.50819 3.30326 4.3484 3.61686C4.16675 3.97338 4.16675 4.44044 4.16675 5.37386V15.0405C4.16675 15.9739 4.16675 16.4404 4.3484 16.7969C4.50819 17.1105 4.76298 17.3658 5.07658 17.5256C5.43275 17.707 5.89924 17.707 6.83084 17.707H13.1693C14.1009 17.707 14.5667 17.707 14.9229 17.5256C15.2365 17.3658 15.4921 17.1105 15.6519 16.7969C15.8334 16.4408 15.8334 15.9749 15.8334 15.0433V7.97843C15.8334 7.87617 15.8334 7.7867 15.8326 7.70703M10.8334 2.70776C11.0714 2.70992 11.222 2.71857 11.3658 2.75308C11.5358 2.79391 11.6983 2.86142 11.8474 2.9528C12.0156 3.05584 12.1599 3.20021 12.448 3.48828L15.0526 6.09285C15.3408 6.3811 15.4841 6.52483 15.5872 6.69303C15.6786 6.84215 15.7462 7.00474 15.787 7.1748C15.8215 7.3185 15.8304 7.46912 15.8326 7.70703M10.8334 2.70776V5.04036C10.8334 5.97378 10.8334 6.44017 11.0151 6.79669C11.1749 7.11029 11.4296 7.36576 11.7432 7.52555C12.0994 7.70703 12.5659 7.70703 13.4975 7.70703H15.8326M15.8326 7.70703H15.8336" stroke="white" stroke-width="1.5" stroke-linecap="round" stroke-linejoin="round"/>
</svg>
